<svg width="25" height="25" viewBox="0 0 25 25" fill="none" xmlns="http://www.w3.org/2000/svg">
<path opacity="0.4" d="M12.5 15.7318C14.3409 15.7318 15.8333 14.2394 15.8333 12.3984C15.8333 10.5575 14.3409 9.06509 12.5 9.06509C10.659 9.06509 9.16663 10.5575 9.16663 12.3984C9.16663 14.2394 10.659 15.7318 12.5 15.7318Z" stroke="#222222" stroke-linecap="round" stroke-linejoin="round"/>
<path d="M15.6921 19.6001C14.0219 20.4925 13.3894 20.4915 11.8912 20.3772C10.114 20.2415 8.43294 19.5163 7.11484 18.3165C5.79673 17.1166 4.91706 15.511 4.61541 13.7543C4.31376 11.9976 4.6074 10.1905 5.44974 8.61969C6.29209 7.04888 7.63488 5.80437 9.26506 5.08362C10.8952 4.36288 12.7194 4.20718 14.4482 4.64123C16.1769 5.07529 17.7112 6.07423 18.8076 7.47956C19.9039 8.88489 20.4996 10.6161 20.5 12.3985C20.5 14.2402 19.8333 15.7318 18.1667 15.7318C16.5 15.7318 15.8333 14.2402 15.8333 12.3985L16.3175 9.59906" stroke="#222222" stroke-linecap="round" stroke-linejoin="round"/>
</svg>
