<svg width="25" height="25" viewBox="0 0 25 25" fill="none" xmlns="http://www.w3.org/2000/svg">
<path d="M11.3083 16.9728L10.075 19.0725C10.0146 19.1727 9.93003 19.2555 9.82938 19.3129C9.72872 19.3703 9.61532 19.4004 9.5 19.4004C9.38468 19.4004 9.27128 19.3703 9.17062 19.3129C9.06997 19.2555 8.9854 19.1727 8.925 19.0725L7.69167 16.9728C7.63366 16.8721 7.55087 16.7885 7.45149 16.7303C7.35211 16.6722 7.23957 16.6415 7.125 16.6413H5.16667C4.98986 16.6413 4.82029 16.5697 4.69526 16.4421C4.57024 16.3146 4.5 16.1416 4.5 15.9613V5.08044C4.5 4.90008 4.57024 4.72711 4.69526 4.59957C4.82029 4.47204 4.98986 4.40039 5.16667 4.40039H19.8333C20.0101 4.40039 20.1797 4.47204 20.3047 4.59957C20.4298 4.72711 20.5 4.90008 20.5 5.08044V15.9613C20.5 16.1416 20.4298 16.3146 20.3047 16.4421C20.1797 16.5697 20.0101 16.6413 19.8333 16.6413H11.875C11.7604 16.6415 11.6479 16.6722 11.5485 16.7303C11.4491 16.7885 11.3663 16.8721 11.3083 16.9728Z" stroke="#222222" stroke-linecap="round" stroke-linejoin="round"/>
</svg>
