<svg width="25" height="25" viewBox="0 0 25 25" fill="none" xmlns="http://www.w3.org/2000/svg">
<path d="M14.3083 16.9728L13.075 19.0725C13.0146 19.1727 12.93 19.2554 12.8294 19.3129C12.7287 19.3703 12.6153 19.4004 12.5 19.4004C12.3847 19.4004 12.2713 19.3703 12.1706 19.3129C12.07 19.2554 11.9854 19.1727 11.925 19.0725L10.6917 16.9728C10.6337 16.8721 10.5509 16.7885 10.4515 16.7303C10.3521 16.6722 10.2396 16.6415 10.125 16.6413H5.16667C4.98986 16.6413 4.82029 16.5697 4.69526 16.4421C4.57024 16.3146 4.5 16.1416 4.5 15.9613V5.08044C4.5 4.90008 4.57024 4.72711 4.69526 4.59957C4.82029 4.47204 4.98986 4.40039 5.16667 4.40039H19.8333C20.0101 4.40039 20.1797 4.47204 20.3047 4.59957C20.4298 4.72711 20.5 4.90008 20.5 5.08044V15.9613C20.5 16.1416 20.4298 16.3146 20.3047 16.4421C20.1797 16.5697 20.0101 16.6413 19.8333 16.6413H14.875C14.7604 16.6415 14.6479 16.6722 14.5485 16.7303C14.4491 16.7885 14.3663 16.8721 14.3083 16.9728V16.9728Z" stroke="#222222" stroke-linecap="round" stroke-linejoin="round"/>
<path opacity="0.4" d="M12.5 11.5409C13.0523 11.5409 13.5 11.0842 13.5 10.5209C13.5 9.95748 13.0523 9.50078 12.5 9.50078C11.9477 9.50078 11.5 9.95748 11.5 10.5209C11.5 11.0842 11.9477 11.5409 12.5 11.5409Z" fill="#222222"/>
<path opacity="0.4" d="M8.5 11.5409C9.05228 11.5409 9.5 11.0842 9.5 10.5209C9.5 9.95748 9.05228 9.50078 8.5 9.50078C7.94772 9.50078 7.5 9.95748 7.5 10.5209C7.5 11.0842 7.94772 11.5409 8.5 11.5409Z" fill="#222222"/>
<path opacity="0.4" d="M16.5 11.5409C17.0523 11.5409 17.5 11.0842 17.5 10.5209C17.5 9.95748 17.0523 9.50078 16.5 9.50078C15.9477 9.50078 15.5 9.95748 15.5 10.5209C15.5 11.0842 15.9477 11.5409 16.5 11.5409Z" fill="#222222"/>
</svg>
