<svg width="25" height="25" viewBox="0 0 25 25" fill="none" xmlns="http://www.w3.org/2000/svg">
<path d="M7.8 12.8787L4.5 15.4873V5.05256C4.5 4.8796 4.57024 4.71371 4.69526 4.59141C4.82029 4.4691 4.98986 4.40039 5.16667 4.40039H15.8333C16.0101 4.40039 16.1797 4.4691 16.3047 4.59141C16.4298 4.71371 16.5 4.8796 16.5 5.05256V12.2265C16.5 12.3994 16.4298 12.5653 16.3047 12.6876C16.1797 12.8099 16.0101 12.8787 15.8333 12.8787H7.8Z" stroke="#222222" stroke-linecap="round" stroke-linejoin="round"/>
<path opacity="0.4" d="M8.5 15.8786V16.1395C8.5 16.3125 8.57024 16.4784 8.69526 16.6007C8.82029 16.723 8.98986 16.7917 9.16667 16.7917H17.2L20.5 19.4004V8.9656C20.5 8.79264 20.4298 8.62675 20.3047 8.50445C20.1797 8.38214 20.0101 8.31343 19.8333 8.31343H19.5" stroke="#222222" stroke-linecap="round" stroke-linejoin="round"/>
</svg>
