<svg width="25" height="25" viewBox="0 0 25 25" fill="none" xmlns="http://www.w3.org/2000/svg">
<path opacity="0.4" d="M19.5 19.4004L14.5 14.4004M17 20.4004C18.933 20.4004 20.5 18.8334 20.5 16.9004C20.5 14.9674 18.933 13.4004 17 13.4004C15.067 13.4004 13.5 14.9674 13.5 16.9004C13.5 18.8334 15.067 20.4004 17 20.4004Z" stroke="#222222" stroke-linecap="round" stroke-linejoin="round"/>
<path d="M10.8333 16.4004H5.83333C5.47971 16.4004 5.14057 16.2599 4.89052 16.0099C4.64048 15.7598 4.5 15.4207 4.5 15.0671V5.73372C4.5 5.3801 4.64048 5.04096 4.89052 4.79091C5.14057 4.54087 5.47971 4.40039 5.83333 4.40039H19.1667C19.5203 4.40039 19.8595 4.54087 20.1095 4.79091C20.3595 5.04096 20.5 5.3801 20.5 5.73372V11.4004" stroke="#222222" stroke-linecap="round" stroke-linejoin="round"/>
<path d="M4.5 5.90039L12.5 11.7439L20.5 5.90039" stroke="#222222" stroke-linecap="round" stroke-linejoin="round"/>
</svg>
