<svg width="25" height="25" viewBox="0 0 25 25" fill="none" xmlns="http://www.w3.org/2000/svg">
<path d="M16.1923 13.6312H19.5C20.0523 13.6312 20.5 14.0789 20.5 14.6312V19.1696C20.5 19.496 20.3703 19.8091 20.1395 20.0399C19.9087 20.2707 19.5956 20.4004 19.2692 20.4004H5.73077C5.40434 20.4004 5.0913 20.2707 4.86048 20.0399C4.62967 19.8091 4.5 19.496 4.5 19.1696V14.6312C4.5 14.0789 4.94772 13.6312 5.5 13.6312H8.80769C9.13412 13.6312 9.44716 13.7608 9.67798 13.9916C9.90879 14.2225 10.0385 14.5355 10.0385 14.8619V15.7103C10.0385 16.2626 10.4862 16.7103 11.0385 16.7103H13.9615C14.5138 16.7103 14.9615 16.2626 14.9615 15.7103V14.8619C14.9615 14.5355 15.0912 14.2225 15.322 13.9916C15.5528 13.7608 15.8659 13.6312 16.1923 13.6312Z" stroke="#222222" stroke-linecap="round" stroke-linejoin="round"/>
<path opacity="0.4" d="M9.4231 7.47733L12.5 4.40041M12.5 4.40041L15.5769 7.47733M12.5 4.40041L12.5 11.785" stroke="#222222" stroke-linecap="round" stroke-linejoin="round"/>
</svg>
