<svg width="25" height="25" viewBox="0 0 25 25" fill="none" xmlns="http://www.w3.org/2000/svg">
<path d="M5.16208 8.50242C4.73123 8.77812 4.47058 9.25437 4.47058 9.76588V18.6731C4.47058 18.9767 4.57398 19.2801 4.77578 19.514C4.97957 19.7502 5.27319 19.9004 5.59803 19.9004H19.402C19.7268 19.9004 20.0204 19.7502 20.2242 19.514C20.426 19.2801 20.5294 18.9767 20.5294 18.6731V9.76588C20.5294 9.25437 20.2688 8.77812 19.8379 8.50242L13.3085 4.32415C12.8156 4.00876 12.1844 4.00876 11.6915 4.32415L5.16208 8.50242Z" stroke="#222222" stroke-linecap="round" stroke-linejoin="round"/>
<path opacity="0.4" d="M20.5 9.98863L16.0917 14.8378C15.9022 15.0463 15.6335 15.1651 15.3517 15.1651H9.64825C9.36651 15.1651 9.09783 15.0462 8.90831 14.8378L4.5 9.98863" stroke="#222222" stroke-linecap="round" stroke-linejoin="round"/>
</svg>
