<svg width="25" height="25" viewBox="0 0 25 25" fill="none" xmlns="http://www.w3.org/2000/svg">
<path d="M11.9542 5.72219L5.57778 17.8921C5.5165 18.003 5.49046 18.13 5.50313 18.2561C5.5158 18.3822 5.56658 18.5015 5.64871 18.598C5.73084 18.6945 5.84042 18.7637 5.96287 18.7964C6.08532 18.8291 6.21482 18.8237 6.33414 18.781L12.2895 17.3014C12.4245 17.2468 12.5755 17.2468 12.7105 17.3014L18.6659 18.781C18.7852 18.8237 18.9147 18.8291 19.0371 18.7964C19.1596 18.7637 19.2692 18.6945 19.3513 18.598C19.4334 18.5015 19.4842 18.3822 19.4969 18.2561C19.5095 18.13 19.4835 18.003 19.4222 17.8921L13.0458 5.72219C12.9919 5.62469 12.9128 5.54342 12.8168 5.48683C12.7208 5.43024 12.6114 5.40039 12.5 5.40039C12.3886 5.40039 12.2792 5.43024 12.1832 5.48683C12.0872 5.54342 12.0081 5.62469 11.9542 5.72219Z" stroke="#222222" stroke-linecap="round" stroke-linejoin="round"/>
<path opacity="0.4" d="M12.5 17.2234V14.2331" stroke="#222222" stroke-linecap="round" stroke-linejoin="round"/>
</svg>
