<svg width="25" height="25" viewBox="0 0 25 25" fill="none" xmlns="http://www.w3.org/2000/svg">
<path d="M16.8867 10.4644H20.8784V6.47272" stroke="#222222" stroke-linecap="round" stroke-linejoin="round"/>
<path opacity="0.4" d="M7.70581 7.6453C8.38472 6.9654 9.19102 6.42601 10.0786 6.05799C10.9661 5.68998 11.9175 5.50055 12.8784 5.50055C13.8392 5.50055 14.7906 5.68998 15.6782 6.05799C16.5657 6.42601 17.372 6.9654 18.0509 7.6453L20.8784 10.4644" stroke="#222222" stroke-linecap="round" stroke-linejoin="round"/>
<path d="M8.8701 15.1713H4.87842V19.1629" stroke="#222222" stroke-linecap="round" stroke-linejoin="round"/>
<path opacity="0.4" d="M18.051 17.9904C17.3721 18.6703 16.5658 19.2097 15.6782 19.5777C14.7907 19.9457 13.8392 20.1351 12.8784 20.1351C11.9176 20.1351 10.9662 19.9457 10.0786 19.5777C9.19107 19.2097 8.38478 18.6703 7.70586 17.9904L4.87842 15.1713" stroke="#222222" stroke-linecap="round" stroke-linejoin="round"/>
</svg>
