<svg width="25" height="25" viewBox="0 0 25 25" fill="none" xmlns="http://www.w3.org/2000/svg">
<path d="M15.9553 18.1256V19.5871C15.9553 19.9135 15.8257 20.2266 15.5949 20.4574C15.364 20.6881 15.051 20.8179 14.7246 20.8179H6.10919C5.78276 20.8179 5.46972 20.6881 5.2389 20.4574C5.00809 20.2266 4.87842 19.9135 4.87842 19.5871V6.04864C4.87842 5.72222 5.00809 5.40917 5.2389 5.17835C5.46972 4.94754 5.78276 4.81787 6.10919 4.81787H14.7246C15.051 4.81787 15.364 4.94754 15.5949 5.17835C15.8257 5.40917 15.9553 5.72222 15.9553 6.04864V7.51018" stroke="#222222" stroke-linecap="round" stroke-linejoin="round"/>
<path opacity="0.4" d="M20.8783 12.8179L12.2629 12.8179M12.2629 12.8179L14.7245 15.2794M12.2629 12.8179L14.7245 10.3563" stroke="#222222" stroke-linecap="round" stroke-linejoin="round"/>
</svg>
