<svg width="25" height="25" viewBox="0 0 25 25" fill="none" xmlns="http://www.w3.org/2000/svg">
<path d="M6.07842 7.21787C6.74116 7.21787 7.27842 6.68061 7.27842 6.01787C7.27842 5.35513 6.74116 4.81787 6.07842 4.81787C5.41568 4.81787 4.87842 5.35513 4.87842 6.01787C4.87842 6.68061 5.41568 7.21787 6.07842 7.21787Z" fill="#222222"/>
<path d="M12.8785 7.21787C13.5412 7.21787 14.0785 6.68061 14.0785 6.01787C14.0785 5.35513 13.5412 4.81787 12.8785 4.81787C12.2157 4.81787 11.6785 5.35513 11.6785 6.01787C11.6785 6.68061 12.2157 7.21787 12.8785 7.21787Z" fill="#222222"/>
<path d="M19.6785 7.21787C20.3413 7.21787 20.8785 6.68061 20.8785 6.01787C20.8785 5.35513 20.3413 4.81787 19.6785 4.81787C19.0158 4.81787 18.4785 5.35513 18.4785 6.01787C18.4785 6.68061 19.0158 7.21787 19.6785 7.21787Z" fill="#222222"/>
<path d="M6.07842 14.0179C6.74116 14.0179 7.27842 13.4806 7.27842 12.8179C7.27842 12.1551 6.74116 11.6179 6.07842 11.6179C5.41568 11.6179 4.87842 12.1551 4.87842 12.8179C4.87842 13.4806 5.41568 14.0179 6.07842 14.0179Z" fill="#222222"/>
<path d="M12.8785 14.0179C13.5412 14.0179 14.0785 13.4806 14.0785 12.8179C14.0785 12.1551 13.5412 11.6179 12.8785 11.6179C12.2157 11.6179 11.6785 12.1551 11.6785 12.8179C11.6785 13.4806 12.2157 14.0179 12.8785 14.0179Z" fill="#222222"/>
<path d="M19.6785 14.0179C20.3413 14.0179 20.8785 13.4806 20.8785 12.8179C20.8785 12.1551 20.3413 11.6179 19.6785 11.6179C19.0158 11.6179 18.4785 12.1551 18.4785 12.8179C18.4785 13.4806 19.0158 14.0179 19.6785 14.0179Z" fill="#222222"/>
<path d="M6.07842 20.8179C6.74116 20.8179 7.27842 20.2806 7.27842 19.6179C7.27842 18.9551 6.74116 18.4179 6.07842 18.4179C5.41568 18.4179 4.87842 18.9551 4.87842 19.6179C4.87842 20.2806 5.41568 20.8179 6.07842 20.8179Z" fill="#222222"/>
<path d="M12.8785 20.8179C13.5412 20.8179 14.0785 20.2806 14.0785 19.6179C14.0785 18.9551 13.5412 18.4179 12.8785 18.4179C12.2157 18.4179 11.6785 18.9551 11.6785 19.6179C11.6785 20.2806 12.2157 20.8179 12.8785 20.8179Z" fill="#222222"/>
<path d="M19.6785 20.8179C20.3413 20.8179 20.8785 20.2806 20.8785 19.6179C20.8785 18.9551 20.3413 18.4179 19.6785 18.4179C19.0158 18.4179 18.4785 18.9551 18.4785 19.6179C18.4785 20.2806 19.0158 20.8179 19.6785 20.8179Z" fill="#222222"/>
</svg>
