<svg width="25" height="25" viewBox="0 0 25 25" fill="none" xmlns="http://www.w3.org/2000/svg">
<path d="M8.26303 11.5871C10.1323 11.5871 11.6476 10.0718 11.6476 8.20249C11.6476 6.33322 10.1323 4.81787 8.26303 4.81787C6.39377 4.81787 4.87842 6.33322 4.87842 8.20249C4.87842 10.0718 6.39377 11.5871 8.26303 11.5871Z" stroke="#222222" stroke-linecap="round" stroke-linejoin="round"/>
<path d="M17.4937 11.5871C19.363 11.5871 20.8784 10.0718 20.8784 8.20249C20.8784 6.33322 19.363 4.81787 17.4937 4.81787C15.6245 4.81787 14.1091 6.33322 14.1091 8.20249C14.1091 10.0718 15.6245 11.5871 17.4937 11.5871Z" stroke="#222222" stroke-linecap="round" stroke-linejoin="round"/>
<path d="M8.26303 20.8179C10.1323 20.8179 11.6476 19.3026 11.6476 17.4333C11.6476 15.564 10.1323 14.0486 8.26303 14.0486C6.39377 14.0486 4.87842 15.564 4.87842 17.4333C4.87842 19.3026 6.39377 20.8179 8.26303 20.8179Z" stroke="#222222" stroke-linecap="round" stroke-linejoin="round"/>
<path d="M17.4937 20.8179C19.363 20.8179 20.8784 19.3026 20.8784 17.4333C20.8784 15.564 19.363 14.0486 17.4937 14.0486C15.6245 14.0486 14.1091 15.564 14.1091 17.4333C14.1091 19.3026 15.6245 20.8179 17.4937 20.8179Z" stroke="#222222" stroke-linecap="round" stroke-linejoin="round"/>
</svg>
