<svg width="25" height="25" viewBox="0 0 25 25" fill="none" xmlns="http://www.w3.org/2000/svg">
<path d="M13.3784 14.5303C14.2068 14.5303 14.8784 13.8781 14.8784 13.0735C14.8784 12.2689 14.2068 11.6166 13.3784 11.6166C12.55 11.6166 11.8784 12.2689 11.8784 13.0735C11.8784 13.8781 12.55 14.5303 13.3784 14.5303Z" fill="#222222"/>
<path d="M13.3784 7.73161C14.2068 7.73161 14.8784 7.07935 14.8784 6.27474C14.8784 5.47013 14.2068 4.81787 13.3784 4.81787C12.55 4.81787 11.8784 5.47013 11.8784 6.27474C11.8784 7.07935 12.55 7.73161 13.3784 7.73161Z" fill="#222222"/>
<path d="M13.3784 20.9041C14.2068 20.9041 14.8784 20.2326 14.8784 19.4041C14.8784 18.5757 14.2068 17.9041 13.3784 17.9041C12.55 17.9041 11.8784 18.5757 11.8784 19.4041C11.8784 20.2326 12.55 20.9041 13.3784 20.9041Z" fill="#222222"/>
</svg>
