<svg width="25" height="25" viewBox="0 0 25 25" fill="none" xmlns="http://www.w3.org/2000/svg">
<path d="M11.7091 12.8612C11.7091 13.6896 12.3613 14.3612 13.1659 14.3612C13.9705 14.3612 14.6228 13.6896 14.6228 12.8612C14.6228 12.0327 13.9705 11.3612 13.1659 11.3612C12.3613 11.3612 11.7091 12.0327 11.7091 12.8612Z" fill="#222222"/>
<path d="M18.5079 12.8612C18.5079 13.6896 19.1602 14.3612 19.9648 14.3612C20.7694 14.3612 21.4216 13.6896 21.4216 12.8612C21.4216 12.0327 20.7694 11.3612 19.9648 11.3612C19.1602 11.3612 18.5079 12.0327 18.5079 12.8612Z" fill="#222222"/>
<path d="M5.33545 12.8612C5.33545 13.6896 6.00702 14.3612 6.83545 14.3612C7.66388 14.3612 8.33545 13.6896 8.33545 12.8612C8.33545 12.0327 7.66388 11.3612 6.83545 11.3612C6.00702 11.3612 5.33545 12.0327 5.33545 12.8612Z" fill="#222222"/>
</svg>
