<svg width="25" height="25" viewBox="0 0 25 25" fill="none" xmlns="http://www.w3.org/2000/svg">
<path d="M19.2118 6.31787H6.54508C6.17689 6.31787 5.87842 6.60889 5.87842 6.96787L4.87842 18.6679C4.87842 19.0269 5.17689 19.3179 5.54508 19.3179H20.2118C20.5799 19.3179 20.8784 19.0269 20.8784 18.6679L19.8784 6.96787C19.8784 6.60889 19.5799 6.31787 19.2118 6.31787Z" stroke="#222222" stroke-linecap="round" stroke-linejoin="round"/>
<path opacity="0.4" d="M16.2118 9.56787C16.2118 10.4298 15.8606 11.2565 15.2355 11.866C14.6104 12.4755 13.7626 12.8179 12.8785 12.8179C11.9944 12.8179 11.1466 12.4755 10.5215 11.866C9.89636 11.2565 9.54517 10.4298 9.54517 9.56787" stroke="#222222" stroke-linecap="round" stroke-linejoin="round"/>
</svg>
