<svg width="25" height="25" viewBox="0 0 25 25" fill="none" xmlns="http://www.w3.org/2000/svg">
<path d="M19.1511 8.86133H6.60578C6.45297 8.86203 6.30564 8.91726 6.19134 9.01668C6.07704 9.1161 6.0036 9.25291 5.98473 9.40155L4.88236 19.1407C4.87256 19.2255 4.88108 19.3115 4.90738 19.3929C4.93368 19.4743 4.97716 19.5494 5.035 19.6132C5.09284 19.6771 5.16375 19.7283 5.24311 19.7636C5.32248 19.7988 5.40852 19.8173 5.49565 19.8179H20.2612C20.3483 19.8173 20.4344 19.7988 20.5137 19.7636C20.5931 19.7283 20.664 19.6771 20.7218 19.6132C20.7797 19.5494 20.8232 19.4743 20.8495 19.3929C20.8758 19.3115 20.8843 19.2255 20.8745 19.1407L19.7721 9.40155C19.7532 9.25291 19.6798 9.1161 19.5655 9.01668C19.4512 8.91726 19.3039 8.86203 19.1511 8.86133V8.86133Z" stroke="#222222" stroke-linecap="round" stroke-linejoin="round"/>
<path opacity="0.4" d="M9.77319 11.2961V8.86135C9.77319 8.05417 10.1004 7.28005 10.6827 6.70929C11.2651 6.13852 12.0549 5.81787 12.8785 5.81787C13.702 5.81787 14.4919 6.13852 15.0742 6.70929C15.6566 7.28005 15.9837 8.05417 15.9837 8.86135V11.2961" stroke="#222222" stroke-linecap="round" stroke-linejoin="round"/>
</svg>
