<svg width="25" height="25" viewBox="0 0 25 25" fill="none" xmlns="http://www.w3.org/2000/svg">
<path d="M19.1511 19.3179H6.60578C6.45297 19.317 6.30564 19.2515 6.19134 19.1335C6.07704 19.0156 6.0036 18.8533 5.98473 18.6769L4.88236 7.12134C4.87256 7.02066 4.88108 6.91871 4.90738 6.8221C4.93368 6.7255 4.97716 6.63642 5.035 6.56064C5.09284 6.48486 5.16375 6.42408 5.24311 6.38226C5.32248 6.34043 5.40852 6.31849 5.49565 6.31787H20.2612C20.3483 6.31849 20.4344 6.34043 20.5137 6.38226C20.5931 6.42408 20.664 6.48486 20.7218 6.56064C20.7797 6.63642 20.8232 6.7255 20.8495 6.8221C20.8758 6.91871 20.8843 7.02066 20.8745 7.12134L19.7721 18.6769C19.7532 18.8533 19.6798 19.0156 19.5655 19.1335C19.4512 19.2515 19.3039 19.317 19.1511 19.3179V19.3179Z" stroke="#222222" stroke-linecap="round" stroke-linejoin="round"/>
<path opacity="0.4" d="M16.2117 8.54614C16.2117 9.4081 15.8605 10.2347 15.2354 10.8442C14.6103 11.4537 13.7624 11.7961 12.8784 11.7961C11.9943 11.7961 11.1465 11.4537 10.5214 10.8442C9.89623 10.2347 9.54504 9.4081 9.54504 8.54614" stroke="#222222" stroke-linecap="round" stroke-linejoin="round"/>
</svg>
