<svg width="25" height="25" viewBox="0 0 25 25" fill="none" xmlns="http://www.w3.org/2000/svg">
<path d="M19.1511 19.8179H6.60578C6.45297 19.8171 6.30564 19.7619 6.19134 19.6625C6.07704 19.5631 6.0036 19.4263 5.98473 19.2776L4.88236 9.5385C4.87256 9.45365 4.88108 9.36772 4.90738 9.2863C4.93368 9.20488 4.97716 9.1298 5.035 9.06593C5.09284 9.00207 5.16375 8.95084 5.24311 8.91559C5.32248 8.88034 5.40852 8.86185 5.49565 8.86133H20.2612C20.3483 8.86185 20.4344 8.88034 20.5137 8.91559C20.5931 8.95084 20.664 9.00207 20.7218 9.06593C20.7797 9.1298 20.8232 9.20488 20.8495 9.2863C20.8758 9.36772 20.8843 9.45365 20.8745 9.5385L19.7721 19.2776C19.7532 19.4263 19.6798 19.5631 19.5655 19.6625C19.4512 19.7619 19.3039 19.8171 19.1511 19.8179V19.8179Z" stroke="#222222" stroke-linecap="round" stroke-linejoin="round"/>
<path opacity="0.4" d="M9.77319 11.2961V8.86135C9.77319 8.05417 10.1004 7.28005 10.6827 6.70929C11.2651 6.13852 12.0549 5.81787 12.8785 5.81787C13.702 5.81787 14.4919 6.13852 15.0742 6.70929C15.6566 7.28005 15.9837 8.05417 15.9837 8.86135V11.2961" stroke="#222222" stroke-linecap="round" stroke-linejoin="round"/>
</svg>
