<svg width="25" height="25" viewBox="0 0 25 25" fill="none" xmlns="http://www.w3.org/2000/svg">
<path d="M19.255 13.4333H9.18731L7.95654 7.27942H20.2642C20.3543 7.27975 20.443 7.29981 20.5245 7.33821C20.6059 7.3766 20.6779 7.43239 20.7353 7.50163C20.7929 7.57087 20.8345 7.65189 20.8573 7.73895C20.8801 7.82603 20.8835 7.91703 20.8673 8.00557L19.858 12.9287C19.8345 13.071 19.7607 13.2002 19.65 13.2928C19.5394 13.3854 19.3992 13.4352 19.255 13.4333Z" stroke="#222222" stroke-linecap="round" stroke-linejoin="round"/>
<path d="M7.95656 7.27941L7.43964 5.31018C7.41127 5.17118 7.33574 5.04625 7.22584 4.95654C7.11595 4.86683 6.97843 4.81784 6.83656 4.81787H4.87964" stroke="#222222" stroke-linecap="round" stroke-linejoin="round"/>
<path opacity="0.4" d="M9.18726 13.4332L9.70418 16.0178C9.73255 16.1568 9.80808 16.2818 9.91798 16.3715C10.0279 16.4612 10.1654 16.5102 10.3073 16.5102H17.8026" stroke="#222222" stroke-linecap="round" stroke-linejoin="round"/>
<path opacity="0.4" d="M17.1874 20.8179C16.8476 20.8179 16.572 20.5423 16.572 20.2025C16.572 19.8627 16.8476 19.5871 17.1874 19.5871C17.5273 19.5871 17.8028 19.8627 17.8028 20.2025C17.8028 20.5423 17.5273 20.8179 17.1874 20.8179Z" stroke="#222222" stroke-linecap="round" stroke-linejoin="round"/>
<path opacity="0.4" d="M11.0336 20.8179C10.6937 20.8179 10.4182 20.5423 10.4182 20.2025C10.4182 19.8627 10.6937 19.5871 11.0336 19.5871C11.3735 19.5871 11.649 19.8627 11.649 20.2025C11.649 20.5423 11.3735 20.8179 11.0336 20.8179Z" stroke="#222222" stroke-linecap="round" stroke-linejoin="round"/>
</svg>
