<svg width="25" height="25" viewBox="0 0 25 25" fill="none" xmlns="http://www.w3.org/2000/svg">
<path d="M4.87842 4.81787H7.88591L8.95729 15.464C9.00182 15.7575 9.15098 16.025 9.37729 16.2173C9.60359 16.4095 9.89179 16.5135 10.1888 16.5102H17.9471C18.2157 16.5242 18.4814 16.45 18.7037 16.2988C18.9261 16.1477 19.0929 15.928 19.1786 15.6733L20.8165 10.7502C20.8775 10.5651 20.8938 10.3681 20.8637 10.1756C20.8338 9.983 20.7585 9.8003 20.644 9.64249C20.5248 9.47471 20.3654 9.33948 20.1804 9.24917C19.9954 9.15887 19.7906 9.11637 19.585 9.12556H8.31692" stroke="#222222" stroke-linecap="round" stroke-linejoin="round"/>
<path opacity="0.4" d="M17.7375 20.8179C17.3976 20.8179 17.1221 20.5423 17.1221 20.2025C17.1221 19.8627 17.3976 19.5871 17.7375 19.5871C18.0773 19.5871 18.3528 19.8627 18.3528 20.2025C18.3528 20.5423 18.0773 20.8179 17.7375 20.8179Z" stroke="#222222" stroke-linecap="round" stroke-linejoin="round"/>
<path opacity="0.4" d="M9.73282 20.8179C9.39294 20.8179 9.11743 20.5423 9.11743 20.2025C9.11743 19.8627 9.39294 19.5871 9.73282 19.5871C10.0727 19.5871 10.3482 19.8627 10.3482 20.2025C10.3482 20.5423 10.0727 20.8179 9.73282 20.8179Z" stroke="#222222" stroke-linecap="round" stroke-linejoin="round"/>
</svg>
