<svg width="25" height="25" viewBox="0 0 25 25" fill="none" xmlns="http://www.w3.org/2000/svg">
<path d="M19.2822 9.88863H6.49852C6.32798 9.88712 6.15911 9.92341 6.0033 9.99501C5.8475 10.0666 5.7084 10.1719 5.59537 10.3037C5.48234 10.4355 5.39803 10.5908 5.34811 10.7591C5.2982 10.9275 5.28385 11.1049 5.30602 11.2794L6.17655 18.0486C6.21439 18.3465 6.35654 18.62 6.57621 18.8172C6.79589 19.0145 7.07789 19.1219 7.36905 19.1193H18.3878C18.6789 19.1219 18.9609 19.0145 19.1806 18.8172C19.4002 18.62 19.5424 18.3465 19.5803 18.0486L20.4508 11.2794C20.4726 11.1069 20.4589 10.9316 20.4104 10.765C20.3619 10.5984 20.2797 10.4443 20.1693 10.3129C20.0589 10.1815 19.9227 10.0758 19.7698 10.0026C19.6169 9.92947 19.4507 9.89062 19.2822 9.88863Z" stroke="#222222" stroke-linecap="round" stroke-linejoin="round"/>
<path opacity="0.4" d="M15.4995 6.53531L18.8528 9.88865" stroke="#222222" stroke-linecap="round" stroke-linejoin="round"/>
<path opacity="0.4" d="M6.92798 9.88866L10.3002 6.51642" stroke="#222222" stroke-linecap="round" stroke-linejoin="round"/>
</svg>
