<svg width="25" height="25" viewBox="0 0 25 25" fill="none" xmlns="http://www.w3.org/2000/svg">
<path d="M13.1223 20.8179H5.85308C5.17335 20.8179 4.62231 20.2669 4.62231 19.5871V6.04864C4.62231 5.3689 5.17335 4.81787 5.85308 4.81787H19.3915C20.0713 4.81787 20.6223 5.3689 20.6223 6.04864V13.3179" stroke="#222222" stroke-linecap="round" stroke-linejoin="round"/>
<path d="M15.084 4.81787V10.2133C15.084 10.3564 15.0191 10.4936 14.9037 10.5948C14.7883 10.696 14.6318 10.7528 14.4686 10.7528L13.5455 9.75283L12.6224 10.7528L11.6994 9.75283L10.7763 10.7528C10.6131 10.7528 10.4565 10.696 10.3411 10.5948C10.2257 10.4936 10.1609 10.3564 10.1609 10.2133V4.81787" stroke="#222222" stroke-linecap="round" stroke-linejoin="round"/>
<path opacity="0.4" d="M18.9868 15.5548C18.8211 15.5548 18.6868 15.6891 18.6868 15.8548C18.6868 16.0205 18.8211 16.1548 18.9868 16.1548V15.5548ZM20.4164 15.8548V16.1548L20.4183 16.1548L20.4164 15.8548ZM20.6647 16.0226L20.3856 16.1327L20.3861 16.134L20.6647 16.0226ZM21.1345 17.1971H21.4345C21.4345 17.1589 21.4272 17.1211 21.413 17.0857L21.1345 17.1971ZM17.4359 19.3132C17.2703 19.3132 17.1359 19.4475 17.1359 19.6132C17.1359 19.7789 17.2703 19.9132 17.4359 19.9132V19.3132ZM15.767 19.9132C15.9327 19.9132 16.067 19.7789 16.067 19.6132C16.067 19.4475 15.9327 19.3132 15.767 19.3132V19.9132ZM15.084 19.3447H14.784H15.084ZM15.2791 15.3179V15.6179V15.3179ZM18.9868 15.3179H19.2868C19.2868 15.1522 19.1525 15.0179 18.9868 15.0179V15.3179ZM18.6868 18.9152C18.6868 19.0809 18.8211 19.2152 18.9868 19.2152C19.1525 19.2152 19.2868 19.0809 19.2868 18.9152H18.6868ZM18.9868 16.8971C18.8211 16.8971 18.6868 17.0314 18.6868 17.1971C18.6868 17.3628 18.8211 17.4971 18.9868 17.4971L18.9868 16.8971ZM20.1949 19.3132C20.0292 19.3132 19.8949 19.4475 19.8949 19.6132C19.8949 19.7789 20.0292 19.9132 20.1949 19.9132V19.3132ZM18.9868 16.1548H20.4164V15.5548H18.9868V16.1548ZM20.4183 16.1548C20.4113 16.1548 20.4044 16.1527 20.3986 16.1488L20.7345 15.6516C20.64 15.5878 20.5284 15.5541 20.4144 15.5548L20.4183 16.1548ZM20.3986 16.1488C20.3927 16.1449 20.3882 16.1392 20.3856 16.1327L20.9437 15.9125C20.9019 15.8064 20.8289 15.7155 20.7345 15.6516L20.3986 16.1488ZM20.3861 16.134L20.8559 17.3085L21.413 17.0857L20.9432 15.9112L20.3861 16.134ZM19.6935 19.6132C19.6935 19.8367 19.5124 20.0179 19.2888 20.0179V20.6179C19.8437 20.6179 20.2935 20.1681 20.2935 19.6132H19.6935ZM19.2888 20.0179C19.0653 20.0179 18.8841 19.8367 18.8841 19.6132H18.2841C18.2841 20.1681 18.734 20.6179 19.2888 20.6179V20.0179ZM18.8841 19.6132C18.8841 19.3897 19.0653 19.2085 19.2888 19.2085V18.6085C18.734 18.6085 18.2841 19.0583 18.2841 19.6132H18.8841ZM19.2888 19.2085C19.5124 19.2085 19.6935 19.3897 19.6935 19.6132H20.2935C20.2935 19.0583 19.8437 18.6085 19.2888 18.6085V19.2085ZM16.9643 19.6132C16.9643 19.8367 16.7831 20.0179 16.5596 20.0179V20.6179C17.1145 20.6179 17.5643 20.1681 17.5643 19.6132H16.9643ZM16.5596 20.0179C16.3361 20.0179 16.1549 19.8367 16.1549 19.6132H15.5549C15.5549 20.1681 16.0047 20.6179 16.5596 20.6179V20.0179ZM16.1549 19.6132C16.1549 19.3897 16.3361 19.2085 16.5596 19.2085V18.6085C16.0047 18.6085 15.5549 19.0583 15.5549 19.6132H16.1549ZM16.5596 19.2085C16.7831 19.2085 16.9643 19.3897 16.9643 19.6132H17.5643C17.5643 19.0583 17.1145 18.6085 16.5596 18.6085V19.2085ZM18.5841 19.3132H17.4359V19.9132H18.5841V19.3132ZM15.767 19.3132H15.2791V19.9132H15.767V19.3132ZM15.2791 19.3132C15.3434 19.3132 15.3769 19.3486 15.3838 19.3582L14.8985 19.7109C14.9786 19.8212 15.1113 19.9132 15.2791 19.9132V19.3132ZM15.3838 19.3582C15.3874 19.3632 15.3872 19.3646 15.3861 19.361C15.3851 19.3575 15.384 19.3518 15.384 19.3447H14.784C14.784 19.4698 14.8194 19.6022 14.8985 19.7109L15.3838 19.3582ZM15.384 19.3447V15.5863H14.784V19.3447H15.384ZM15.384 15.5863C15.384 15.5792 15.3851 15.5736 15.3861 15.5701C15.3872 15.5664 15.3874 15.5679 15.3838 15.5729L14.8985 15.2201C14.8194 15.3289 14.784 15.4612 14.784 15.5863H15.384ZM15.3838 15.5729C15.3769 15.5824 15.3434 15.6179 15.2791 15.6179V15.0179C15.1113 15.0179 14.9786 15.1099 14.8985 15.2201L15.3838 15.5729ZM15.2791 15.6179H18.9868V15.0179H15.2791V15.6179ZM18.6868 15.3179V18.9152H19.2868V15.3179H18.6868ZM18.9868 17.4971L21.1345 17.4971L21.1345 16.8971L18.9868 16.8971L18.9868 17.4971ZM20.8345 17.1971V19.3447H21.4345V17.1971H20.8345ZM20.8345 19.3447C20.8345 19.3364 20.8378 19.3283 20.8437 19.3224L21.268 19.7467C21.3746 19.6401 21.4345 19.4955 21.4345 19.3447H20.8345ZM20.8437 19.3224C20.8496 19.3165 20.8577 19.3132 20.866 19.3132V19.9132C21.0168 19.9132 21.1614 19.8533 21.268 19.7467L20.8437 19.3224ZM20.866 19.3132H20.1949V19.9132H20.866V19.3132Z" fill="#222222"/>
</svg>
