<svg width="25" height="25" viewBox="0 0 25 25" fill="none" xmlns="http://www.w3.org/2000/svg">
<path d="M13.3784 20.8179H6.10919C5.42945 20.8179 4.87842 20.2669 4.87842 19.5871V6.04864C4.87842 5.3689 5.42945 4.81787 6.10919 4.81787H19.6476C20.3274 4.81787 20.8784 5.3689 20.8784 6.04864V13.3179" stroke="#222222" stroke-linecap="round" stroke-linejoin="round"/>
<path opacity="0.4" d="M18.2668 20.8835L18.2668 16.4795M15.7498 18.3836L18.2666 15.5622L20.7498 18.3836" stroke="#222222" stroke-width="0.8" stroke-linecap="round" stroke-linejoin="round"/>
<path d="M15.3401 4.81787V10.2133C15.3401 10.3564 15.2752 10.4936 15.1598 10.5948C15.0444 10.696 14.8879 10.7528 14.7247 10.7528L13.8016 9.75283L12.8785 10.7528L11.9555 9.75283L11.0324 10.7528C10.8692 10.7528 10.7126 10.696 10.5972 10.5948C10.4818 10.4936 10.417 10.3564 10.417 10.2133V4.81787" stroke="#222222" stroke-linecap="round" stroke-linejoin="round"/>
</svg>
