<svg width="25" height="25" viewBox="0 0 25 25" fill="none" xmlns="http://www.w3.org/2000/svg">
<path d="M12.3784 20.8179H5.10919C4.42945 20.8179 3.87842 20.2669 3.87842 19.5871V6.04864C3.87842 5.3689 4.42945 4.81787 5.10919 4.81787H18.6476C19.3274 4.81787 19.8784 5.3689 19.8784 6.04864V13.3179" stroke="#222222" stroke-linecap="round" stroke-linejoin="round"/>
<path d="M14.3401 4.81787V10.2133C14.3401 10.3564 14.2752 10.4936 14.1598 10.5948C14.0444 10.696 13.8879 10.7528 13.7247 10.7528L12.8016 9.75283L11.8785 10.7528L10.9555 9.75283L10.0324 10.7528C9.86916 10.7528 9.71264 10.696 9.59724 10.5948C9.48183 10.4936 9.41699 10.3564 9.41699 10.2133V4.81787" stroke="#222222" stroke-linecap="round" stroke-linejoin="round"/>
<path opacity="0.4" d="M17.2784 15.4895V21.1464M20.1068 18.3179H14.45" stroke="#222222" stroke-width="0.8" stroke-linecap="round" stroke-linejoin="round"/>
</svg>
