<svg width="25" height="25" viewBox="0 0 25 25" fill="none" xmlns="http://www.w3.org/2000/svg">
<path d="M13.3784 20.8179H6.10919C5.42945 20.8179 4.87842 20.2669 4.87842 19.5871V6.04864C4.87842 5.3689 5.42945 4.81787 6.10919 4.81787H19.6476C20.3274 4.81787 20.8784 5.3689 20.8784 6.04864V13.3179" stroke="#222222" stroke-linecap="round" stroke-linejoin="round"/>
<path d="M15.3401 4.81787V10.2133C15.3401 10.3564 15.2752 10.4936 15.1598 10.5948C15.0444 10.696 14.8879 10.7528 14.7247 10.7528L13.8016 9.75283L12.8785 10.7528L11.9555 9.75283L11.0324 10.7528C10.8692 10.7528 10.7126 10.696 10.5972 10.5948C10.4818 10.4936 10.417 10.3564 10.417 10.2133V4.81787" stroke="#222222" stroke-linecap="round" stroke-linejoin="round"/>
<path opacity="0.4" d="M19.631 17.3384H20.8784M20.8784 17.3384V16.091M20.8784 17.3384L19.9948 16.4574C19.7827 16.2449 19.5307 16.0763 19.2534 15.9613C18.976 15.8463 18.6787 15.7871 18.3784 15.7871C18.0782 15.7871 17.7808 15.8463 17.5035 15.9613C17.2261 16.0763 16.9742 16.2449 16.762 16.4574M17.1258 18.8092H15.8784M15.8784 18.8092V20.0566M15.8784 18.8092L16.762 19.6902C16.9742 19.9027 17.2261 20.0713 17.5035 20.1863C17.7808 20.3013 18.0782 20.3605 18.3784 20.3605C18.6787 20.3605 18.976 20.3013 19.2534 20.1863C19.5307 20.0713 19.7827 19.9027 19.9948 19.6902" stroke="#222222" stroke-width="0.8" stroke-linecap="round" stroke-linejoin="round"/>
</svg>
