<svg width="25" height="25" viewBox="0 0 25 25" fill="none" xmlns="http://www.w3.org/2000/svg">
<path d="M13.3784 20.8179H6.10919C5.42945 20.8179 4.87842 20.2669 4.87842 19.5871V6.04864C4.87842 5.3689 5.42945 4.81787 6.10919 4.81787H19.6476C20.3274 4.81787 20.8784 5.3689 20.8784 6.04864V13.3179" stroke="#222222" stroke-linecap="round" stroke-linejoin="round"/>
<path d="M15.3401 4.81787V10.2133C15.3401 10.3564 15.2752 10.4936 15.1598 10.5948C15.0444 10.696 14.8879 10.7528 14.7247 10.7528L13.8016 9.75283L12.8785 10.7528L11.9555 9.75283L11.0324 10.7528C10.8692 10.7528 10.7126 10.696 10.5972 10.5948C10.4818 10.4936 10.417 10.3564 10.417 10.2133V4.81787" stroke="#222222" stroke-linecap="round" stroke-linejoin="round"/>
<path opacity="0.4" d="M19.8701 17.3549C20.0458 19.0526 17.3819 20.9717 17.3819 20.9717C17.3819 20.9717 14.6502 19.0832 14.8938 17.3549C14.8938 15.973 16.0267 14.8179 17.3819 14.8179C18.7372 14.8179 19.8701 15.973 19.8701 17.3549Z" stroke="#222222" stroke-width="0.8" stroke-linecap="round" stroke-linejoin="round"/>
<path opacity="0.4" d="M17.3786 18.2749C17.8994 18.2749 18.3216 17.8444 18.3216 17.3134C18.3216 16.7823 17.8994 16.3518 17.3786 16.3518C16.8578 16.3518 16.4355 16.7823 16.4355 17.3134C16.4355 17.8444 16.8578 18.2749 17.3786 18.2749Z" stroke="#222222" stroke-width="0.8" stroke-linecap="round" stroke-linejoin="round"/>
</svg>
