<svg width="25" height="25" viewBox="0 0 25 25" fill="none" xmlns="http://www.w3.org/2000/svg">
<path d="M13.3784 20.8179H6.10919C5.42945 20.8179 4.87842 20.2669 4.87842 19.5871V6.04864C4.87842 5.3689 5.42945 4.81787 6.10919 4.81787H19.6476C20.3274 4.81787 20.8784 5.3689 20.8784 6.04864V13.3179" stroke="#222222" stroke-linecap="round" stroke-linejoin="round"/>
<path opacity="0.4" d="M18.2497 15.5623L18.2497 19.9662M20.7667 18.0622L18.2499 20.8835L15.7667 18.0622" stroke="#222222" stroke-width="0.8" stroke-linecap="round" stroke-linejoin="round"/>
<path d="M15.3399 4.81787V10.2133C15.3399 10.3564 15.2751 10.4936 15.1597 10.5948C15.0443 10.696 14.8878 10.7528 14.7246 10.7528L13.8015 9.75283L12.8784 10.7528L11.9553 9.75283L11.0323 10.7528C10.869 10.7528 10.7125 10.696 10.5971 10.5948C10.4817 10.4936 10.4169 10.3564 10.4169 10.2133V4.81787" stroke="#222222" stroke-linecap="round" stroke-linejoin="round"/>
</svg>
