<svg width="25" height="25" viewBox="0 0 25 25" fill="none" xmlns="http://www.w3.org/2000/svg">
<path d="M11.3837 5.34901C12.2543 4.64078 13.5025 4.64078 14.3731 5.34901L14.789 5.68736L15.3184 5.60231C16.4265 5.42427 17.5074 6.04833 17.9073 7.09699L18.0984 7.59797L18.5993 7.78899C19.6479 8.18885 20.2721 9.26978 20.094 10.3779L20.0089 10.9072L20.3473 11.3232C21.0555 12.1938 21.0555 13.4419 20.3473 14.3125L20.0089 14.7285L20.094 15.2578C20.2721 16.3659 19.6479 17.4468 18.5993 17.8468L18.0984 18.0377L17.9073 18.5387C17.5074 19.5874 16.4265 20.2114 15.3184 20.0333L14.789 19.9483L14.3731 20.2867C13.5025 20.995 12.2543 20.995 11.3837 20.2867L10.9678 19.9483L10.4384 20.0333C9.33036 20.2114 8.24943 19.5874 7.84957 18.5387L7.65854 18.0377L7.15757 17.8468C6.10891 17.4468 5.48485 16.3659 5.66288 15.2578L5.74794 14.7285L5.40959 14.3125C4.70136 13.4419 4.70136 12.1938 5.40959 11.3232L5.74794 10.9072L5.66288 10.3779C5.48485 9.26978 6.10891 8.18885 7.15757 7.78899L7.65854 7.59797L7.84957 7.09699C8.24943 6.04833 9.33036 5.42427 10.4384 5.60231L10.9678 5.68736L11.3837 5.34901Z" stroke="#222222" stroke-linecap="round" stroke-linejoin="round"/>
<path opacity="0.4" d="M9.75391 15.9424L16.0031 9.69327" stroke="#222222" stroke-linecap="round" stroke-linejoin="round"/>
<path opacity="0.4" d="M10.3788 10.9431C10.7239 10.9431 11.0037 10.6633 11.0037 10.3182C11.0037 9.97305 10.7239 9.69327 10.3788 9.69327C10.0337 9.69327 9.75391 9.97305 9.75391 10.3182C9.75391 10.6633 10.0337 10.9431 10.3788 10.9431Z" fill="#222222" stroke="#222222" stroke-linecap="round" stroke-linejoin="round"/>
<path opacity="0.4" d="M15.3781 15.9424C15.7232 15.9424 16.003 15.6626 16.003 15.3175C16.003 14.9724 15.7232 14.6926 15.3781 14.6926C15.033 14.6926 14.7532 14.9724 14.7532 15.3175C14.7532 15.6626 15.033 15.9424 15.3781 15.9424Z" fill="#222222" stroke="#222222" stroke-linecap="round" stroke-linejoin="round"/>
</svg>
