<svg width="25" height="25" viewBox="0 0 25 25" fill="none" xmlns="http://www.w3.org/2000/svg">
<path d="M19.6476 7.89478H6.10919C5.42945 7.89478 4.87842 8.44582 4.87842 9.12554V11.5871C4.87842 12.2668 5.42945 12.8179 6.10919 12.8179H19.6476C20.3274 12.8179 20.8784 12.2668 20.8784 11.5871V9.12554C20.8784 8.44582 20.3274 7.89478 19.6476 7.89478Z" stroke="#222222" stroke-linecap="round" stroke-linejoin="round"/>
<path d="M19.6476 12.8179V19.5871C19.6476 19.9135 19.5179 20.2266 19.2871 20.4574C19.0563 20.6881 18.7432 20.8179 18.4168 20.8179H7.3399C7.01348 20.8179 6.70043 20.6881 6.46961 20.4574C6.2388 20.2266 6.10913 19.9135 6.10913 19.5871V12.8179" stroke="#222222" stroke-linecap="round" stroke-linejoin="round"/>
<path opacity="0.4" d="M12.8784 7.89478V12.7465" stroke="#222222" stroke-linecap="round" stroke-linejoin="round"/>
<path opacity="0.4" d="M16.5707 4.81787L12.8783 7.89479L9.18604 4.81787" stroke="#222222" stroke-linecap="round" stroke-linejoin="round"/>
</svg>
