<svg width="25" height="25" viewBox="0 0 25 25" fill="none" xmlns="http://www.w3.org/2000/svg">
<path d="M4.87842 17.741C4.87842 18.4207 5.42853 18.9717 6.10713 18.9717H19.6497C20.3283 18.9717 20.8784 18.4207 20.8784 17.741V15.2375C19.8147 14.9487 19.0321 13.9748 19.0321 12.8179C19.0321 11.6609 19.8147 10.687 20.8784 10.3982V7.8948C20.8784 7.21507 20.3283 6.66403 19.6497 6.66403H6.10713C5.42853 6.66403 4.87842 7.21506 4.87842 7.8948V10.3928C5.95251 10.6747 6.74495 11.6536 6.74495 12.8179C6.74495 13.9822 5.95251 14.9611 4.87842 15.2429V17.741Z" stroke="#222222" stroke-linecap="round" stroke-linejoin="round"/>
<path opacity="0.4" d="M9.82666 15.8948L15.9805 9.74097" stroke="#222222" stroke-linecap="round" stroke-linejoin="round"/>
<path opacity="0.4" d="M10.442 10.9717C10.7819 10.9717 11.0574 10.6962 11.0574 10.3564C11.0574 10.0165 10.7819 9.74097 10.442 9.74097C10.1022 9.74097 9.82666 10.0165 9.82666 10.3564C9.82666 10.6962 10.1022 10.9717 10.442 10.9717Z" fill="#222222" stroke="#222222" stroke-linecap="round" stroke-linejoin="round"/>
<path opacity="0.4" d="M15.3651 15.8948C15.705 15.8948 15.9805 15.6193 15.9805 15.2794C15.9805 14.9396 15.705 14.664 15.3651 14.664C15.0253 14.664 14.7498 14.9396 14.7498 15.2794C14.7498 15.6193 15.0253 15.8948 15.3651 15.8948Z" fill="#222222" stroke="#222222" stroke-linecap="round" stroke-linejoin="round"/>
</svg>
