<svg width="25" height="25" viewBox="0 0 25 25" fill="none" xmlns="http://www.w3.org/2000/svg">
<path d="M17.3784 6.31787H7.87842C7.34799 6.31787 6.83928 6.52859 6.46421 6.90366C6.08913 7.27873 5.87842 7.78744 5.87842 8.31787V17.9049C5.87842 18.5268 6.55679 18.9108 7.09001 18.5909L7.96682 18.0648C8.22017 17.9128 8.53667 17.9128 8.79001 18.0648L10.4668 19.0709C10.7202 19.2229 11.0367 19.2229 11.29 19.0709L12.9668 18.0648C13.2202 17.9128 13.5367 17.9128 13.79 18.0648L14.6668 18.5909C15.2 18.9108 15.8784 18.5268 15.8784 17.9049V7.81787C15.8784 7.42005 16.0364 7.03851 16.3177 6.75721C16.599 6.47591 16.9806 6.31787 17.3784 6.31787ZM17.3784 6.31787C17.7762 6.31787 18.1578 6.47591 18.4391 6.75721C18.7204 7.03851 18.8784 7.42005 18.8784 7.81787V10.5179C18.8784 10.9597 18.5202 11.3179 18.0784 11.3179H15.8784" stroke="#222222" stroke-linecap="round" stroke-linejoin="round"/>
<path opacity="0.4" d="M12.0302 11.4847C11.9863 11.3605 11.9186 11.2475 11.8325 11.1513C11.6494 10.9467 11.3833 10.818 11.0871 10.818H10.7001M9.47731 14.1514C9.6146 14.5398 9.98502 14.8181 10.4204 14.8181H10.7538M10.7001 10.818H10.3131C9.82007 10.818 9.42041 11.2176 9.42041 11.7106C9.42041 12.1301 9.7125 12.493 10.1223 12.5827L11.3008 12.8405C11.7599 12.9409 12.0871 13.3477 12.0871 13.8177C12.0871 14.37 11.6394 14.8181 11.0871 14.8181H10.7538M10.7001 10.818V9.81226M10.7538 14.8181V15.8373" stroke="#222222" stroke-width="0.6" stroke-linecap="round" stroke-linejoin="round"/>
</svg>
