<svg width="25" height="25" viewBox="0 0 25 25" fill="none" xmlns="http://www.w3.org/2000/svg">
<path d="M8.53857 12.4979H14.2986C15.1473 12.4979 15.9612 12.8351 16.5613 13.4352C17.1614 14.0353 17.4986 14.8492 17.4986 15.6979C17.4986 16.5466 17.1614 17.3605 16.5613 17.9607C15.9612 18.5608 15.1473 18.8979 14.2986 18.8979H8.53857V6.73792H13.3386C14.1024 6.73792 14.8349 7.04134 15.375 7.58145C15.9151 8.12155 16.2186 8.85409 16.2186 9.61791C16.2186 10.3817 15.9151 11.1143 15.375 11.6544C14.8349 12.1945 14.1024 12.4979 13.3386 12.4979" stroke="#222222" stroke-linecap="round" stroke-linejoin="round"/>
<path d="M7.25854 6.73792H8.53854" stroke="#222222" stroke-linecap="round" stroke-linejoin="round"/>
<path d="M7.25854 18.8978H8.53854" stroke="#222222" stroke-linecap="round" stroke-linejoin="round"/>
<path opacity="0.4" d="M10.4585 6.73787V4.81787" stroke="#222222" stroke-linecap="round" stroke-linejoin="round"/>
<path opacity="0.4" d="M13.0186 6.73787V4.81787" stroke="#222222" stroke-linecap="round" stroke-linejoin="round"/>
<path opacity="0.4" d="M10.4585 20.8178V18.8978" stroke="#222222" stroke-linecap="round" stroke-linejoin="round"/>
<path opacity="0.4" d="M13.0186 20.8178V18.8978" stroke="#222222" stroke-linecap="round" stroke-linejoin="round"/>
</svg>
