<svg width="25" height="25" viewBox="0 0 25 25" fill="none" xmlns="http://www.w3.org/2000/svg">
<path d="M12.3784 20.8179C16.7967 20.8179 20.3784 17.2361 20.3784 12.8179C20.3784 8.39959 16.7967 4.81787 12.3784 4.81787C7.96014 4.81787 4.37842 8.39959 4.37842 12.8179C4.37842 17.2361 7.96014 20.8179 12.3784 20.8179Z" stroke="#222222" stroke-miterlimit="10"/>
<path opacity="0.4" d="M8.33081 13.1988H12.1403M14.426 16.8179H8.33081C8.78547 16.8179 9.2215 16.6373 9.54299 16.3158C9.86448 15.9943 10.0451 15.5582 10.0451 15.1036V10.9131C10.0451 10.3574 10.2658 9.8245 10.6588 9.43157C11.0517 9.03864 11.5846 8.81789 12.1403 8.81789C12.4156 8.81674 12.6884 8.87047 12.9426 8.97594C13.1969 9.08141 13.4276 9.23651 13.6213 9.43217" stroke="#222222" stroke-width="0.8" stroke-linecap="round" stroke-linejoin="round"/>
</svg>
