<svg width="25" height="25" viewBox="0 0 25 25" fill="none" xmlns="http://www.w3.org/2000/svg">
    <path
        d="M12.3784 20.8179C16.7967 20.8179 20.3784 17.2361 20.3784 12.8179C20.3784 8.39959 16.7967 4.81787 12.3784 4.81787C7.96014 4.81787 4.37842 8.39959 4.37842 12.8179C4.37842 17.2361 7.96014 20.8179 12.3784 20.8179Z"
        stroke="#222222" stroke-miterlimit="10" />
    <path opacity="0.4"
        d="M15.4409 16.62C14.8839 17.192 14.1745 17.5815 13.4022 17.7393C12.6298 17.8971 11.8293 17.8161 11.1018 17.5065C10.3743 17.1969 9.75246 16.6726 9.31486 15.9999C8.87726 15.3272 8.64357 14.5363 8.64331 13.7272V11.9085C8.64357 11.0994 8.87726 10.3085 9.31486 9.63584C9.75246 8.96316 10.3743 8.43889 11.1018 8.12928C11.8293 7.81968 12.6298 7.73865 13.4022 7.89643C14.1745 8.05421 14.8839 8.44372 15.4409 9.01573"
        stroke="#222222" stroke-width="0.8" stroke-linecap="round" stroke-linejoin="round" />
    <path opacity="0.4" opacity="0.4" d="M7.31592 11.9086H12.6257" stroke="#222222" stroke-width="0.8"
        stroke-linecap="round" stroke-linejoin="round" />
    <path opacity="0.4" d="M7.31592 13.7272H11.7407" stroke="#222222" stroke-width="0.8" stroke-linecap="round"
        stroke-linejoin="round" />
</svg>