<svg width="25" height="25" viewBox="0 0 25 25" fill="none" xmlns="http://www.w3.org/2000/svg">
<path d="M12.3784 20.8177C16.7967 20.8177 20.3784 17.236 20.3784 12.8177C20.3784 8.39947 16.7967 4.81775 12.3784 4.81775C7.96014 4.81775 4.37842 8.39947 4.37842 12.8177C4.37842 17.236 7.96014 20.8177 12.3784 20.8177Z" stroke="#222222" stroke-miterlimit="10"/>
<path opacity="0.4" d="M10.4584 12.6578H13.3384C13.7628 12.6578 14.1697 12.8263 14.4698 13.1264C14.7699 13.4265 14.9384 13.8334 14.9384 14.2578C14.9384 14.6821 14.7699 15.0891 14.4698 15.3891C14.1697 15.6892 13.7628 15.8578 13.3384 15.8578H12.6938M10.4584 15.8578V9.77777M10.4584 15.8578H9.82104M10.4584 15.8578H11.4197M10.4584 9.77777H9.82104M10.4584 9.77777H12.7223M12.8584 12.6578C13.2403 12.6578 13.6066 12.5061 13.8767 12.236C14.1467 11.966 14.2984 11.5997 14.2984 11.2178C14.2984 10.8359 14.1467 10.4696 13.8767 10.1995C13.6066 9.92948 13.2403 9.77777 12.8584 9.77777H12.7223M11.4237 9.741V8.7561M12.7223 9.77777V8.7561M11.4197 15.8578V16.8986M11.4197 15.8578H12.6938M12.6938 15.8578V16.8986" stroke="#222222" stroke-width="0.8" stroke-linecap="round" stroke-linejoin="round"/>
</svg>
