<svg width="25" height="25" viewBox="0 0 25 25" fill="none" xmlns="http://www.w3.org/2000/svg">
<path d="M12.3784 20.8179C16.7967 20.8179 20.3784 17.2361 20.3784 12.8179C20.3784 8.39959 16.7967 4.81787 12.3784 4.81787C7.96014 4.81787 4.37842 8.39959 4.37842 12.8179C4.37842 17.2361 7.96014 20.8179 12.3784 20.8179Z" stroke="#222222" stroke-miterlimit="10"/>
<path opacity="0.4" d="M14.0803 11.0404C14.0217 10.8748 13.9314 10.7242 13.8166 10.5959C13.5725 10.3232 13.2177 10.1515 12.8228 10.1515H12.3068M10.6765 14.5959C10.8595 15.1138 11.3534 15.4848 11.9339 15.4848H12.3784M12.3068 10.1515H11.7908C11.1334 10.1515 10.6006 10.6844 10.6006 11.3417C10.6006 11.901 10.99 12.3848 11.5364 12.5044L13.1077 12.8481C13.7198 12.982 14.1561 13.5244 14.1561 14.151C14.1561 14.8874 13.5592 15.4848 12.8228 15.4848H12.3784M12.3068 10.1515V8.76819M12.3784 15.4848V16.8261" stroke="#222222" stroke-width="0.8" stroke-linecap="round" stroke-linejoin="round"/>
</svg>
