<svg width="25" height="25" viewBox="0 0 25 25" fill="none" xmlns="http://www.w3.org/2000/svg">
<path d="M15.8846 9.32475C15.8286 9.16627 15.7421 9.02215 15.6323 8.89943C15.3987 8.63839 15.0591 8.47412 14.6812 8.47412H13.6936C13.0646 8.47412 12.5547 8.98405 12.5547 9.61306C12.5547 10.1483 12.9274 10.6113 13.4502 10.7257L14.9539 11.0546C15.5397 11.1828 15.9572 11.7019 15.9572 12.3015C15.9572 13.0061 15.3859 13.5779 14.6812 13.5779H13.8306C13.2751 13.5779 12.8025 13.2228 12.6273 12.7272" stroke="#222222" stroke-linecap="round" stroke-linejoin="round"/>
<path d="M14.2559 8.47419V7.19824" stroke="#222222" stroke-linecap="round" stroke-linejoin="round"/>
<path d="M14.2559 14.8538V13.5779" stroke="#222222" stroke-linecap="round" stroke-linejoin="round"/>
<path d="M14.256 17.1483C17.6374 17.1483 20.3785 14.4072 20.3785 11.0258C20.3785 7.64445 17.6374 4.90332 14.256 4.90332C10.8747 4.90332 8.13354 7.64445 8.13354 11.0258C8.13354 14.4072 10.8747 17.1483 14.256 17.1483Z" stroke="#222222" stroke-linecap="round" stroke-linejoin="round"/>
<path opacity="0.4" d="M5.11533 11.6965C4.64534 12.5631 4.37842 13.5559 4.37842 14.611C4.37842 17.9922 7.11934 20.7331 10.5004 20.7331C11.4586 20.7331 12.3654 20.5129 13.173 20.1204" stroke="#222222" stroke-linecap="round" stroke-linejoin="round"/>
</svg>
