<svg width="25" height="25" viewBox="0 0 25 25" fill="none" xmlns="http://www.w3.org/2000/svg">
<path d="M16.8564 6.08752H7.90041C7.69393 6.0932 7.49169 6.1474 7.31003 6.24575C7.12837 6.3441 6.97241 6.48384 6.85472 6.65368L4.61573 9.75521C4.44947 9.99025 4.36644 10.2741 4.37981 10.5617C4.39319 10.8494 4.50219 11.1243 4.68954 11.3429L11.4065 19.0844C11.5215 19.2327 11.6689 19.3527 11.8373 19.4351C12.0058 19.5177 12.1908 19.5606 12.3784 19.5606C12.566 19.5606 12.751 19.5177 12.9195 19.4351C13.0879 19.3527 13.2353 19.2327 13.3503 19.0844L20.0673 11.3429C20.2546 11.1243 20.3636 10.8494 20.377 10.5617C20.3903 10.2741 20.3074 9.99025 20.1411 9.75521L17.9021 6.65368C17.7844 6.48384 17.6285 6.3441 17.4468 6.24575C17.2652 6.1474 17.0628 6.0932 16.8564 6.08752Z" stroke="#222222" stroke-linecap="round" stroke-linejoin="round"/>
<path opacity="0.4" d="M11.7384 6.0752L8.73535 10.7275L12.3784 19.5274" stroke="#222222" stroke-linecap="round" stroke-linejoin="round"/>
<path opacity="0.4" d="M13.0553 6.0752L16.0461 10.7275L12.3784 19.5274" stroke="#222222" stroke-linecap="round" stroke-linejoin="round"/>
<path opacity="0.4" d="M4.40308 10.7275H20.3538" stroke="#222222" stroke-linecap="round" stroke-linejoin="round"/>
</svg>
