<svg width="25" height="25" viewBox="0 0 25 25" fill="none" xmlns="http://www.w3.org/2000/svg">
    <path
        d="M19.1476 7.27942H5.60919C4.92945 7.27942 4.37842 7.83046 4.37842 8.51019V17.1256C4.37842 17.8053 4.92945 18.3563 5.60919 18.3563H19.1476C19.8274 18.3563 20.3784 17.8053 20.3784 17.1256V8.51019C20.3784 7.83046 19.8274 7.27942 19.1476 7.27942Z"
        stroke="#222222" stroke-linecap="round" stroke-linejoin="round" />
    <path opacity="0.4"
        d="M12.3785 15.2794C13.738 15.2794 14.8401 14.1773 14.8401 12.8179C14.8401 11.4584 13.738 10.3563 12.3785 10.3563C11.0191 10.3563 9.91699 11.4584 9.91699 12.8179C9.91699 14.1773 11.0191 15.2794 12.3785 15.2794Z"
        stroke="#222222" stroke-linecap="round" stroke-linejoin="round" />
    <path opacity="0.4"
        d="M7.1783 13.1255C7.00837 13.1255 6.87061 12.9878 6.87061 12.8178C6.87061 12.6479 7.00837 12.5101 7.1783 12.5101"
        stroke="#222222" stroke-linecap="round" stroke-linejoin="round" />
    <path opacity="0.4"
        d="M7.17822 13.1255C7.34815 13.1255 7.48591 12.9878 7.48591 12.8178C7.48591 12.6479 7.34815 12.5101 7.17822 12.5101"
        stroke="#222222" stroke-linecap="round" stroke-linejoin="round" />
    <path opacity="0.4"
        d="M17.5784 13.1255C17.4085 13.1255 17.2708 12.9878 17.2708 12.8178C17.2708 12.6479 17.4085 12.5101 17.5784 12.5101"
        stroke="#222222" stroke-linecap="round" stroke-linejoin="round" />
    <path opacity="0.4"
        d="M17.5784 13.1255C17.7483 13.1255 17.8861 12.9878 17.8861 12.8178C17.8861 12.6479 17.7483 12.5101 17.5784 12.5101"
        stroke="#222222" stroke-linecap="round" stroke-linejoin="round" />
</svg>