<svg width="25" height="25" viewBox="0 0 25 25" fill="none" xmlns="http://www.w3.org/2000/svg">
<path d="M18.793 17.5711L18.793 18.6643C18.793 18.9907 18.6633 19.3038 18.4325 19.5346C18.2017 19.7653 17.8886 19.8951 17.5622 19.8951H5.86993C5.5435 19.8951 5.23046 19.7653 4.99964 19.5346C4.76883 19.3038 4.63916 18.9907 4.63916 18.6643V9.43352C4.63916 7.39432 6.29227 5.74121 8.33147 5.74121H16.3315V8.81813" stroke="#222222" stroke-linecap="round" stroke-linejoin="round"/>
<path opacity="0.4" d="M20.0237 12.5105H15.716C15.3761 12.5105 15.1006 12.786 15.1006 13.1259V15.5874C15.1006 15.9272 15.3761 16.2028 15.716 16.2028H20.0237C20.3635 16.2028 20.639 15.9272 20.639 15.5874V13.1259C20.639 12.786 20.3635 12.5105 20.0237 12.5105Z" stroke="#222222" stroke-linecap="round" stroke-linejoin="round"/>
<path d="M18.793 10.9845V10.0489C18.793 9.72246 18.6633 9.40941 18.4325 9.1786C18.2017 8.94779 17.8886 8.81812 17.5622 8.81812H16.3315H4.99585" stroke="#222222" stroke-linecap="round" stroke-linejoin="round"/>
</svg>
