<svg width="24" height="25" viewBox="0 0 24 25" fill="none" xmlns="http://www.w3.org/2000/svg">
<path d="M13.9553 14.6172C14.1886 14.8554 14.502 14.9888 14.8283 14.9888C15.1546 14.9888 15.468 14.8554 15.7013 14.6172C15.9327 14.3798 16.2441 14.2467 16.5685 14.2467C16.8929 14.2467 17.2043 14.3798 17.4357 14.6172L19.6442 16.8995C19.8723 17.1431 20 17.4703 20 17.8111C20 18.1519 19.8723 18.4791 19.6442 18.7227L19.1238 19.2541C18.5287 19.884 17.744 20.2806 16.9017 20.3774C16.0594 20.4742 15.2108 20.2651 14.4988 19.7854C13.4131 19.0203 12.3734 18.1908 11.3846 17.3019" stroke="#222222" stroke-linecap="round" stroke-linejoin="round"/>
<path d="M20 4.40039L4 20.4004" stroke="#222222" stroke-linecap="round" stroke-linejoin="round"/>
<path opacity="0.4" d="M8.71562 15.4773C7.19059 13.8807 5.81045 12.1313 4.59621 10.2511C4.13117 9.49378 3.92847 8.59137 4.02232 7.69556C4.11604 6.79975 4.50058 5.96519 5.11116 5.3322L5.62622 4.77883C5.86238 4.53623 6.17951 4.40039 6.50987 4.40039C6.84023 4.40039 7.15736 4.53623 7.39352 4.77883L9.61744 7.11529C9.84762 7.36137 9.97659 7.69257 9.97659 8.03759C9.97659 8.38259 9.84762 8.7138 9.61744 8.95987C9.5003 9.08115 9.40728 9.22569 9.34379 9.38508C9.2803 9.54447 9.24761 9.71553 9.24761 9.88831C9.24761 10.0611 9.2803 10.2321 9.34379 10.3915C9.40728 10.5509 9.5003 10.6955 9.61744 10.8167L11.3845 12.6733" stroke="#222222" stroke-linecap="round" stroke-linejoin="round"/>
</svg>
