<svg width="24" height="25" viewBox="0 0 24 25" fill="none" xmlns="http://www.w3.org/2000/svg">
<path d="M20 12.3265C20.0012 12.1557 19.9667 11.9865 19.8989 11.8297C19.8311 11.6729 19.7314 11.5319 19.6061 11.4158L12.678 5.02572C12.295 4.67249 11.705 4.67249 11.322 5.02572L4.39387 11.4158C4.26861 11.5319 4.16891 11.6729 4.1011 11.8297C4.03329 11.9865 3.99887 12.1557 4.00003 12.3265V19.1696C4.00003 19.496 4.1297 19.8091 4.36051 20.0399C4.59132 20.2707 4.90438 20.4004 5.23079 20.4004H18.7692C19.0956 20.4004 19.4087 20.2707 19.6395 20.0399C19.8704 19.8091 20 19.496 20 19.1696V12.3265Z" stroke="#222222" stroke-linecap="round" stroke-linejoin="round"/>
</svg>
