<svg width="24" height="25" viewBox="0 0 24 25" fill="none" xmlns="http://www.w3.org/2000/svg">
<path opacity="0.4" d="M9.09204 15.3083L14.9079 9.48389" stroke="#222222" stroke-linecap="round" stroke-linejoin="round"/>
<path d="M13.4583 16.7666L11.0307 19.1941C10.6483 19.5766 10.1943 19.88 9.69459 20.0869C9.19491 20.2939 8.65935 20.4004 8.1185 20.4004C7.02621 20.4004 5.97865 19.9665 5.20628 19.1941C4.43391 18.4218 4 17.3742 4 16.2819C4 15.1896 4.43391 14.1421 5.20628 13.3697L7.63385 10.9421" stroke="#222222" stroke-linecap="round" stroke-linejoin="round"/>
<path d="M16.3662 13.8587L18.7938 11.4311C19.5661 10.6587 20 9.61119 20 8.51889C20 7.4266 19.5661 6.37904 18.7938 5.60667C18.0214 4.8343 16.9738 4.40039 15.8815 4.40039C14.7892 4.40039 13.7417 4.8343 12.9693 5.60667L10.5417 8.03424" stroke="#222222" stroke-linecap="round" stroke-linejoin="round"/>
</svg>
