<svg width="24" height="25" viewBox="0 0 24 25" fill="none" xmlns="http://www.w3.org/2000/svg">
<path d="M14.1565 19.7738C14.9129 20.2624 15.8142 20.4754 16.7089 20.3769C17.6036 20.2783 18.4371 19.8742 19.0693 19.2325L19.622 18.6912C19.8643 18.443 20 18.1097 20 17.7625C20 17.4154 19.8643 17.082 19.622 16.8339L17.2762 14.5089C17.0304 14.2671 16.6996 14.1315 16.355 14.1315C16.0104 14.1315 15.6796 14.2671 15.4339 14.5089C15.186 14.7516 14.8532 14.8875 14.5066 14.8875C14.16 14.8875 13.8271 14.7516 13.5793 14.5089L9.89468 10.8187C9.77176 10.6974 9.67415 10.5528 9.60753 10.3934C9.5409 10.2339 9.50659 10.0628 9.50659 9.88997C9.50659 9.71713 9.5409 9.54602 9.60753 9.38658C9.67415 9.22714 9.77176 9.08257 9.89468 8.96125C10.1362 8.71511 10.2715 8.38379 10.2715 8.03869C10.2715 7.69357 10.1362 7.36226 9.89468 7.11611L7.56111 4.77895C7.31324 4.53627 6.98044 4.40039 6.63385 4.40039C6.28715 4.40039 5.95435 4.53627 5.70647 4.77895L5.16604 5.33249C4.52542 5.96566 4.12198 6.80048 4.02352 7.69655C3.92506 8.59263 4.13773 9.49532 4.62573 10.2528C7.16813 14.0055 10.4031 17.2371 14.1565 19.7738Z" stroke="#222222" stroke-linecap="round" stroke-linejoin="round"/>
</svg>
