<svg width="24" height="25" viewBox="0 0 24 25" fill="none" xmlns="http://www.w3.org/2000/svg">
<path d="M12.5921 19.8713C13.231 20.2821 13.9916 20.4622 14.7473 20.3815C15.503 20.3009 16.2083 19.9646 16.7459 19.4282L17.2143 18.9605C17.422 18.7507 17.5386 18.4678 17.5386 18.1728C17.5386 17.8779 17.422 17.5948 17.2143 17.3851L15.2421 15.4281C15.0342 15.2214 14.7528 15.1054 14.4594 15.1054C14.1661 15.1054 13.8846 15.2214 13.6767 15.4281C13.4667 15.6356 13.1833 15.7519 12.8879 15.7519C12.5925 15.7519 12.309 15.6356 12.099 15.4281L8.95589 12.2896C8.74813 12.0799 8.6316 11.7969 8.6316 11.5019C8.6316 11.2069 8.74813 10.9239 8.95589 10.7142C9.16288 10.5066 9.27909 10.2256 9.27909 9.93264C9.27909 9.6397 9.16288 9.35869 8.95589 9.15109L7.05774 7.18183C6.8477 6.97438 6.5642 6.85803 6.26887 6.85803C5.97342 6.85803 5.68992 6.97438 5.48001 7.18183L5.01162 7.64953C4.46484 8.17882 4.11638 8.87933 4.02443 9.63418C3.93236 10.389 4.10246 11.1525 4.50626 11.7973C6.65554 14.9835 9.40113 17.7251 12.5921 19.8713Z" stroke="#222222" stroke-linecap="round" stroke-linejoin="round"/>
<path opacity="0.4" d="M11.9881 4.40039C13.0402 4.40039 14.0821 4.60732 15.0541 5.00936C16.0262 5.41141 16.9094 6.0007 17.6534 6.74358C18.3974 7.48646 18.9875 8.36838 19.3901 9.33901C19.7928 10.3096 20 11.3499 20 12.4005" stroke="#222222" stroke-linecap="round" stroke-linejoin="round"/>
<path opacity="0.4" d="M11.9881 7.47742C13.2957 7.47742 14.5497 7.99611 15.4744 8.91937C16.399 9.84265 16.9185 11.0949 16.9185 12.4006" stroke="#222222" stroke-linecap="round" stroke-linejoin="round"/>
</svg>
