<svg width="24" height="25" viewBox="0 0 24 25" fill="none" xmlns="http://www.w3.org/2000/svg">
<path d="M16.923 10.8004C16.923 9.44251 16.4044 8.14022 15.4811 7.18003C14.5578 6.21985 13.3056 5.68042 11.9999 5.68042C10.6943 5.68042 9.44206 6.21985 8.5188 7.18003C7.59555 8.14022 7.07687 9.44251 7.07687 10.8004V15.2804C7.07687 15.7896 6.88236 16.2781 6.53614 16.6381C6.18993 16.9982 5.72034 17.2004 5.23071 17.2004H18.7692C18.2796 17.2004 17.8099 16.9982 17.4637 16.6381C17.1175 16.2781 16.923 15.7896 16.923 15.2804V10.8004Z" stroke="#222222" stroke-linecap="round" stroke-linejoin="round"/>
<path opacity="0.4" d="M4 10.634C4.00066 9.41561 4.28004 8.21488 4.81506 7.13098C5.35008 6.04707 6.12538 5.11111 7.07692 4.40039" stroke="#222222" stroke-linecap="round" stroke-linejoin="round"/>
<path opacity="0.4" d="M20 10.634C19.9994 9.41561 19.72 8.21488 19.185 7.13098C18.65 6.04707 17.8746 5.11111 16.9231 4.40039" stroke="#222222" stroke-linecap="round" stroke-linejoin="round"/>
<path opacity="0.4" d="M10.7693 20.4004H13.2308" stroke="#222222" stroke-linecap="round" stroke-linejoin="round"/>
</svg>
