<svg width="24" height="25" viewBox="0 0 24 25" fill="none" xmlns="http://www.w3.org/2000/svg">
<path d="M10.3934 5.18808L9.8779 6.55424L8.10352 7.58808L6.68881 7.36654C6.45325 7.33372 6.21349 7.37352 6.00002 7.48091C5.78655 7.58829 5.60899 7.7584 5.48991 7.96962L5.01034 8.83116C4.88746 9.04574 4.83084 9.29354 4.84796 9.54183C4.86508 9.79013 4.95515 10.0273 5.10626 10.2219L6.00543 11.3665V13.4342L5.13023 14.5789C4.97912 14.7735 4.88906 15.0107 4.87194 15.259C4.85482 15.5072 4.91143 15.755 5.03432 15.9696L5.51388 16.8312C5.63297 17.0424 5.81053 17.2125 6.02399 17.3199C6.23747 17.4272 6.47723 17.4671 6.71279 17.4342L8.1275 17.2127L9.8779 18.2465L10.3934 19.6127C10.4804 19.844 10.6333 20.043 10.8323 20.1835C11.0312 20.3241 11.2669 20.3997 11.5084 20.4004H12.5155C12.757 20.3997 12.9927 20.3241 13.1916 20.1835C13.3906 20.043 13.5435 19.844 13.6305 19.6127L14.146 18.2465L15.8963 17.2127L17.3111 17.4342C17.5466 17.4671 17.7864 17.4272 17.9999 17.3199C18.2134 17.2125 18.3909 17.0424 18.51 16.8312L18.9895 15.9696C19.1124 15.755 19.1691 15.5072 19.152 15.259C19.1348 15.0107 19.0448 14.7735 18.8936 14.5789L17.9944 13.4342V11.3665L18.8696 10.2219C19.0208 10.0273 19.1109 9.79013 19.128 9.54183C19.1451 9.29354 19.0884 9.04574 18.9655 8.83116L18.486 7.96962C18.3669 7.7584 18.1894 7.58829 17.976 7.48091C17.7624 7.37352 17.5227 7.33372 17.2871 7.36654L15.8724 7.58808L14.122 6.55424L13.6065 5.18808C13.5195 4.95678 13.3666 4.75782 13.1676 4.61727C12.9687 4.47672 12.733 4.40112 12.4915 4.40039H11.5084C11.2669 4.40112 11.0312 4.47672 10.8323 4.61727C10.6333 4.75782 10.4804 4.95678 10.3934 5.18808Z" stroke="#222222" stroke-linecap="round" stroke-linejoin="round"/>
<path opacity="0.4" d="M9.60217 12.4004C9.60217 12.8872 9.7428 13.3631 10.0063 13.7679C10.2698 14.1727 10.6442 14.4882 11.0824 14.6745C11.5205 14.8608 12.0026 14.9096 12.4678 14.8146C12.9329 14.7196 13.3602 14.4852 13.6955 14.1409C14.0308 13.7967 14.2592 13.3581 14.3517 12.8806C14.4442 12.4031 14.3968 11.9082 14.2153 11.4584C14.0338 11.0086 13.7265 10.6242 13.3321 10.3537C12.9378 10.0832 12.4742 9.93884 12 9.93884C11.364 9.93884 10.7542 10.1982 10.3045 10.6598C9.85481 11.1214 9.60217 11.7475 9.60217 12.4004Z" stroke="#222222" stroke-linecap="round" stroke-linejoin="round"/>
</svg>
