<svg width="24" height="25" viewBox="0 0 24 25" fill="none" xmlns="http://www.w3.org/2000/svg">
<path d="M8.47705 19.5568L15.8357 19.5568C15.9465 19.5562 16.0552 19.5264 16.1508 19.4704C16.2464 19.4144 16.3255 19.3342 16.3802 19.2379L20.0751 12.7038C20.1283 12.6116 20.1564 12.5069 20.1564 12.4004C20.1564 12.2939 20.1283 12.1893 20.0751 12.097L16.3802 5.56294C16.3255 5.46661 16.2464 5.3864 16.1508 5.3304C16.0552 5.27441 15.9465 5.24461 15.8357 5.24402L8.47705 5.24402C8.36626 5.24461 8.25759 5.27441 8.16199 5.3304C8.06639 5.3864 7.98725 5.46661 7.93254 5.56294L4.23766 12.097C4.18441 12.1893 4.15637 12.2939 4.15637 12.4004C4.15637 12.5069 4.18441 12.6116 4.23766 12.7038L7.93254 19.2379C7.98725 19.3342 8.06639 19.4144 8.16199 19.4704C8.25759 19.5264 8.36626 19.5562 8.47705 19.5568V19.5568Z" stroke="#222222" stroke-linecap="round" stroke-linejoin="round"/>
<path opacity="0.4" d="M12.1564 15.2008C13.703 15.2008 14.9567 13.947 14.9567 12.4004C14.9567 10.8538 13.703 9.6001 12.1564 9.6001C10.6098 9.6001 9.35608 10.8538 9.35608 12.4004C9.35608 13.947 10.6098 15.2008 12.1564 15.2008Z" stroke="#222222" stroke-linecap="round" stroke-linejoin="round"/>
</svg>
