<svg width="24" height="25" viewBox="0 0 24 25" fill="none" xmlns="http://www.w3.org/2000/svg">
<path d="M4.61536 8.09265H19.3846" stroke="#222222" stroke-linecap="round" stroke-linejoin="round"/>
<path d="M6.46155 8.09265H17.5385V19.1696C17.5385 19.496 17.4087 19.8091 17.178 20.0399C16.9472 20.2706 16.6341 20.4003 16.3077 20.4003H7.69232C7.36589 20.4003 7.05285 20.2706 6.82203 20.0399C6.59122 19.8091 6.46155 19.496 6.46155 19.1696V8.09265Z" stroke="#222222" stroke-linecap="round" stroke-linejoin="round"/>
<path opacity="0.4" d="M8.9231 8.0927V7.47731C8.9231 6.66126 9.24727 5.87863 9.8243 5.3016C10.4013 4.72457 11.184 4.40039 12 4.40039C12.8161 4.40039 13.5987 4.72457 14.1757 5.3016C14.7528 5.87863 15.0769 6.66126 15.0769 7.47731V8.0927" stroke="#222222" stroke-linecap="round" stroke-linejoin="round"/>
</svg>
