<svg width="25" height="25" viewBox="0 0 25 25" fill="none" xmlns="http://www.w3.org/2000/svg">
<path d="M20.9229 4.40039L4.92285 20.4004" stroke="#222222" stroke-linecap="round" stroke-linejoin="round"/>
<path opacity="0.4" d="M11.4229 13.4004V11.7512C11.4229 11.5241 11.3456 11.3038 11.2037 11.1265L7.98198 7.0993C7.66367 6.70141 7.69544 6.12781 8.05574 5.7675L8.12996 5.69328C8.3175 5.50575 8.57185 5.40039 8.83707 5.40039H17.5086C17.7739 5.40039 18.0282 5.50575 18.2157 5.69328L18.9229 6.40039" stroke="#222222" stroke-linecap="round" stroke-linejoin="round"/>
<path d="M11.6598 15.9004V17.3115C11.6598 17.6749 11.8553 18.0141 12.1877 18.1608C12.442 18.273 12.7311 18.3789 12.9165 18.3789C13.7804 18.3789 14.6858 17.6054 14.6858 17.0984C14.6858 16.5915 14.6858 12.8672 14.6858 12.8672" stroke="#222222" stroke-linecap="round" stroke-linejoin="round"/>
</svg>
