<svg width="24" height="25" viewBox="0 0 24 25" fill="none" xmlns="http://www.w3.org/2000/svg">
<path opacity="0.4" d="M8.8009 6.80192V4.40259" stroke="#222222" stroke-linecap="round" stroke-linejoin="round"/>
<path opacity="0.4" d="M15.1991 20.3981V17.9988" stroke="#222222" stroke-linecap="round" stroke-linejoin="round"/>
<path opacity="0.4" d="M6.40153 9.20129H4.0022" stroke="#222222" stroke-linecap="round" stroke-linejoin="round"/>
<path opacity="0.4" d="M19.9977 15.5995H17.5984" stroke="#222222" stroke-linecap="round" stroke-linejoin="round"/>
<path d="M6.30158 12.4404L5.1719 13.5701C4.42154 14.3205 4 15.3382 4 16.3993C4 16.9248 4.10349 17.4451 4.30457 17.9305C4.50564 18.4159 4.80036 18.857 5.1719 19.2285C5.54344 19.6001 5.98452 19.8948 6.46995 20.0959C6.95539 20.297 7.47568 20.4004 8.00111 20.4004C9.06227 20.4004 10.08 19.9789 10.8303 19.2285L11.96 18.0989" stroke="#222222" stroke-linecap="round" stroke-linejoin="round"/>
<path d="M17.6985 12.3604L18.8282 11.2307C19.5785 10.4804 20.0001 9.46266 20.0001 8.4015C20.0001 7.34034 19.5785 6.32264 18.8282 5.57229C18.0778 4.82194 17.0601 4.40039 15.9989 4.40039C14.9378 4.40039 13.9201 4.82194 13.1697 5.57229L12.04 6.70197" stroke="#222222" stroke-linecap="round" stroke-linejoin="round"/>
</svg>
