<svg width="25" height="25" viewBox="0 0 25 25" fill="none" xmlns="http://www.w3.org/2000/svg">
<path opacity="0.4" d="M8.80774 8.51018V4.81787" stroke="#222222" stroke-linecap="round" stroke-linejoin="round"/>
<path opacity="0.4" d="M12.5 8.51018V4.81787" stroke="#222222" stroke-linecap="round" stroke-linejoin="round"/>
<path opacity="0.4" d="M16.1923 8.51018V4.81787" stroke="#222222" stroke-linecap="round" stroke-linejoin="round"/>
<path d="M19.2692 6.664H5.73077C5.05103 6.664 4.5 7.21504 4.5 7.89477V19.5871C4.5 20.2668 5.05103 20.8178 5.73077 20.8178H19.2692C19.949 20.8178 20.5 20.2668 20.5 19.5871V7.89477C20.5 7.21504 19.949 6.664 19.2692 6.664Z" stroke="#222222" stroke-linecap="round" stroke-linejoin="round"/>
<path opacity="0.4" d="M9.25 12.3179H11.9265L10.3971 14.2296C10.6488 14.2292 10.8967 14.2909 11.1188 14.4093C11.341 14.5276 11.5305 14.699 11.6705 14.9081C11.8105 15.1172 11.8968 15.3577 11.9216 15.6082C11.9465 15.8587 11.9091 16.1114 11.8128 16.344C11.7166 16.5765 11.5644 16.7818 11.3698 16.9414C11.1752 17.1011 10.9442 17.2102 10.6973 17.2592C10.4504 17.3082 10.1953 17.2955 9.95448 17.2222C9.71367 17.149 9.49468 17.0174 9.31691 16.8392" stroke="#222222" stroke-width="0.8" stroke-linecap="round" stroke-linejoin="round"/>
<path opacity="0.4" d="M14.2206 13.4649L15.75 12.3179V17.2885" stroke="#222222" stroke-width="0.8" stroke-linecap="round" stroke-linejoin="round"/>
</svg>
