<svg width="25" height="25" viewBox="0 0 25 25" fill="none" xmlns="http://www.w3.org/2000/svg">
<path opacity="0.4" d="M8.80774 8.51018V4.81787" stroke="#222222" stroke-linecap="round" stroke-linejoin="round"/>
<path opacity="0.4" d="M12.5 8.51018V4.81787" stroke="#222222" stroke-linecap="round" stroke-linejoin="round"/>
<path opacity="0.4" d="M16.1923 8.51018V4.81787" stroke="#222222" stroke-linecap="round" stroke-linejoin="round"/>
<path d="M19.2692 6.664H5.73077C5.05103 6.664 4.5 7.21504 4.5 7.89477V19.5871C4.5 20.2668 5.05103 20.8178 5.73077 20.8178H19.2692C19.949 20.8178 20.5 20.2668 20.5 19.5871V7.89477C20.5 7.21504 19.949 6.664 19.2692 6.664Z" stroke="#222222" stroke-linecap="round" stroke-linejoin="round"/>
<path opacity="0.4" d="M12.7486 10.9703L13.5852 12.6532C13.6039 12.6958 13.6336 12.7326 13.6712 12.76C13.7088 12.7873 13.753 12.8042 13.7992 12.8089L15.6573 13.091C15.7104 13.0979 15.7605 13.1198 15.8016 13.1541C15.8428 13.1884 15.8733 13.2338 15.8896 13.2848C15.9059 13.3358 15.9074 13.3904 15.8938 13.4422C15.8803 13.4941 15.8522 13.5409 15.813 13.5774L14.4413 14.881C14.4208 14.92 14.4101 14.9634 14.4101 15.0074C14.4101 15.0515 14.4208 15.0949 14.4413 15.1339L14.7039 16.9823C14.7151 17.0357 14.7106 17.0912 14.6909 17.1421C14.6712 17.193 14.6371 17.2371 14.5928 17.269C14.5485 17.3009 14.4959 17.3193 14.4414 17.322C14.3869 17.3246 14.3328 17.3113 14.2856 17.2838L12.6319 16.4083C12.5891 16.389 12.5426 16.379 12.4957 16.379C12.4487 16.379 12.4023 16.389 12.3595 16.4083L10.7057 17.2838C10.6586 17.3113 10.6044 17.3246 10.5499 17.322C10.4954 17.3193 10.4428 17.3009 10.3985 17.269C10.3542 17.2371 10.3202 17.193 10.3004 17.1421C10.2807 17.0912 10.2762 17.0357 10.2874 16.9823L10.5987 15.1339C10.6121 15.091 10.6146 15.0455 10.6062 15.0013C10.5977 14.9572 10.5784 14.9158 10.55 14.881L9.17839 13.5677C9.14201 13.5308 9.11647 13.4847 9.10458 13.4343C9.09269 13.3839 9.09491 13.3312 9.11098 13.2819C9.12706 13.2327 9.15637 13.1888 9.19572 13.1552C9.23507 13.1215 9.28292 13.0993 9.33404 13.091L11.1921 12.8186C11.2384 12.8139 11.2825 12.7971 11.3201 12.7697C11.3577 12.7424 11.3874 12.7055 11.4061 12.663L12.2427 10.98C12.2651 10.9324 12.3004 10.8919 12.3446 10.8633C12.3887 10.8347 12.44 10.8189 12.4927 10.8179C12.5453 10.8169 12.5971 10.8306 12.6424 10.8576C12.6876 10.8845 12.7244 10.9235 12.7486 10.9703Z" stroke="#222222" stroke-linecap="round" stroke-linejoin="round"/>
</svg>
