<svg width="25" height="25" viewBox="0 0 25 25" fill="none" xmlns="http://www.w3.org/2000/svg">
<path opacity="0.4" d="M6.37842 11.5237H19.1479" stroke="#222222" stroke-linecap="round" stroke-linejoin="round"/>
<path opacity="0.4" d="M19.8015 11.3807L20.5039 10.5186" stroke="#222222" stroke-linecap="round" stroke-linejoin="round"/>
<path opacity="0.4" d="M5.90604 11.5237L5.01208 10.6617" stroke="#222222" stroke-linecap="round" stroke-linejoin="round"/>
<path d="M19.6203 13.7674V17.8094C19.6203 17.961 19.5601 18.1063 19.453 18.2135C19.3458 18.3206 19.2005 18.3808 19.0489 18.3808H17.3346C17.1831 18.3808 17.0377 18.3206 16.9306 18.2135C16.8234 18.1063 16.7632 17.961 16.7632 17.8094V16.0951" stroke="#222222" stroke-linecap="round" stroke-linejoin="round"/>
<path d="M8.76315 16.0951V17.8094C8.76315 17.9609 8.70294 18.1063 8.59578 18.2134C8.48862 18.3206 8.34327 18.3808 8.19172 18.3808H6.47743C6.32588 18.3808 6.18054 18.3206 6.07337 18.2134C5.96621 18.1063 5.90601 17.9609 5.90601 17.8094L5.90601 12.9446" stroke="#222222" stroke-linecap="round" stroke-linejoin="round"/>
<path opacity="0.4" d="M8.19177 13.8094H9.33463" stroke="#222222" stroke-linecap="round" stroke-linejoin="round"/>
<path opacity="0.4" d="M16.1918 13.8094H17.3346" stroke="#222222" stroke-linecap="round" stroke-linejoin="round"/>
<path d="M19.6203 12.0546C19.6203 11.7067 19.5295 11.3648 19.357 11.0627L17.4989 7.8094C17.4494 7.72234 17.3777 7.64999 17.2911 7.59978C17.2045 7.54957 17.1061 7.52331 17.006 7.52369H8.52029C8.42018 7.52331 8.32177 7.54957 8.23516 7.59978C8.14855 7.64999 8.07686 7.72234 8.02743 7.8094L6.16931 11.0627C5.99676 11.3648 5.90601 11.7067 5.90601 12.0546V14.0951C5.90601 15.1997 6.80144 16.0951 7.90601 16.0951H17.6203C18.7249 16.0951 19.6203 15.1997 19.6203 14.0951V12.0546Z" stroke="#222222" stroke-linecap="round" stroke-linejoin="round"/>
</svg>
