<svg width="25" height="25" viewBox="0 0 25 25" fill="none" xmlns="http://www.w3.org/2000/svg">
<path d="M12.1787 20.3179C16.597 20.3179 20.1787 16.7361 20.1787 12.3179C20.1787 7.89959 16.597 4.31787 12.1787 4.31787C7.76043 4.31787 4.17871 7.89959 4.17871 12.3179C4.17871 16.7361 7.76043 20.3179 12.1787 20.3179Z" stroke="#222222" stroke-miterlimit="10"/>
<path opacity="0.4" d="M4.63708 9.65121H19.7204M4.63708 14.9845H19.7204M15.5121 12.3178C15.5121 16.6165 14.0197 20.1012 12.1788 20.1012C10.3378 20.1012 8.84542 16.6165 8.84542 12.3178C8.84542 8.01923 10.3378 4.53452 12.1788 4.53452C14.0197 4.53452 15.5121 8.01923 15.5121 12.3178Z" stroke="#222222" stroke-miterlimit="10" stroke-linecap="round"/>
</svg>
