<svg width="25" height="25" viewBox="0 0 25 25" fill="none" xmlns="http://www.w3.org/2000/svg">
<path d="M18.0927 16.5322L20.3785 18.8179L18.0927 21.1036" stroke="#222222" stroke-linecap="round" stroke-linejoin="round"/>
<path d="M5.37842 8.81787C6.48299 8.81787 7.37842 7.92244 7.37842 6.81787C7.37842 5.7133 6.48299 4.81787 5.37842 4.81787C4.27385 4.81787 3.37842 5.7133 3.37842 6.81787C3.37842 7.92244 4.27385 8.81787 5.37842 8.81787Z" stroke="#222222" stroke-linecap="round" stroke-linejoin="round"/>
<path opacity="0.4" d="M7.71175 6.81787H15.7118C16.419 6.81787 17.0973 7.09882 17.5974 7.59892C18.0975 8.09902 18.3784 8.77729 18.3784 9.48454C18.3784 10.1918 18.0975 10.8701 17.5974 11.3702C17.0973 11.8703 16.419 12.1512 15.7118 12.1512H7.71175C6.8277 12.1512 5.97985 12.5024 5.35473 13.1275C4.72961 13.7526 4.37842 14.6005 4.37842 15.4845C4.37842 16.3686 4.72961 17.2164 5.35473 17.8416C5.97985 18.4667 6.8277 18.8179 7.71175 18.8179H19.3784" stroke="#222222" stroke-linecap="round" stroke-linejoin="round"/>
</svg>
