<svg width="25" height="25" viewBox="0 0 25 25" fill="none" xmlns="http://www.w3.org/2000/svg">
<path d="M12.3784 18.3563C15.4372 18.3563 17.9169 15.8767 17.9169 12.8179C17.9169 9.75907 15.4372 7.27942 12.3784 7.27942C9.31962 7.27942 6.83997 9.75907 6.83997 12.8179C6.83997 15.8767 9.31962 18.3563 12.3784 18.3563Z" stroke="#222222" stroke-linecap="round" stroke-linejoin="round"/>
<path d="M12.3784 13.4333C12.7183 13.4333 12.9938 13.1577 12.9938 12.8179C12.9938 12.478 12.7183 12.2025 12.3784 12.2025C12.0386 12.2025 11.7631 12.478 11.7631 12.8179C11.7631 13.1577 12.0386 13.4333 12.3784 13.4333Z" stroke="#222222" stroke-linecap="round" stroke-linejoin="round"/>
<path opacity="0.4" d="M12.3784 7.27941V4.81787" stroke="#222222" stroke-linecap="round" stroke-linejoin="round"/>
<path opacity="0.4" d="M12.3784 20.8179V18.3563" stroke="#222222" stroke-linecap="round" stroke-linejoin="round"/>
<path opacity="0.4" d="M17.9169 12.8179H20.3784" stroke="#222222" stroke-linecap="round" stroke-linejoin="round"/>
<path opacity="0.4" d="M4.37842 12.8179H6.83996" stroke="#222222" stroke-linecap="round" stroke-linejoin="round"/>
</svg>
