<svg width="25" height="25" viewBox="0 0 25 25" fill="none" xmlns="http://www.w3.org/2000/svg">
<path d="M20.377 4.82086L4.37993 20.8179" stroke="#222222" stroke-linecap="round" stroke-linejoin="round"/>
<path opacity="0.4" d="M11.826 13.3716C10.7328 13.1206 9.91751 12.1417 9.91751 10.9724C9.91751 9.61296 11.0196 8.51089 12.379 8.51089C13.5483 8.51089 14.5272 9.32619 14.7782 10.4193" stroke="#222222" stroke-linecap="round" stroke-linejoin="round"/>
<path opacity="0.4" d="M17.6982 7.49943C16.4751 5.86932 14.5472 4.81787 12.3784 4.81787C8.68158 4.81787 5.68482 7.87275 5.68482 11.6411C5.68482 13.7982 6.7164 15.7061 7.96969 17.228" stroke="#222222" stroke-linecap="round" stroke-linejoin="round"/>
<path d="M18.8093 9.74188C18.9803 10.3448 19.072 10.982 19.072 11.6411C19.072 16.1211 14.622 19.5263 12.9787 20.631C12.6127 20.8771 12.1442 20.8771 11.7781 20.631C11.2599 20.2825 10.4624 19.7053 9.61348 18.9377" stroke="#222222" stroke-linecap="round" stroke-linejoin="round"/>
</svg>
