<svg width="25" height="25" viewBox="0 0 25 25" fill="none" xmlns="http://www.w3.org/2000/svg">
<path opacity="0.4" d="M12.3785 18.5322H20.3786" stroke="#222222" stroke-linecap="round" stroke-linejoin="round"/>
<path d="M18.0928 16.2464L20.3786 18.5322L18.0928 20.8179" stroke="#222222" stroke-linecap="round" stroke-linejoin="round"/>
<path d="M6.09265 8.24682C7.03953 8.24682 7.80712 7.47922 7.80712 6.53235C7.80712 5.58547 7.03953 4.81787 6.09265 4.81787C5.14577 4.81787 4.37817 5.58547 4.37817 6.53235C4.37817 7.47922 5.14577 8.24682 6.09265 8.24682Z" stroke="#222222" stroke-linecap="round" stroke-linejoin="round"/>
<path d="M14.093 13.9613C15.0399 13.9613 15.8075 13.1937 15.8075 12.2469C15.8075 11.3 15.0399 10.5324 14.093 10.5324C13.1461 10.5324 12.3785 11.3 12.3785 12.2469C12.3785 13.1937 13.1461 13.9613 14.093 13.9613Z" stroke="#222222" stroke-linecap="round" stroke-linejoin="round"/>
<path d="M10.6641 20.2469C11.6109 20.2469 12.3785 19.4793 12.3785 18.5324C12.3785 17.5856 11.6109 16.818 10.6641 16.818C9.71718 16.818 8.94958 17.5856 8.94958 18.5324C8.94958 19.4793 9.71718 20.2469 10.6641 20.2469Z" stroke="#222222" stroke-linecap="round" stroke-linejoin="round"/>
<path opacity="0.4" d="M12.3785 12.247H7.52131C5.78554 12.247 4.37842 13.6541 4.37842 15.3899C4.37842 17.1257 5.78554 18.5328 7.52131 18.5328H8.9499" stroke="#222222" stroke-linecap="round" stroke-linejoin="round"/>
<path opacity="0.4" d="M15.8071 12.2468H17.5215C19.0994 12.2468 20.3786 10.9676 20.3786 9.38961C20.3786 7.81164 19.0994 6.53244 17.5215 6.53244L7.81958 6.53244" stroke="#222222" stroke-linecap="round" stroke-linejoin="round"/>
</svg>
