<svg width="25" height="25" viewBox="0 0 25 25" fill="none" xmlns="http://www.w3.org/2000/svg">
<path d="M16.4498 18.1394C17.2783 18.1394 17.9498 17.4678 17.9498 16.6394C17.9498 15.8109 17.2783 15.1394 16.4498 15.1394C15.6214 15.1394 14.9498 15.8109 14.9498 16.6394C14.9498 17.4678 15.6214 18.1394 16.4498 18.1394Z" stroke="#222222" stroke-miterlimit="10"/>
<path d="M7.90442 18.1394C8.73285 18.1394 9.40442 17.4678 9.40442 16.6394C9.40442 15.8109 8.73285 15.1394 7.90442 15.1394C7.07599 15.1394 6.40442 15.8109 6.40442 16.6394C6.40442 17.4678 7.07599 18.1394 7.90442 18.1394Z" stroke="#222222" stroke-miterlimit="10"/>
<path d="M14.9499 16.6394H9.80701" stroke="#222222" stroke-linecap="round" stroke-linejoin="round"/>
<path d="M6.37842 16.6394H4.94985C4.79829 16.6394 4.65295 16.5792 4.54579 16.472C4.43862 16.3648 4.37842 16.2195 4.37842 16.0679V8.06795C4.37842 7.9164 4.43862 7.77105 4.54579 7.66389C4.65295 7.55673 4.79829 7.49652 4.94985 7.49652H15.807V15.1537" stroke="#222222" stroke-linecap="round" stroke-linejoin="round"/>
<path opacity="0.4" d="M15.807 8.63936H18.8499C18.9637 8.63861 19.0751 8.67233 19.1695 8.73607C19.2638 8.79981 19.3366 8.89059 19.3784 8.9965L20.3784 11.4965M20.3784 11.4965L15.807 11.4965M20.3784 11.4965V16.0679C20.3784 16.2195 20.3182 16.3648 20.2111 16.472C20.1039 16.5791 19.9586 16.6393 19.807 16.6393H18.3784" stroke="#222222" stroke-linecap="round" stroke-linejoin="round"/>
</svg>
