<svg width="25" height="25" viewBox="0 0 25 25" fill="none" xmlns="http://www.w3.org/2000/svg">
<path d="M20.509 11.8966C20.7135 12.1493 20.8267 12.4775 20.8267 12.8179C20.8267 13.1582 20.7135 13.4865 20.509 13.7391C19.2142 15.2929 16.2671 18.3179 12.8267 18.3179C9.38628 18.3179 6.43913 15.2929 5.14436 13.7391C4.93986 13.4865 4.82666 13.1582 4.82666 12.8179C4.82666 12.4775 4.93986 12.1493 5.14436 11.8966C6.43913 10.3429 9.38628 7.31787 12.8267 7.31787C16.2671 7.31787 19.2142 10.3429 20.509 11.8966Z" stroke="#222222" stroke-linecap="round" stroke-linejoin="round"/>
<path opacity="0.4" d="M12.8267 15.3179C14.2074 15.3179 15.3267 14.1986 15.3267 12.8179C15.3267 11.4372 14.2074 10.3179 12.8267 10.3179C11.4459 10.3179 10.3267 11.4372 10.3267 12.8179C10.3267 14.1986 11.4459 15.3179 12.8267 15.3179Z" stroke="#222222" stroke-linecap="round" stroke-linejoin="round"/>
</svg>
