<svg width="25" height="25" viewBox="0 0 25 25" fill="none" xmlns="http://www.w3.org/2000/svg">
<path d="M20.8267 15.1255V19.5871C20.8267 19.9135 20.697 20.2266 20.4662 20.4574C20.2354 20.6881 19.9223 20.8179 19.5959 20.8179H16.1344" stroke="#222222" stroke-linecap="round" stroke-linejoin="round"/>
<path d="M16.1344 4.81787H19.5959C19.9223 4.81787 20.2354 4.94754 20.4662 5.17835C20.697 5.40917 20.8267 5.72222 20.8267 6.04864V10.5102" stroke="#222222" stroke-linecap="round" stroke-linejoin="round"/>
<path d="M4.82666 10.5102V6.04864C4.82666 5.72222 4.95633 5.40917 5.18714 5.17835C5.41796 4.94754 5.731 4.81787 6.05743 4.81787H9.51897" stroke="#222222" stroke-linecap="round" stroke-linejoin="round"/>
<path d="M9.51897 20.8179H6.05743C5.731 20.8179 5.41796 20.6881 5.18714 20.4574C4.95633 20.2266 4.82666 19.9135 4.82666 19.5871V15.1255" stroke="#222222" stroke-linecap="round" stroke-linejoin="round"/>
<path opacity="0.4" d="M12.8266 9.74097V14.0487H10.9805" stroke="#222222" stroke-linecap="round" stroke-linejoin="round"/>
<path opacity="0.4" d="M9.74976 16.5102C10.5801 17.2989 11.6815 17.7386 12.8267 17.7386C13.9718 17.7386 15.0733 17.2989 15.9036 16.5102" stroke="#222222" stroke-linecap="round" stroke-linejoin="round"/>
<path opacity="0.4" d="M9.13435 10.0486C8.96442 10.0486 8.82666 9.91085 8.82666 9.74092C8.82666 9.57099 8.96442 9.43323 9.13435 9.43323" stroke="#222222" stroke-linecap="round" stroke-linejoin="round"/>
<path opacity="0.4" d="M9.1344 10.0486C9.30433 10.0486 9.44209 9.91085 9.44209 9.74092C9.44209 9.57099 9.30433 9.43323 9.1344 9.43323" stroke="#222222" stroke-linecap="round" stroke-linejoin="round"/>
<path opacity="0.4" d="M16.519 10.0486C16.3491 10.0486 16.2113 9.91085 16.2113 9.74092C16.2113 9.57099 16.3491 9.43323 16.519 9.43323" stroke="#222222" stroke-linecap="round" stroke-linejoin="round"/>
<path opacity="0.4" d="M16.519 10.0486C16.689 10.0486 16.8267 9.91085 16.8267 9.74092C16.8267 9.57099 16.689 9.43323 16.519 9.43323" stroke="#222222" stroke-linecap="round" stroke-linejoin="round"/>
</svg>
