<svg width="25" height="25" viewBox="0 0 25 25" fill="none" xmlns="http://www.w3.org/2000/svg">
<path d="M6.89062 17.5995C7.60207 16.1215 7.97092 14.4932 7.96809 12.8429C7.96877 12.0406 8.14379 11.2486 8.48027 10.5252C8.81675 9.8019 9.30613 9.16562 9.9124 8.66321" stroke="#222222" stroke-linecap="round" stroke-linejoin="round"/>
<path d="M13.1529 12.843C13.1564 15.5629 12.4872 18.2387 11.2086 20.6173" stroke="#222222" stroke-linecap="round" stroke-linejoin="round"/>
<path d="M10.5605 12.8429C10.5605 12.1335 10.8337 11.4531 11.3198 10.9514C11.806 10.4497 12.4654 10.1679 13.153 10.1679C13.8405 10.1679 14.4999 10.4497 14.9861 10.9514C15.4722 11.4531 15.7454 12.1335 15.7454 12.8429C15.7507 15.6004 15.1613 18.3246 14.0198 20.8179" stroke="#222222" stroke-linecap="round" stroke-linejoin="round"/>
<path d="M20.4927 17.5242C20.7829 15.9818 20.9294 14.4142 20.9302 12.8429C20.9302 10.7146 20.1108 8.67336 18.6523 7.16836C17.1938 5.66337 15.2156 4.81787 13.153 4.81787C11.0903 4.81787 9.11215 5.66337 7.65364 7.16836C6.19513 8.67336 5.37575 10.7146 5.37575 12.8429C5.37806 13.7545 5.22731 14.6595 4.93018 15.518" stroke="#222222" stroke-linecap="round" stroke-linejoin="round"/>
<path d="M10.3013 15.518C10.0215 16.9245 9.52649 18.2762 8.83496 19.5222" stroke="#222222" stroke-linecap="round" stroke-linejoin="round"/>
<path d="M12.5049 7.53472C12.72 7.50804 12.9364 7.49409 13.153 7.49292C14.5281 7.49292 15.8469 8.05658 16.8192 9.05991C17.7915 10.0632 18.3378 11.4241 18.3378 12.843C18.337 13.7372 18.2829 14.6306 18.1758 15.518" stroke="#222222" stroke-linecap="round" stroke-linejoin="round"/>
<path d="M17.6816 18.193C17.5601 18.6862 17.4224 19.1794 17.2684 19.6559" stroke="#222222" stroke-linecap="round" stroke-linejoin="round"/>
</svg>
