<svg width="25" height="25" viewBox="0 0 25 25" fill="none" xmlns="http://www.w3.org/2000/svg">
<path d="M17.7498 10.9717H7.90362C7.22389 10.9717 6.67285 11.5228 6.67285 12.2025V19.5871C6.67285 20.2669 7.22389 20.8179 7.90362 20.8179H17.7498C18.4295 20.8179 18.9805 20.2669 18.9805 19.5871V12.2025C18.9805 11.5228 18.4295 10.9717 17.7498 10.9717Z" stroke="#222222" stroke-linecap="round" stroke-linejoin="round"/>
<path opacity="0.4" d="M17.1344 8.12556C16.6918 7.09074 16.6806 6.88741 15.8727 6.07957C15.0649 5.27172 13.9692 4.81787 12.8267 4.81787C11.6843 4.81787 10.5886 5.27172 9.78074 6.07957C8.97289 6.88741 8.51904 7.98309 8.51904 9.12556V10.9717" stroke="#222222" stroke-linecap="round" stroke-linejoin="round"/>
<path opacity="0.4" fill-rule="evenodd" clip-rule="evenodd" d="M12.8267 14.7794C12.2107 14.7794 11.7113 15.2788 11.7113 15.8948C11.7113 16.331 11.9617 16.7088 12.3267 16.8921V17.7405C12.3267 18.0166 12.5505 18.2405 12.8267 18.2405C13.1028 18.2405 13.3267 18.0166 13.3267 17.7405V16.8921C13.6916 16.7088 13.9421 16.331 13.9421 15.8948C13.9421 15.2788 13.4427 14.7794 12.8267 14.7794Z" fill="#222222"/>
</svg>
