<svg width="25" height="25" viewBox="0 0 25 25" fill="none" xmlns="http://www.w3.org/2000/svg">
<path opacity="0.4" d="M7.90358 4.81787H6.05743C5.731 4.81787 5.41796 4.94754 5.18714 5.17835C4.95633 5.40917 4.82666 5.72222 4.82666 6.04864V7.89479" stroke="#222222" stroke-linecap="round" stroke-linejoin="round"/>
<path opacity="0.4" d="M17.7498 4.81787H19.5959C19.9223 4.81787 20.2354 4.94754 20.4662 5.17835C20.697 5.40917 20.8267 5.72222 20.8267 6.04864V7.89479" stroke="#222222" stroke-linecap="round" stroke-linejoin="round"/>
<path d="M7.90358 20.8179H6.05743C5.731 20.8179 5.41796 20.6882 5.18714 20.4574C4.95633 20.2266 4.82666 19.9135 4.82666 19.5871V17.741" stroke="#222222" stroke-linecap="round" stroke-linejoin="round"/>
<path d="M17.7498 20.8179H19.5959C19.9223 20.8179 20.2354 20.6882 20.4662 20.4574C20.697 20.2266 20.8267 19.9135 20.8267 19.5871V17.741" stroke="#222222" stroke-linecap="round" stroke-linejoin="round"/>
<path d="M3.82666 12.8179H21.8267" stroke="#222222" stroke-linecap="round"/>
</svg>
