<svg width="25" height="25" viewBox="0 0 25 25" fill="none" xmlns="http://www.w3.org/2000/svg">
<path opacity="0.4" d="M11.5959 7.89478H9.13433C8.4546 7.89478 7.90356 8.44582 7.90356 9.12554V11.5871C7.90356 12.2668 8.4546 12.8179 9.13433 12.8179H11.5959C12.2756 12.8179 12.8266 12.2668 12.8266 11.5871V9.12554C12.8266 8.44582 12.2756 7.89478 11.5959 7.89478Z" stroke="#222222" stroke-linecap="round" stroke-linejoin="round"/>
<path d="M7.90358 4.81787H6.05743C5.731 4.81787 5.41796 4.94754 5.18714 5.17835C4.95633 5.40917 4.82666 5.72222 4.82666 6.04864V7.89479" stroke="#222222" stroke-linecap="round" stroke-linejoin="round"/>
<path d="M17.7498 4.81787H19.5959C19.9223 4.81787 20.2354 4.94754 20.4662 5.17835C20.697 5.40917 20.8267 5.72222 20.8267 6.04864V7.89479" stroke="#222222" stroke-linecap="round" stroke-linejoin="round"/>
<path d="M7.90358 20.8179H6.05743C5.731 20.8179 5.41796 20.6882 5.18714 20.4574C4.95633 20.2266 4.82666 19.9135 4.82666 19.5871V17.741" stroke="#222222" stroke-linecap="round" stroke-linejoin="round"/>
<path d="M17.7498 20.8179H19.5959C19.9223 20.8179 20.2354 20.6882 20.4662 20.4574C20.697 20.2266 20.8267 19.9135 20.8267 19.5871V17.741" stroke="#222222" stroke-linecap="round" stroke-linejoin="round"/>
<path opacity="0.4" d="M7.90356 15.8948V17.7409H9.74972" stroke="#222222" stroke-linecap="round" stroke-linejoin="round"/>
<path opacity="0.4" d="M12.8266 17.7409V15.8948H10.9805" stroke="#222222" stroke-linecap="round" stroke-linejoin="round"/>
<path opacity="0.4" d="M17.7497 9.74093H15.9036V7.89478" stroke="#222222" stroke-linecap="round" stroke-linejoin="round"/>
<path opacity="0.4" d="M17.7497 14.0487V12.2025H15.9036" stroke="#222222" stroke-linecap="round" stroke-linejoin="round"/>
<path opacity="0.4" d="M15.9036 15.8948V17.7409H17.7497" stroke="#222222" stroke-linecap="round" stroke-linejoin="round"/>
</svg>
