<svg width="25" height="25" viewBox="0 0 25 25" fill="none" xmlns="http://www.w3.org/2000/svg">
<path d="M20.3267 4.81787L4.82666 20.3179" stroke="#222222" stroke-linecap="round" stroke-linejoin="round"/>
<path d="M7.82666 17.3179C9.53301 19.2102 11.4775 20.0486 12.1283 20.2563C12.2563 20.3023 12.397 20.3023 12.5251 20.2563C13.6521 19.8948 19.3108 17.7563 19.3108 11.2948V6.7794C19.3108 6.61619 19.2439 6.45966 19.1248 6.34425C19.0058 6.22885 18.9951 6.31786 18.8267 6.31786" stroke="#222222" stroke-linecap="round" stroke-linejoin="round"/>
<path opacity="0.4" d="M14.668 6.164H5.97749C5.8091 6.164 5.64761 6.22884 5.52854 6.34424C5.40946 6.45965 5.34257 6.61618 5.34257 6.77939V11.2948C5.34257 12.8409 5.66797 14.1332 6.1759 15.2178" stroke="#222222" stroke-linecap="round" stroke-linejoin="round"/>
</svg>
