<svg width="24" height="25" viewBox="0 0 24 25" fill="none" xmlns="http://www.w3.org/2000/svg">
<path d="M9.30209 12.2787L13.1643 10.8507L14.5687 7.12503C14.7152 6.71548 15.2848 6.71548 15.4313 7.12503L16.8357 10.8507L20.6979 12.2787C21.1007 12.4276 21.1007 13.0069 20.6979 13.1558L16.8357 14.5838L15.4313 18.5107C15.2848 18.9203 14.7152 18.9203 14.5687 18.5107L13.1643 14.5838L9.3021 13.1558C8.8993 13.0069 8.8993 12.4276 9.30209 12.2787Z" stroke="#222222" stroke-linecap="round" stroke-linejoin="round"/>
<path opacity="0.4" d="M4.15105 17.6022L6.08213 16.9L6.78435 14.9689C6.85758 14.7675 7.14242 14.7675 7.21565 14.9689L7.91787 16.9L9.84894 17.6022C10.0504 17.6755 10.0504 17.9603 9.84894 18.0335L7.91787 18.7357L7.21565 20.6668C7.14242 20.8682 6.85758 20.8682 6.78435 20.6668L6.08213 18.7357L4.15105 18.0335C3.94965 17.9603 3.94965 17.6755 4.15105 17.6022Z" stroke="#222222" stroke-width="0.8" stroke-linecap="round" stroke-linejoin="round"/>
<path opacity="0.4" d="M4.15105 7.60222L6.08213 6.90001L6.78435 4.96892C6.85758 4.76752 7.14242 4.76752 7.21565 4.96892L7.91787 6.90001L9.84894 7.60222C10.0504 7.67545 10.0504 7.96029 9.84894 8.03352L7.91787 8.73574L7.21565 10.6668C7.14242 10.8682 6.85758 10.8682 6.78435 10.6668L6.08213 8.73574L4.15105 8.03352C3.94965 7.96029 3.94965 7.67545 4.15105 7.60222Z" stroke="#222222" stroke-width="0.8" stroke-linecap="round" stroke-linejoin="round"/>
</svg>
