<svg width="24" height="25" viewBox="0 0 24 25" fill="none" xmlns="http://www.w3.org/2000/svg">
<path d="M14.1634 14.367H19.3856C19.7249 14.367 20 14.6421 20 14.9814V20.2036C20 20.5429 19.7249 20.818 19.3856 20.818H14.1634C13.8241 20.818 13.5491 20.5429 13.5491 20.2036V14.9814C13.5491 14.6421 13.8241 14.367 14.1634 14.367Z" stroke="#222222" stroke-linecap="round" stroke-linejoin="round"/>
<path d="M4.61432 14.367H9.83656C10.1759 14.367 10.4509 14.6421 10.4509 14.9814V20.2036C10.4509 20.5429 10.1759 20.818 9.83656 20.818H4.61432C4.27503 20.818 4.00005 20.5429 4.00005 20.2036V14.9814C4.00005 14.6421 4.27503 14.367 4.61432 14.367Z" stroke="#222222" stroke-linecap="round" stroke-linejoin="round"/>
<path d="M14.1634 4.81778H19.3856C19.7249 4.81778 20 5.09285 20 5.43215V10.6543C20 10.9937 19.7249 11.2687 19.3856 11.2687H14.1634C13.8241 11.2687 13.5491 10.9937 13.5491 10.6543V5.43215C13.5491 5.09285 13.8241 4.81778 14.1634 4.81778Z" stroke="#222222" stroke-linecap="round" stroke-linejoin="round"/>
<path opacity="0.4" d="M10.5583 8.5194C10.9366 8.45359 10.9366 7.91054 10.5583 7.84473C9.18787 7.60631 8.09787 6.56246 7.80036 5.2036L7.77759 5.09944C7.69578 4.72557 7.16344 4.72324 7.07837 5.09638L7.05068 5.21777C6.7421 6.57023 5.65188 7.60526 4.28516 7.84301C3.90497 7.90916 3.90497 8.45497 4.28516 8.52112C5.65188 8.75889 6.7421 9.79392 7.05068 11.1464L7.07837 11.2678C7.16344 11.6409 7.69578 11.6386 7.77759 11.2647L7.80036 11.1605C8.09787 9.80167 9.18787 8.75783 10.5583 8.5194Z" stroke="#222222" stroke-linecap="round" stroke-linejoin="round"/>
</svg>
