<svg width="24" height="25" viewBox="0 0 24 25" fill="none" xmlns="http://www.w3.org/2000/svg">
<path d="M5.84741 20.8159V17.7398H8.92358" stroke="#222222" stroke-linecap="round" stroke-linejoin="round"/>
<path d="M19.8622 11.348C20.6276 15.4183 18.1368 19.4535 14.07 20.5433C10.9575 21.3773 7.78163 20.2554 5.84741 17.931" stroke="#222222" stroke-linecap="round" stroke-linejoin="round"/>
<path d="M4.13779 14.2876C3.37239 10.2173 5.86325 6.18206 9.92999 5.09238C13.0423 4.25844 16.2179 5.3801 18.1522 7.70412" stroke="#222222" stroke-linecap="round" stroke-linejoin="round"/>
<path d="M18.1521 4.81998V7.89615H15.0759" stroke="#222222" stroke-linecap="round" stroke-linejoin="round"/>
<path opacity="0.4" d="M8.39017 13.2316C7.9549 13.1559 7.9549 12.5311 8.39017 12.4553C9.96706 12.181 11.2212 10.9799 11.5635 9.41638L11.5897 9.29653C11.6839 8.86635 12.2964 8.86367 12.3944 9.293L12.4262 9.43267C12.7812 10.9888 14.0357 12.1798 15.6082 12.4534C16.0456 12.5295 16.0456 13.1575 15.6082 13.2336C14.0357 13.5072 12.7812 14.6981 12.4262 16.2543L12.3944 16.3939C12.2964 16.8233 11.6839 16.8206 11.5897 16.3904L11.5635 16.2706C11.2212 14.707 9.96706 13.506 8.39017 13.2316Z" stroke="#222222" stroke-linecap="round" stroke-linejoin="round"/>
</svg>
