<svg width="24" height="25" viewBox="0 0 24 25" fill="none" xmlns="http://www.w3.org/2000/svg">
<path d="M14.6445 7.98242H18.9655C19.293 7.98242 19.607 8.11239 19.8385 8.34371C20.07 8.57505 20.2001 8.88882 20.2001 9.21597V19.0844C20.2001 19.4115 20.07 19.7252 19.8385 19.9566C19.607 20.1879 19.293 20.3179 18.9655 20.3179H7.85444C7.17259 20.3179 6.61987 19.7655 6.61987 19.0844V14.1501" stroke="#222222" stroke-linecap="round" stroke-linejoin="round"/>
<path d="M20.2002 11.0662H12.1755" stroke="#222222" stroke-linecap="round" stroke-linejoin="round"/>
<path d="M15.2619 13.5332L17.1138 15.3836L15.2619 17.2339" stroke="#222222" stroke-linecap="round" stroke-linejoin="round"/>
<path d="M13.2002 13.3179L12.2002 17.3179" stroke="#222222" stroke-linecap="round" stroke-linejoin="round"/>
<path opacity="0.4" d="M11.7113 8.5538C12.1446 8.4785 12.1446 7.85706 11.7113 7.78175C10.1417 7.50892 8.89337 6.31439 8.55268 4.75938L8.52657 4.64019C8.43282 4.21235 7.82319 4.20969 7.72566 4.63669L7.69393 4.7756C7.34072 6.32327 6.09195 7.50771 4.52677 7.77978C4.09134 7.85548 4.09134 8.48007 4.52677 8.55577C6.09195 8.82785 7.34072 10.0123 7.69393 11.56L7.72566 11.6989C7.82319 12.1259 8.43282 12.1232 8.52657 11.6954L8.55268 11.5762C8.89337 10.0212 10.1417 8.82664 11.7113 8.5538Z" stroke="#222222" stroke-linecap="round" stroke-linejoin="round"/>
</svg>
