<svg width="24" height="25" viewBox="0 0 24 25" fill="none" xmlns="http://www.w3.org/2000/svg">
<path d="M11.9075 20.496L8.17004 20.8179L8.49396 17.1038L16.2678 9.428C16.3839 9.31009 16.5225 9.21639 16.6754 9.15242C16.8283 9.08846 16.9926 9.05551 17.1586 9.05551C17.3245 9.05551 17.4888 9.08846 17.6418 9.15242C17.7948 9.21639 17.9333 9.31009 18.0493 9.428L19.6315 11.0127C19.7482 11.1278 19.8409 11.2647 19.9042 11.4156C19.9675 11.5664 20 11.7283 20 11.8917C20 12.0551 19.9675 12.2169 19.9042 12.3678C19.8409 12.5187 19.7482 12.6556 19.6315 12.7707L11.9075 20.496Z" stroke="#222222" stroke-linecap="round" stroke-linejoin="round"/>
<path opacity="0.4" d="M4.3279 9.06925C3.8907 8.99366 3.8907 8.36998 4.32789 8.29439C5.91177 8.02055 7.17152 6.82169 7.51531 5.26102L7.54166 5.14139C7.63624 4.712 8.25149 4.70933 8.34984 5.13788L8.38184 5.27729C8.73835 6.8306 9.99844 8.01934 11.5779 8.29241C12.0173 8.36838 12.0173 8.99526 11.5779 9.07122C9.99844 9.3443 8.73835 10.533 8.38184 12.0863L8.34984 12.2258C8.25149 12.6543 7.63624 12.6516 7.54166 12.2222L7.51531 12.1026C7.17152 10.5419 5.91177 9.34308 4.3279 9.06925Z" stroke="#222222" stroke-linecap="round" stroke-linejoin="round"/>
</svg>
