<svg width="24" height="25" viewBox="0 0 24 25" fill="none" xmlns="http://www.w3.org/2000/svg">
<path d="M9.96021 12.4239L12.4262 14.1304C12.6474 14.2602 12.9261 14.3313 13.2139 14.3313C13.5017 14.3313 13.7805 14.2602 14.0016 14.1304L21.2139 9.79288" stroke="#222222" stroke-linecap="round" stroke-linejoin="round"/>
<path opacity="0.4" d="M3.11392 9.6442C2.67687 9.56811 2.67687 8.94067 3.11392 8.8647C4.69727 8.58921 5.95661 7.38321 6.30028 5.81325L6.32662 5.6929C6.42118 5.26096 7.03625 5.25827 7.13451 5.68938L7.16652 5.82962C7.52295 7.39216 8.78255 8.58799 10.3616 8.86271C10.8008 8.93905 10.8008 9.56972 10.3616 9.64607C8.78255 9.9208 7.52295 11.1166 7.16652 12.6792L7.13451 12.8195C7.03625 13.2505 6.42118 13.2479 6.32662 12.8159L6.30028 12.6956C5.95661 11.1256 4.69727 9.91956 3.11392 9.6442Z" stroke="#222222" stroke-linecap="round" stroke-linejoin="round"/>
<path d="M13.214 8.20926H20.1897C20.742 8.20926 21.1897 8.65697 21.1897 9.20926V19.2683C21.1897 19.8206 20.742 20.2683 20.1897 20.2683H6.17749C5.62521 20.2683 5.17749 19.8206 5.17749 19.2683V15.3179" stroke="#222222" stroke-linecap="round" stroke-linejoin="round"/>
</svg>
