<svg width="24" height="25" viewBox="0 0 24 25" fill="none" xmlns="http://www.w3.org/2000/svg">
<path d="M10.5 14.2345H15.8333" stroke="#222222" stroke-linecap="round" stroke-linejoin="round"/>
<path d="M10.5 16.9012H15.8333" stroke="#222222" stroke-linecap="round" stroke-linejoin="round"/>
<path d="M13.1543 5.56787C13.1543 5.56787 13.9356 5.56787 14.5858 5.56787C14.851 5.56787 15.1054 5.67323 15.2929 5.86076L19.2071 9.77498C19.3946 9.96251 19.5 10.2169 19.5 10.4821V20.0679C19.5 20.6202 19.0523 21.0679 18.5 21.0679H7.5C6.94772 21.0679 6.5 20.6202 6.5 20.0679V14.5679" stroke="#222222" stroke-linecap="round" stroke-linejoin="round"/>
<path opacity="0.4" d="M4.82779 8.84458C4.39074 8.76848 4.39074 8.14105 4.82779 8.06508C6.41114 7.78959 7.67048 6.58359 8.01414 5.01362L8.04048 4.89328C8.13505 4.46134 8.75011 4.45865 8.84838 4.88976L8.88038 5.03C9.23682 6.59254 10.4964 7.78836 12.0755 8.06309C12.5147 8.13943 12.5147 8.7701 12.0755 8.84644C10.4964 9.12118 9.23682 10.317 8.88038 11.8796L8.84838 12.0199C8.75011 12.4509 8.13505 12.4483 8.04048 12.0162L8.01414 11.8959C7.67048 10.326 6.41114 9.11994 4.82779 8.84458Z" stroke="#222222" stroke-linecap="round" stroke-linejoin="round"/>
</svg>
