<svg width="24" height="25" viewBox="0 0 24 25" fill="none" xmlns="http://www.w3.org/2000/svg">
<path d="M10.264 14.012C10.7407 14.5526 11.321 14.997 11.9739 15.3177V17.1638C11.9739 17.327 12.0389 17.4836 12.1547 17.5989C12.2705 17.7144 12.4275 17.7792 12.5913 17.7792H16.2957C16.4594 17.7792 16.6165 17.7144 16.7323 17.5989C16.8481 17.4836 16.9131 17.327 16.9131 17.1638V15.3177C17.8016 14.8782 18.5559 14.2098 19.0977 13.3817C19.6395 12.5536 19.9491 11.596 19.9942 10.6085C20.0394 9.62085 19.8185 8.63921 19.3545 7.76543C18.8905 6.89166 18.2003 6.15759 17.3556 5.63946C16.5108 5.12132 15.5424 4.838 14.5507 4.8189C13.7233 4.80297 12.905 4.97143 12.1547 5.30947" stroke="#222222" stroke-linecap="round" stroke-linejoin="round"/>
<path d="M16.9131 20.8179H11.9738" stroke="#222222" stroke-linecap="round" stroke-linejoin="round"/>
<path opacity="0.4" d="M11.5126 9.04427C11.946 8.96913 11.946 8.3491 11.5126 8.27396C9.94277 8.00174 8.69414 6.80991 8.35339 5.25839L8.32726 5.13946C8.23356 4.71259 7.62369 4.70993 7.52626 5.13597L7.49453 5.27457C7.14112 6.81876 5.89223 8.00053 4.32661 8.27199C3.89109 8.34752 3.89109 8.97071 4.32661 9.04623C5.89223 9.3177 7.14112 10.4995 7.49453 12.0437L7.52626 12.1823C7.62369 12.6083 8.23356 12.6056 8.32726 12.1788L8.35339 12.0598C8.69414 10.5083 9.94277 9.31649 11.5126 9.04427Z" stroke="#222222" stroke-linecap="round" stroke-linejoin="round"/>
</svg>
