<svg width="24" height="25" viewBox="0 0 24 25" fill="none" xmlns="http://www.w3.org/2000/svg">
<path d="M9.97815 15.3782C10.5552 15.9552 11.3378 16.2794 12.1539 16.2794C12.9699 16.2794 13.7525 15.9552 14.3296 15.3782C14.9066 14.8012 15.2308 14.0185 15.2308 13.2025V8.89479C15.2308 8.07874 14.9066 7.29611 14.3296 6.71908C13.7525 6.14205 12.9699 5.81787 12.1539 5.81787" stroke="#222222" stroke-linecap="round" stroke-linejoin="round"/>
<path d="M18.3077 13.8179C18.3093 14.5456 18.1672 15.2666 17.8895 15.9393C17.6117 16.612 17.2038 17.2232 16.6891 17.7377C16.1746 18.2523 15.5634 18.6603 14.8907 18.938C14.218 19.2158 13.4971 19.3579 12.7693 19.3563H11.5385C10.8107 19.3579 10.0898 19.2158 9.41712 18.938C8.74443 18.6603 8.13323 18.2523 7.61861 17.7377C7.10398 17.2232 6.69609 16.612 6.41833 15.9393" stroke="#222222" stroke-linecap="round" stroke-linejoin="round"/>
<path d="M12.1538 19.3564V21.818" stroke="#222222" stroke-linecap="round" stroke-linejoin="round"/>
<path opacity="0.4" d="M3.32779 9.09458C2.89074 9.01848 2.89074 8.39105 3.32779 8.31508C4.91114 8.03959 6.17048 6.83359 6.51414 5.26362L6.54048 5.14328C6.63505 4.71134 7.25011 4.70865 7.34838 5.13976L7.38038 5.28C7.73682 6.84254 8.99641 8.03836 10.5755 8.31309C11.0147 8.38943 11.0147 9.0201 10.5755 9.09644C8.99641 9.37118 7.73682 10.567 7.38038 12.1296L7.34838 12.2699C7.25011 12.7009 6.63505 12.6983 6.54048 12.2662L6.51414 12.1459C6.17048 10.576 4.91114 9.36994 3.32779 9.09458Z" stroke="#222222" stroke-linecap="round" stroke-linejoin="round"/>
</svg>
