<svg width="24" height="25" viewBox="0 0 24 25" fill="none" xmlns="http://www.w3.org/2000/svg">
<path d="M5.53845 20.8179L14.5231 12.3501C14.6336 12.258 14.773 12.2076 14.9169 12.2076C15.0608 12.2076 15.2002 12.258 15.3107 12.3501L20 15.7101" stroke="#222222" stroke-width="0.8" stroke-linecap="round" stroke-linejoin="round"/>
<path d="M4.19409 17.7427L7.73939 14.1974C7.79624 14.15 7.8679 14.1241 7.9419 14.1241C8.01589 14.1241 8.08755 14.15 8.14441 14.1974L10.5556 15.9251" stroke="#222222" stroke-width="0.8" stroke-linecap="round" stroke-linejoin="round"/>
<path d="M11.5 4.81787H19C19.5523 4.81787 20 5.26559 20 5.81787V19.8179C20 20.3702 19.5523 20.8179 19 20.8179H5C4.44772 20.8179 4 20.3702 4 19.8179V12.3179" stroke="#222222" stroke-linecap="round" stroke-linejoin="round"/>
<path opacity="0.4" d="M3.75015 8.54618C3.3131 8.47008 3.3131 7.84265 3.75015 7.76668C5.3335 7.49118 6.59284 6.28519 6.93651 4.71522L6.96285 4.59488C7.05741 4.16294 7.67248 4.16025 7.77074 4.59136L7.80275 4.7316C8.15918 6.29414 9.41878 7.48996 10.9978 7.76469C11.4371 7.84103 11.4371 8.4717 10.9978 8.54804C9.41878 8.82278 8.15918 10.0186 7.80275 11.5812L7.77074 11.7214C7.67248 12.1525 7.05741 12.1499 6.96285 11.7178L6.93651 11.5975C6.59284 10.0276 5.3335 8.82153 3.75015 8.54618Z" stroke="#222222" stroke-linecap="round" stroke-linejoin="round"/>
</svg>
