<svg width="24" height="25" viewBox="0 0 24 25" fill="none" xmlns="http://www.w3.org/2000/svg">
<path d="M12 8.81787H14.4615C14.788 8.81787 15.101 8.94754 15.3318 9.17835C15.5626 9.40917 15.6923 9.72221 15.6923 10.0486V11.8948L19.1631 10.3563C19.2566 10.3202 19.3576 10.3075 19.4572 10.3194C19.5568 10.3312 19.652 10.3672 19.7345 10.4242C19.817 10.4812 19.8843 10.5576 19.9306 10.6466C19.9768 10.7355 20.0007 10.8345 20 10.9348V17.7779C20.0007 17.8782 19.9768 17.9771 19.9306 18.0661C19.8843 18.1551 19.817 18.2314 19.7345 18.2884C19.652 18.3455 19.5568 18.3814 19.4572 18.3932C19.3576 18.4052 19.2566 18.3924 19.1631 18.3563L15.6923 16.8179V18.664C15.6923 18.9904 15.5626 19.3035 15.3318 19.5343C15.101 19.7651 14.788 19.8948 14.4615 19.8948H5.23077C4.90434 19.8948 4.5913 19.7651 4.36048 19.5343C4.12967 19.3035 4 18.9904 4 18.664V15.8179" stroke="#222222" stroke-linecap="round" stroke-linejoin="round"/>
<path opacity="0.4" d="M3.32779 11.0946C2.89074 11.0185 2.89074 10.3911 3.32779 10.3151C4.91114 10.0396 6.17048 8.83359 6.51414 7.26362L6.54048 7.14328C6.63505 6.71134 7.25011 6.70865 7.34838 7.13976L7.38038 7.28C7.73682 8.84254 8.99641 10.0384 10.5755 10.3131C11.0147 10.3894 11.0147 11.0201 10.5755 11.0964C8.99641 11.3712 7.73682 12.567 7.38038 14.1296L7.34838 14.2699C7.25011 14.7009 6.63505 14.6983 6.54048 14.2662L6.51414 14.1459C6.17048 12.576 4.91114 11.3699 3.32779 11.0946Z" stroke="#222222" stroke-linecap="round" stroke-linejoin="round"/>
</svg>
