<svg width="25" height="25" viewBox="0 0 25 25" fill="none" xmlns="http://www.w3.org/2000/svg">
<path d="M13.8196 9.24231L17.7155 15.9901C17.7504 16.0504 17.7706 16.1181 17.7747 16.1877C17.7788 16.2574 17.7666 16.3271 17.739 16.3915C17.7115 16.4559 17.6693 16.5131 17.6159 16.5587C17.5624 16.6043 17.4992 16.6369 17.4311 16.6541L7.34866 19.1451C7.2531 19.1693 7.15249 19.1618 7.06205 19.1238C6.97161 19.0858 6.89628 19.0194 6.84748 18.9347L5.83557 17.182C5.78658 17.0974 5.76675 16.9989 5.77908 16.9016C5.7914 16.8043 5.83522 16.7134 5.90388 16.6427L13.1024 9.15655C13.1513 9.10619 13.2112 9.06775 13.2774 9.04426C13.3436 9.02077 13.4142 9.01287 13.4838 9.02118C13.5533 9.0295 13.6199 9.0538 13.6781 9.09218C13.7364 9.13055 13.7848 9.18195 13.8196 9.24231Z" stroke="#222222" stroke-linecap="round" stroke-linejoin="round"/>
<path opacity="0.4" d="M9.92005 19.2648L10.3315 20.1095C10.4809 20.4129 10.7371 20.6405 11.0436 20.7423C11.3501 20.844 11.682 20.8117 11.9661 20.6523C12.2502 20.4929 12.4633 20.2196 12.5585 19.8923C12.6538 19.5652 12.4153 19.2158 12.2659 18.9125L9.40356 13.3875" stroke="#222222" stroke-linecap="round" stroke-linejoin="round"/>
<path d="M12.1945 6.39827V4.83545" stroke="#222222" stroke-linecap="round" stroke-linejoin="round"/>
<path d="M18.8168 12.3862H20.3859" stroke="#222222" stroke-linecap="round" stroke-linejoin="round"/>
<path d="M4.61414 12.3862H6.18328" stroke="#222222" stroke-linecap="round" stroke-linejoin="round"/>
<path d="M5.77551 6.83545L6.88508 7.94054" stroke="#222222" stroke-linecap="round" stroke-linejoin="round"/>
<path d="M17.0613 8.19713L18.1708 7.09204" stroke="#222222" stroke-linecap="round" stroke-linejoin="round"/>
</svg>
