<svg width="25" height="25" viewBox="0 0 25 25" fill="none" xmlns="http://www.w3.org/2000/svg">
<path d="M15.3462 19.958C15.3462 20.6603 14.5058 21.0218 13.996 20.5387L10.9733 17.6751C10.6647 17.3828 10.1814 17.3828 9.87288 17.6751L6.8502 20.5387C6.34032 21.0218 5.5 20.6603 5.5 19.958V7.82597C5.5 7.51672 5.62967 7.22015 5.86048 7.00148C6.0913 6.78282 6.40434 6.65997 6.73077 6.65997H14.1154C14.4418 6.65997 14.7549 6.78282 14.9857 7.00148C15.2164 7.22015 15.3462 7.51672 15.3462 7.82597V19.958Z" stroke="#222222" stroke-linecap="round" stroke-linejoin="round"/>
<path opacity="0.4" d="M10.1666 4.49682C10.1666 4.31675 10.2369 4.14406 10.3619 4.01673C10.4869 3.8894 10.6565 3.81787 10.8333 3.81787H18.8333C19.0101 3.81787 19.1797 3.8894 19.3047 4.01673C19.4297 4.14406 19.5 4.31675 19.5 4.49682V15.9246C19.5 16.559 18.797 16.941 18.2647 16.5959L17.2858 15.9611" stroke="#222222" stroke-linecap="round" stroke-linejoin="round"/>
</svg>
