<svg width="25" height="25" viewBox="0 0 25 25" fill="none" xmlns="http://www.w3.org/2000/svg">
<path d="M16.9923 18.5428L20.5 13.3179L16.9923 8.0929C16.9366 8.00769 16.8602 7.93782 16.7701 7.88975C16.68 7.84168 16.5792 7.81696 16.4769 7.8179H5.11538C4.95217 7.8179 4.79565 7.88228 4.68024 7.99689C4.56484 8.11149 4.5 8.26693 4.5 8.429V18.2067C4.5 18.3688 4.56484 18.5243 4.68024 18.6389C4.79565 18.7535 4.95217 18.8178 5.11538 18.8178H16.4769C16.5792 18.8188 16.68 18.7941 16.7701 18.746C16.8602 18.6979 16.9366 18.628 16.9923 18.5428V18.5428Z" stroke="#222222" stroke-linecap="round" stroke-linejoin="round"/>
<circle opacity="0.4" cx="16" cy="13.3179" r="0.5" stroke="#222222"/>
</svg>
