<svg width="25" height="25" viewBox="0 0 25 25" fill="none" xmlns="http://www.w3.org/2000/svg">
<path opacity="0.4" d="M9.42358 20.8179H15.5767" stroke="#222222" stroke-linecap="round" stroke-linejoin="round"/>
<path d="M8.70826 15.8184C7.97572 15.2488 7.38243 14.5199 6.97332 13.6871C6.56421 12.8542 6.35003 11.9391 6.34699 11.0112C6.33161 7.67312 9.01592 4.89651 12.354 4.8196C13.6459 4.78897 14.9147 5.16587 15.9803 5.89684C17.046 6.6278 17.8545 7.67573 18.2911 8.892C18.7277 10.1083 18.7704 11.4311 18.4129 12.673C18.0555 13.9148 17.3161 15.0126 16.2997 15.8107C16.0752 15.9842 15.8933 16.2068 15.768 16.4614C15.6427 16.7161 15.5773 16.996 15.5767 17.2797V17.7412C15.5767 17.9044 15.5119 18.0609 15.3965 18.1763C15.2811 18.2917 15.1246 18.3565 14.9614 18.3565H10.0389C9.87569 18.3565 9.71918 18.2917 9.60379 18.1763C9.48839 18.0609 9.42357 17.9044 9.42357 17.7412V17.2797C9.42164 16.9981 9.35634 16.7205 9.23252 16.4675C9.10869 16.2145 8.92951 15.9927 8.70826 15.8184V15.8184Z" stroke="#222222" stroke-linecap="round" stroke-linejoin="round"/>
</svg>
