<svg width="25" height="25" viewBox="0 0 25 25" fill="none" xmlns="http://www.w3.org/2000/svg">
<path d="M20.5 6.47969V17.9336C20.5001 18.036 20.4762 18.1371 20.4302 18.2287C20.3843 18.3204 20.3174 18.4003 20.235 18.462C20.1526 18.5237 20.0568 18.5655 19.9553 18.5843C19.8538 18.603 19.7493 18.5981 19.65 18.5699L4.98333 14.3305C4.84396 14.291 4.72138 14.2075 4.63417 14.0926C4.54695 13.9778 4.49985 13.8379 4.5 13.6942V10.7191C4.49985 10.5754 4.54695 10.4355 4.63417 10.3207C4.72138 10.2058 4.84396 10.1223 4.98333 10.0828L19.65 5.84336C19.7493 5.8152 19.8538 5.8103 19.9553 5.82903C20.0568 5.84777 20.1526 5.88964 20.235 5.95134C20.3174 6.01304 20.3843 6.09288 20.4302 6.18457C20.4762 6.27626 20.5001 6.37729 20.5 6.47969Z" stroke="#222222" stroke-linecap="round" stroke-linejoin="round"/>
<path opacity="0.4" d="M8.1271 15.6784L8.07166 16.9842C8.05383 17.4543 8.22382 17.913 8.54425 18.2592C8.86475 18.6053 9.30933 18.8108 9.78033 18.8303C10.2513 18.8498 10.71 18.6818 11.0557 18.3631C11.4013 18.0445 11.3373 17.4543 11.3552 16.9842L11.5 8.31787" stroke="#222222" stroke-linecap="round" stroke-linejoin="round"/>
</svg>
