<svg width="25" height="25" viewBox="0 0 25 25" fill="none" xmlns="http://www.w3.org/2000/svg">
<path d="M13.1212 5.19544L15.0827 9.06681C15.1274 9.16508 15.1975 9.25019 15.2863 9.31368C15.375 9.37715 15.4793 9.41679 15.5885 9.42862L19.9187 10.0558C20.0442 10.0715 20.1624 10.1218 20.2596 10.2008C20.3568 10.2798 20.4291 10.3842 20.4678 10.5018C20.5067 10.6194 20.5104 10.7454 20.4787 10.865C20.4471 10.9846 20.3812 11.093 20.2888 11.1774L17.1676 14.2045C17.088 14.2773 17.0282 14.3684 16.9938 14.4695C16.9592 14.5706 16.9512 14.6785 16.9702 14.7834L17.7228 19.0407C17.7446 19.1631 17.7308 19.2889 17.683 19.4039C17.6353 19.519 17.5555 19.6186 17.4526 19.6916C17.3498 19.7644 17.2281 19.8076 17.1014 19.8163C16.9747 19.8249 16.848 19.7986 16.7358 19.7402L12.8374 17.7261C12.7376 17.6782 12.6279 17.6534 12.5167 17.6534C12.4055 17.6534 12.2958 17.6782 12.1959 17.7261L8.29751 19.7402C8.18535 19.7986 8.05872 19.8249 7.932 19.8163C7.80529 19.8076 7.68359 19.7644 7.58076 19.6916C7.47792 19.6186 7.39808 19.519 7.35031 19.4039C7.30256 19.2889 7.28878 19.1631 7.31056 19.0407L8.06311 14.7352C8.08218 14.6303 8.07411 14.5223 8.03964 14.4212C8.00517 14.3201 7.94538 14.229 7.86572 14.1563L4.70751 11.1774C4.61407 11.0907 4.54836 10.9793 4.51834 10.8568C4.48832 10.7344 4.49527 10.606 4.53835 10.4873C4.58144 10.3686 4.65881 10.2646 4.76109 10.1881C4.86337 10.1115 4.98617 10.0655 5.11462 10.0558L9.44483 9.42862C9.55413 9.41679 9.65835 9.37715 9.7471 9.31368C9.83585 9.25019 9.90603 9.16508 9.95064 9.06681L11.9122 5.19544C11.9656 5.08268 12.0509 4.98722 12.158 4.92032C12.2651 4.85342 12.3896 4.81787 12.5167 4.81787C12.6438 4.81787 12.7683 4.85342 12.8754 4.92032C12.9825 4.98722 13.0678 5.08268 13.1212 5.19544Z" stroke="#222222" stroke-linecap="round" stroke-linejoin="round"/>
</svg>
