<svg width="25" height="25" viewBox="0 0 25 25" fill="none" xmlns="http://www.w3.org/2000/svg">
<path opacity="0.4" d="M12.3784 13.6311C14.0778 13.6311 15.4554 12.2536 15.4554 10.5542C15.4554 8.85488 14.0778 7.47729 12.3784 7.47729C10.6791 7.47729 9.30151 8.85488 9.30151 10.5542C9.30151 12.2536 10.6791 13.6311 12.3784 13.6311Z" stroke="#222222" stroke-linecap="round" stroke-linejoin="round"/>
<path opacity="0.4" d="M7.12305 18.4312C7.67227 17.5297 8.44417 16.7846 9.36454 16.2676C10.2849 15.7506 11.3228 15.479 12.3784 15.479C13.4341 15.479 14.472 15.7506 15.3923 16.2676C16.3127 16.7846 17.0845 17.5297 17.6338 18.4312" stroke="#222222" stroke-linecap="round" stroke-linejoin="round"/>
<path d="M12.3784 20.4004C16.7968 20.4004 20.3784 16.8187 20.3784 12.4004C20.3784 7.98211 16.7968 4.40039 12.3784 4.40039C7.96014 4.40039 4.37842 7.98211 4.37842 12.4004C4.37842 16.8187 7.96014 20.4004 12.3784 20.4004Z" stroke="#222222" stroke-linecap="round" stroke-linejoin="round"/>
</svg>
