<svg width="25" height="25" viewBox="0 0 25 25" fill="none" xmlns="http://www.w3.org/2000/svg">
<path d="M9.91689 11.1697C11.6162 11.1697 12.9938 9.79213 12.9938 8.09279C12.9938 6.39346 11.6162 5.01587 9.91689 5.01587C8.21755 5.01587 6.83997 6.39346 6.83997 8.09279C6.83997 9.79213 8.21755 11.1697 9.91689 11.1697Z" stroke="#222222" stroke-linecap="round" stroke-linejoin="round"/>
<path d="M12.763 19.7851H4.37842V19.1179C4.38822 18.1798 4.63562 17.2595 5.09752 16.443C5.55943 15.6264 6.22076 14.9402 7.01974 14.4485C7.81873 13.9568 8.7293 13.6757 9.66639 13.6313C10.6035 13.587 11.5366 13.7808 12.3784 14.1948" stroke="#222222" stroke-linecap="round" stroke-linejoin="round"/>
<path opacity="0.4" d="M16.3784 15.7852L20.3784 19.7852M20.3784 15.7852L16.3784 19.7852" stroke="#222222" stroke-width="0.8" stroke-linecap="round" stroke-linejoin="round"/>
</svg>
