<svg width="25" height="25" viewBox="0 0 25 25" fill="none" xmlns="http://www.w3.org/2000/svg">
<path d="M10.1668 11.1695C11.8661 11.1695 13.2437 9.79188 13.2437 8.09255C13.2437 6.39321 11.8661 5.01562 10.1668 5.01562C8.46743 5.01562 7.08984 6.39321 7.08984 8.09255C7.08984 9.79188 8.46743 11.1695 10.1668 11.1695Z" stroke="#222222" stroke-linecap="round" stroke-linejoin="round"/>
<path d="M13.013 19.785H4.62842V19.1178C4.63822 18.1797 4.88562 17.2593 5.34752 16.4428C5.80943 15.6263 6.47076 14.9401 7.26974 14.4484C8.06873 13.9567 8.9793 13.6756 9.91639 13.6312C10.8535 13.5868 11.7866 13.7807 12.6284 14.1947" stroke="#222222" stroke-linecap="round" stroke-linejoin="round"/>
<path opacity="0.4" d="M18.0284 15.8263C18.0284 15.6054 17.8493 15.4263 17.6284 15.4263C17.4075 15.4263 17.2284 15.6054 17.2284 15.8263H18.0284ZM17.6284 17.2847H17.2284C17.2284 17.5056 17.4075 17.6847 17.6284 17.6847V17.2847ZM19.0868 17.6847C19.3077 17.6847 19.4868 17.5056 19.4868 17.2847C19.4868 17.0638 19.3077 16.8847 19.0868 16.8847V17.6847ZM19.7284 17.2847C19.7284 18.4445 18.7882 19.3847 17.6284 19.3847V20.1847C19.23 20.1847 20.5284 18.8863 20.5284 17.2847H19.7284ZM17.6284 19.3847C16.4686 19.3847 15.5284 18.4445 15.5284 17.2847H14.7284C14.7284 18.8863 16.0268 20.1847 17.6284 20.1847V19.3847ZM15.5284 17.2847C15.5284 16.1249 16.4686 15.1847 17.6284 15.1847V14.3847C16.0268 14.3847 14.7284 15.683 14.7284 17.2847H15.5284ZM17.6284 15.1847C18.7882 15.1847 19.7284 16.1249 19.7284 17.2847H20.5284C20.5284 15.683 19.23 14.3847 17.6284 14.3847V15.1847ZM17.2284 15.8263V17.2847H18.0284V15.8263H17.2284ZM17.6284 17.6847H19.0868V16.8847H17.6284V17.6847Z" fill="#222222"/>
</svg>
