<svg width="25" height="25" viewBox="0 0 25 25" fill="none" xmlns="http://www.w3.org/2000/svg">
<path d="M9.79189 10.8042C11.4912 10.8042 12.8688 9.42665 12.8688 7.72731C12.8688 6.02798 11.4912 4.65039 9.79189 4.65039C8.09255 4.65039 6.71497 6.02798 6.71497 7.72731C6.71497 9.42665 8.09255 10.8042 9.79189 10.8042Z" stroke="#222222" stroke-linecap="round" stroke-linejoin="round"/>
<path d="M12.638 19.4197H4.25342V18.7525C4.26322 17.8144 4.51062 16.894 4.97252 16.0775C5.43443 15.2609 6.09576 14.5747 6.89474 14.083C7.69373 13.5914 8.6043 13.3102 9.54139 13.2659C10.4785 13.2215 11.4116 13.4154 12.2534 13.8294" stroke="#222222" stroke-linecap="round" stroke-linejoin="round"/>
<path opacity="0.4" d="M14.0034 18.1504L15.4967 19.9923C15.534 20.0408 15.5818 20.0803 15.6366 20.1077C15.6913 20.135 15.7516 20.1496 15.8128 20.1504C15.873 20.1511 15.9326 20.1383 15.9873 20.1131C16.0419 20.0879 16.0903 20.0508 16.1288 20.0045L20.5034 15.1504" stroke="#222222" stroke-width="0.8" stroke-linecap="round" stroke-linejoin="round"/>
</svg>
