<svg width="25" height="25" viewBox="0 0 25 25" fill="none" xmlns="http://www.w3.org/2000/svg">
<path d="M9.91689 10.5542C11.6162 10.5542 12.9938 9.17665 12.9938 7.47731C12.9938 5.77798 11.6162 4.40039 9.91689 4.40039C8.21755 4.40039 6.83997 5.77798 6.83997 7.47731C6.83997 9.17665 8.21755 10.5542 9.91689 10.5542Z" stroke="#222222" stroke-linecap="round" stroke-linejoin="round"/>
<path d="M12.763 19.1697H4.37842V18.5025C4.38822 17.5644 4.63562 16.644 5.09752 15.8275C5.55943 15.0109 6.22076 14.3247 7.01974 13.833C7.81873 13.3414 8.7293 13.0602 9.66639 13.0159C10.6035 12.9715 11.5366 13.1654 12.3784 13.5794" stroke="#222222" stroke-linecap="round" stroke-linejoin="round"/>
<path opacity="0.4" d="M17.3784 13.4004V19.4004M14.3784 16.4004H20.3784" stroke="#222222" stroke-linecap="round" stroke-linejoin="round"/>
</svg>
