<svg width="25" height="25" viewBox="0 0 25 25" fill="none" xmlns="http://www.w3.org/2000/svg">
<path opacity="0.4" d="M12.3784 11.0671C14.2193 11.0671 15.7117 9.57467 15.7117 7.73372C15.7117 5.89278 14.2193 4.40039 12.3784 4.40039C10.5374 4.40039 9.04504 5.89278 9.04504 7.73372C9.04504 9.57467 10.5374 11.0671 12.3784 11.0671Z" stroke="#222222" stroke-linecap="round" stroke-linejoin="round"/>
<path d="M6.37842 20.4004H12.3784H18.3784V19.6776C18.3678 18.6613 18.0998 17.6643 17.5994 16.7797C17.099 15.8951 16.3826 15.1517 15.517 14.6191C14.6514 14.0864 13.665 13.7818 12.6498 13.7338C12.5593 13.7295 12.4688 13.7272 12.3784 13.7271C12.288 13.7272 12.1976 13.7295 12.1071 13.7338C11.0919 13.7818 10.1054 14.0864 9.23984 14.6191C8.37428 15.1517 7.65784 15.8951 7.15744 16.7797C6.65705 17.6643 6.38903 18.6613 6.37842 19.6776V20.4004Z" stroke="#222222" stroke-linecap="round" stroke-linejoin="round"/>
</svg>
