<svg width="25" height="25" viewBox="0 0 25 25" fill="none" xmlns="http://www.w3.org/2000/svg">
<path d="M9.91689 10.6503C11.6162 10.6503 12.9938 9.25124 12.9938 7.52536C12.9938 5.79949 11.6162 4.40039 9.91689 4.40039C8.21755 4.40039 6.83997 5.79949 6.83997 7.52536C6.83997 9.25124 8.21755 10.6503 9.91689 10.6503Z" stroke="#222222" stroke-linecap="round" stroke-linejoin="round"/>
<path d="M4.37842 19.4002H9.91688H15.4553V18.7226C15.4455 17.7699 15.1981 16.8351 14.7362 16.0059C14.2743 15.1765 13.613 14.4797 12.814 13.9803C12.015 13.4809 11.1045 13.1954 10.1674 13.1503C10.0838 13.1463 10.0003 13.1442 9.91688 13.144C9.83346 13.1442 9.74994 13.1463 9.66639 13.1503C8.7293 13.1954 7.81873 13.4809 7.01973 13.9803C6.22076 14.4797 5.55943 15.1765 5.09752 16.0059C4.63562 16.8351 4.38822 17.7699 4.37842 18.7226V19.4002Z" stroke="#222222" stroke-linecap="round" stroke-linejoin="round"/>
<path opacity="0.4" d="M14.84 10.6503C16.5393 10.6503 17.9169 9.25124 17.9169 7.52536C17.9169 5.79949 16.5393 4.40039 14.84 4.40039" stroke="#222222" stroke-linecap="round" stroke-linejoin="round"/>
<path opacity="0.4" d="M17.9168 19.4004H20.3784V18.7227C20.3685 17.7699 20.1211 16.8352 19.6592 16.006C19.1973 15.1766 18.536 14.4797 17.737 13.9804C17.2206 13.6576 16.6574 13.4241 16.0707 13.2872" stroke="#222222" stroke-linecap="round" stroke-linejoin="round"/>
</svg>
