<svg width="25" height="25" viewBox="0 0 25 25" fill="none" xmlns="http://www.w3.org/2000/svg">
<path d="M12.3784 11.255C13.9354 11.255 15.1976 9.97311 15.1976 8.3918C15.1976 6.81048 13.9354 5.52856 12.3784 5.52856C10.8214 5.52856 9.5592 6.81048 9.5592 8.3918C9.5592 9.97311 10.8214 11.255 12.3784 11.255Z" stroke="#222222" stroke-linecap="round" stroke-linejoin="round"/>
<path d="M7.30383 19.2721H12.3784H17.453V18.6512C17.444 17.7783 17.2173 16.9219 16.7941 16.1621C16.3709 15.4022 15.7649 14.7637 15.0329 14.3061C14.3008 13.8486 13.4665 13.587 12.6079 13.5457C12.5314 13.542 12.4548 13.5401 12.3784 13.5399C12.302 13.5401 12.2254 13.542 12.1489 13.5457C11.2903 13.587 10.456 13.8486 9.72392 14.3061C8.99186 14.7637 8.38592 15.4022 7.9627 16.1621C7.53949 16.9219 7.31281 17.7783 7.30383 18.6512V19.2721Z" stroke="#222222" stroke-linecap="round" stroke-linejoin="round"/>
<path opacity="0.4" d="M15.7631 11.1149C17.1792 11.1149 18.3272 9.94899 18.3272 8.51076C18.3272 7.07253 17.1792 5.90662 15.7631 5.90662" stroke="#222222" stroke-linecap="round" stroke-linejoin="round"/>
<path opacity="0.4" d="M19.3272 18.4066H20.3784V17.8418C20.3702 17.0478 20.1641 16.2689 19.7792 15.5779C19.3942 14.8867 18.8432 14.306 18.1773 13.8899C17.747 13.6209 17.2776 13.4263 16.7887 13.3123" stroke="#222222" stroke-linecap="round" stroke-linejoin="round"/>
<path  opacity="0.4" d="M8.99841 11.1107C7.58089 11.1107 6.43175 9.94363 6.43175 8.50397C6.43175 7.0643 7.58089 5.89722 8.99841 5.89722" stroke="#222222" stroke-linecap="round" stroke-linejoin="round"/>
<path opacity="0.4"  d="M5.4318 18.4097H4.37847V17.8444C4.38668 17.0496 4.59304 16.2699 4.97835 15.5782C5.36366 14.8863 5.91529 14.3051 6.5818 13.8885C7.01259 13.6192 7.48239 13.4245 7.9718 13.3103" stroke="#222222" stroke-linecap="round" stroke-linejoin="round"/>
</svg>
