<svg width="25" height="25" viewBox="0 0 25 25" fill="none" xmlns="http://www.w3.org/2000/svg">
<path d="M7.12622 10.8929H3.6527V7.48383" stroke="#222222" stroke-linecap="round" stroke-linejoin="round"/>
<path d="M6.6051 18.6061C7.67357 19.6556 9.03519 20.3705 10.5177 20.6604C12.0002 20.9503 13.5371 20.8021 14.9338 20.2346C16.3305 19.6671 17.5243 18.7058 18.3643 17.4723C19.2042 16.2388 19.6526 14.7886 19.6526 13.3049C19.6526 11.8213 19.2042 10.371 18.3643 9.13752C17.5243 7.90402 16.3305 6.94273 14.9338 6.37525C13.5371 5.80778 12.0002 5.65961 10.5177 5.94949C9.03519 6.23938 7.67357 6.95429 6.6051 8.0038L3.65261 10.893" stroke="#222222" stroke-linecap="round" stroke-linejoin="round"/>
<path opacity="0.4" d="M10.1579 10.2857C10.2834 10.2857 10.4221 10.4244 10.4221 10.5498V15.7003C10.4221 15.8257 10.2834 15.9644 10.1579 15.9644C10.0325 15.9644 9.89382 15.8257 9.89382 15.7003V12.1544C9.67592 12.3195 9.41179 12.4185 9.13446 12.4185H9.009C8.88354 12.4185 8.74487 12.2798 8.74487 12.1544C8.74487 12.0289 8.88354 11.8903 9.009 11.8903H9.13446C9.55706 11.8903 9.89382 11.5535 9.89382 11.1309V10.5498C9.89382 10.4244 10.0325 10.2857 10.1579 10.2857Z" fill="#222222"/>
<path opacity="0.4" d="M13.5281 10.048C13.9771 10.048 14.4327 10.2395 14.743 10.5762C15.0666 10.913 15.2449 11.3818 15.2449 11.8506V14.1551C15.2449 14.6306 15.0666 15.0928 14.7496 15.4295C14.4327 15.7663 13.9771 15.9644 13.5281 15.9644C13.0724 15.9644 12.6234 15.7663 12.2999 15.4295C11.9895 15.0928 11.8046 14.6306 11.8046 14.1551V11.8506C11.8046 11.3818 11.9895 10.913 12.3065 10.5762C12.6234 10.2395 13.0724 10.048 13.5281 10.048ZM13.5281 10.5762C12.8677 10.5762 12.3329 11.1441 12.3329 11.8506V14.1551C12.3329 14.8683 12.8677 15.4361 13.5281 15.4361C14.1818 15.4361 14.7166 14.8683 14.7166 14.1551V11.8506C14.7166 11.1441 14.1818 10.5762 13.5281 10.5762Z" fill="#222222"/>
</svg>
