<svg width="25" height="25" viewBox="0 0 25 25" fill="none" xmlns="http://www.w3.org/2000/svg">
<path d="M19.6476 9.12555C19.9741 9.12555 20.2871 9.25522 20.5179 9.48603C20.7487 9.71685 20.8784 10.0299 20.8784 10.3563V17.7409C20.8784 18.0673 20.7487 18.3804 20.5179 18.6112C20.2871 18.842 19.9741 18.9717 19.6476 18.9717H9.53226" stroke="#222222" stroke-linecap="round" stroke-linejoin="round"/>
<path opacity="0.4" d="M14.5046 11.1916C14.048 10.8597 13.486 10.664 12.8784 10.664C11.349 10.664 10.1091 11.9038 10.1091 13.4332C10.1091 14.0409 10.3049 14.6029 10.6367 15.0595" stroke="#222222" stroke-linecap="round" stroke-linejoin="round"/>
<path opacity="0.4" d="M16.9224 8.7739L15.6399 7.064C15.4511 6.81219 15.1547 6.664 14.8399 6.664H10.9169C10.6021 6.664 10.3057 6.8122 10.1169 7.064L8.87072 8.72554C8.68187 8.97735 8.38548 9.12554 8.07072 9.12554H6.10918C5.78278 9.12554 5.46967 9.25521 5.23891 9.48602C5.00801 9.71684 4.87841 10.0299 4.87841 10.3563V17.7409C4.87841 18.0673 5.00801 18.3804 5.23891 18.6112C5.46967 18.842 5.78278 18.9717 6.10918 18.9717H6.72457" stroke="#222222" stroke-linecap="round" stroke-linejoin="round"/>
<path d="M15.6134 12.9963C15.636 13.1387 15.6477 13.2846 15.6477 13.4332C15.6477 14.9626 14.4079 16.2024 12.8785 16.2024C12.7298 16.2024 12.5839 16.1907 12.4416 16.1682" stroke="#222222" stroke-linecap="round" stroke-linejoin="round"/>
<path d="M4.87842 20.8179L20.8784 4.81787" stroke="#222222" stroke-linecap="round" stroke-linejoin="round"/>
</svg>
