<svg width="25" height="25" viewBox="0 0 25 25" fill="none" xmlns="http://www.w3.org/2000/svg">
<path d="M20.8784 10.4179C20.8784 10.0996 20.7487 9.79439 20.5179 9.56934C20.2872 9.3443 19.974 9.21787 19.6476 9.21787H17.6785C17.368 9.21787 17.0752 9.07367 16.8859 8.82758L15.6402 7.20816C15.4509 6.96208 15.158 6.81787 14.8476 6.81787H10.9093C10.5988 6.81787 10.306 6.96208 10.1167 7.20816L8.87095 8.82758C8.68165 9.07367 8.38879 9.21787 8.07832 9.21787H6.10919C5.78276 9.21787 5.46972 9.3443 5.2389 9.56934C5.00809 9.79439 4.87842 10.0996 4.87842 10.4179V17.6179C4.87842 17.9361 5.00809 18.2414 5.2389 18.4664C5.46972 18.6914 5.78276 18.8179 6.10919 18.8179H19.6476C19.974 18.8179 20.2872 18.6914 20.5179 18.4664C20.7487 18.2414 20.8784 17.9361 20.8784 17.6179V10.4179Z" stroke="#222222" stroke-linecap="round" stroke-linejoin="round"/>
<path opacity="0.4" d="M12.8784 16.1179C14.4078 16.1179 15.6476 14.9091 15.6476 13.4179C15.6476 11.9267 14.4078 10.7179 12.8784 10.7179C11.349 10.7179 10.1091 11.9267 10.1091 13.4179C10.1091 14.9091 11.349 16.1179 12.8784 16.1179Z" stroke="#222222" stroke-linecap="round" stroke-linejoin="round"/>
</svg>
