<svg width="25" height="25" viewBox="0 0 25 25" fill="none" xmlns="http://www.w3.org/2000/svg">
<path d="M16.42 12.2025C16.42 13.0185 16.0958 13.8012 15.5188 14.3782C14.9417 14.9552 14.1591 15.2794 13.343 15.2794C12.527 15.2794 11.7444 14.9552 11.1673 14.3782C10.5903 13.8012 10.2661 13.0185 10.2661 12.2025V7.89479C10.2661 7.07874 10.5903 6.29611 11.1673 5.71908C11.7444 5.14205 12.527 4.81787 13.343 4.81787C14.1591 4.81787 14.9417 5.14205 15.5188 5.71908C16.0958 6.29611 16.42 7.07874 16.42 7.89479V12.2025Z" stroke="#222222" stroke-linecap="round" stroke-linejoin="round"/>
<path opacity="0.4" d="M19.4969 12.8179C19.4985 13.5456 19.3563 14.2666 19.0787 14.9393C18.8009 15.612 18.393 16.2232 17.8783 16.7377C17.3637 17.2523 16.7525 17.6603 16.0798 17.938C15.4072 18.2158 14.6862 18.3579 13.9585 18.3563H12.7277C11.9999 18.3579 11.279 18.2158 10.6063 17.938C9.9336 17.6603 9.3224 17.2523 8.80778 16.7377C8.29316 16.2232 7.88527 15.612 7.60751 14.9393C7.32975 14.2666 7.1876 13.5456 7.18922 12.8179M13.3431 18.3563V20.8179" stroke="#222222" stroke-linecap="round" stroke-linejoin="round"/>
</svg>
