<svg width="25" height="25" viewBox="0 0 25 25" fill="none" xmlns="http://www.w3.org/2000/svg">
<path d="M4.87842 20.8179L20.8784 4.81787" stroke="#222222" stroke-linecap="round" stroke-linejoin="round"/>
<path opacity="0.4" d="M11.0322 14.664C10.6494 14.3781 10.3387 14.0066 10.125 13.5792C9.91131 13.1518 9.80052 12.6803 9.80148 12.2025V7.89479C9.80148 7.07875 10.1256 6.29611 10.7027 5.71908C11.2797 5.14205 12.0623 4.81787 12.8784 4.81787C13.6944 4.81787 14.4771 5.14205 15.0541 5.71908C15.6311 6.29611 15.9553 7.07875 15.9553 7.89479V9.74095" stroke="#222222" stroke-linecap="round" stroke-linejoin="round"/>
<path d="M15.6724 13.4825C15.358 14.17 14.8016 14.7176 14.1093 15.021" stroke="#222222" stroke-linecap="round" stroke-linejoin="round"/>
<path opacity="0.4" d="M8.66919 17.0271C8.05762 16.5099 7.56654 15.865 7.23067 15.1379C6.89467 14.4107 6.72199 13.6189 6.72457 12.8179" stroke="#222222" stroke-linecap="round" stroke-linejoin="round"/>
<path d="M19.0322 12.8179C19.0338 13.5456 18.8917 14.2666 18.6139 14.9393C18.3362 15.612 17.9283 16.2232 17.4137 16.7377C16.899 17.2523 16.2878 17.6603 15.6152 17.938C14.9425 18.2158 14.2215 18.3579 13.4938 18.3563H12.263C12.0334 18.3686 11.8033 18.3686 11.5738 18.3563" stroke="#222222" stroke-linecap="round" stroke-linejoin="round"/>
<path d="M12.8784 18.3563V20.8179" stroke="#222222" stroke-linecap="round" stroke-linejoin="round"/>
</svg>
