<svg width="25" height="25" viewBox="0 0 25 25" fill="none" xmlns="http://www.w3.org/2000/svg">
<path opacity="0.4" d="M20.8784 4.81763V20.8176" stroke="#222222" stroke-linecap="round" stroke-linejoin="round"/>
<path d="M4.90304 18.5529C4.90243 18.7743 4.96156 18.9918 5.0742 19.1824C5.18684 19.3731 5.3488 19.5297 5.54303 19.636C5.73013 19.744 5.94238 19.8009 6.15842 19.8009C6.37447 19.8009 6.5867 19.744 6.7738 19.636L15.623 13.8514C15.7958 13.7398 15.9378 13.5867 16.0361 13.4061C16.1345 13.2255 16.186 13.0232 16.186 12.8175C16.186 12.6119 16.1345 12.4095 16.0361 12.2289C15.9378 12.0483 15.7958 11.8953 15.623 11.7837L6.74919 6.04831C6.56209 5.94028 6.34985 5.88342 6.1338 5.88342C5.91777 5.88342 5.70552 5.94028 5.51842 6.04831C5.32419 6.15459 5.16222 6.31129 5.04958 6.5019C4.93695 6.69252 4.87782 6.90998 4.87842 7.13139L4.90304 18.5529Z" stroke="#222222" stroke-linecap="round" stroke-linejoin="round"/>
</svg>
