<svg width="25" height="25" viewBox="0 0 25 25" fill="none" xmlns="http://www.w3.org/2000/svg">
<path d="M7.73567 20.1549C8.99803 20.1549 10.0214 19.1316 10.0214 17.8692C10.0214 16.6069 8.99803 15.5835 7.73567 15.5835C6.4733 15.5835 5.44995 16.6069 5.44995 17.8692C5.44995 19.1316 6.4733 20.1549 7.73567 20.1549Z" stroke="#222222" stroke-linecap="round" stroke-linejoin="round"/>
<path d="M18.0213 17.2978C19.2837 17.2978 20.307 16.2745 20.307 15.0121C20.307 13.7497 19.2837 12.7264 18.0213 12.7264C16.7589 12.7264 15.7356 13.7497 15.7356 15.0121C15.7356 16.2745 16.7589 17.2978 18.0213 17.2978Z" stroke="#222222" stroke-linecap="round" stroke-linejoin="round"/>
<path opacity="0.4" d="M20.307 15.0121V6.05211C20.3065 5.96467 20.2859 5.87852 20.2468 5.80027C20.2079 5.72202 20.1514 5.65377 20.0818 5.60078C20.0123 5.54779 19.9315 5.51147 19.8457 5.49461C19.7599 5.47775 19.6714 5.48081 19.587 5.50354L10.4441 8.04068C10.3233 8.07322 10.2165 8.1445 10.1401 8.2436C10.0637 8.34271 10.0219 8.46413 10.0212 8.58925V17.8693M10.0212 11.5835L20.307 8.72635" stroke="#222222" stroke-linecap="round" stroke-linejoin="round"/>
</svg>
