<svg width="25" height="25" viewBox="0 0 25 25" fill="none" xmlns="http://www.w3.org/2000/svg">
<path d="M9.53659 4.81787H6.75882C6.14517 4.81787 5.64771 5.3689 5.64771 6.04864V19.5871C5.64771 20.2669 6.14517 20.8179 6.75882 20.8179H9.53659C10.1502 20.8179 10.6477 20.2669 10.6477 19.5871V6.04864C10.6477 5.3689 10.1502 4.81787 9.53659 4.81787Z" stroke="#222222" stroke-linecap="round" stroke-linejoin="round"/>
<path d="M18.998 4.81787H16.2202C15.6066 4.81787 15.1091 5.3689 15.1091 6.04864V19.5871C15.1091 20.2669 15.6066 20.8179 16.2202 20.8179H18.998C19.6117 20.8179 20.1091 20.2669 20.1091 19.5871V6.04864C20.1091 5.3689 19.6117 4.81787 18.998 4.81787Z" stroke="#222222" stroke-linecap="round" stroke-linejoin="round"/>
</svg>
