<svg width="25" height="25" viewBox="0 0 25 25" fill="none" xmlns="http://www.w3.org/2000/svg">
<path d="M9.53226 20.8669H6.47842C6.05407 20.8669 5.64711 20.6983 5.34705 20.3983C5.04699 20.0982 4.87842 19.6913 4.87842 19.2669V6.46694C4.87842 6.0426 5.04699 5.63563 5.34705 5.33557C5.64711 5.03551 6.05407 4.86694 6.47842 4.86694H19.2784C19.7028 4.86694 20.1097 5.03551 20.4097 5.33557C20.7098 5.63563 20.8784 6.0426 20.8784 6.46694V10.0977" stroke="#222222" stroke-linecap="round" stroke-linejoin="round"/>
<path d="M15.3568 10.153C16.2065 10.153 16.8953 9.46419 16.8953 8.61451C16.8953 7.76485 16.2065 7.07605 15.3568 7.07605C14.5072 7.07605 13.8184 7.76485 13.8184 8.61451C13.8184 9.46419 14.5072 10.153 15.3568 10.153Z" stroke="#222222" stroke-linecap="round" stroke-linejoin="round"/>
<path d="M4.87842 16.2734L8.42372 12.7281C8.48057 12.6808 8.55223 12.6548 8.62623 12.6548C8.70022 12.6548 8.77188 12.6808 8.82873 12.7281L12.9301 14.2405" stroke="#222222" stroke-width="0.8" stroke-linecap="round" stroke-linejoin="round"/>
<path opacity="0.4" d="M16.8784 14.5456L16.8784 18.9496M19.3953 17.0456L16.8784 19.867L14.3953 17.0456" stroke="#222222" stroke-width="0.8" stroke-linecap="round" stroke-linejoin="round"/>
</svg>
