<svg width="25" height="25" viewBox="0 0 25 25" fill="none" xmlns="http://www.w3.org/2000/svg">
<path opacity="0.4" d="M20.8784 14.6641L15.0815 20.461L12.46 20.8179L12.8292 18.1964L18.6138 12.3995L20.8784 14.6641Z" stroke="#222222" stroke-linecap="round" stroke-linejoin="round"/>
<path d="M9.53226 20.8179H6.47842C6.05407 20.8179 5.64711 20.6493 5.34705 20.3492C5.04699 20.0491 4.87842 19.6422 4.87842 19.2179V6.41787C4.87842 5.99353 5.04699 5.58656 5.34705 5.2865C5.64711 4.98644 6.05407 4.81787 6.47842 4.81787H19.2784C19.7028 4.81787 20.1097 4.98644 20.4097 5.2865C20.7098 5.58656 20.8784 5.99353 20.8784 6.41787V10.0486" stroke="#222222" stroke-linecap="round" stroke-linejoin="round"/>
<path d="M15.3568 10.1039C16.2065 10.1039 16.8953 9.41511 16.8953 8.56544C16.8953 7.71578 16.2065 7.02698 15.3568 7.02698C14.5072 7.02698 13.8184 7.71578 13.8184 8.56544C13.8184 9.41511 14.5072 10.1039 15.3568 10.1039Z" stroke="#222222" stroke-linecap="round" stroke-linejoin="round"/>
<path d="M4.87842 16.2244L8.42372 12.6791C8.48057 12.6317 8.55223 12.6058 8.62623 12.6058C8.70022 12.6058 8.77188 12.6317 8.82873 12.6791L12.9301 14.1914" stroke="#222222" stroke-width="0.8" stroke-linecap="round" stroke-linejoin="round"/>
</svg>
