<svg width="25" height="25" viewBox="0 0 25 25" fill="none" xmlns="http://www.w3.org/2000/svg">
<path d="M6.10919 20.8179H19.6476C20.3274 20.8179 20.8784 20.2669 20.8784 19.5871V6.04864C20.8784 5.3689 20.3274 4.81787 19.6476 4.81787H6.10919C5.42945 4.81787 4.87842 5.3689 4.87842 6.04864V19.5871C4.87842 20.2669 5.42945 20.8179 6.10919 20.8179Z" stroke="#222222" stroke-linecap="round" stroke-linejoin="round"/>
<path opacity="0.4" d="M6.41688 20.8179L15.4015 12.3501C15.5121 12.258 15.6514 12.2076 15.7953 12.2076C15.9392 12.2076 16.0786 12.258 16.1892 12.3501L20.8784 15.7101M5.07251 17.7426L8.61781 14.1973C8.67466 14.15 8.74632 14.1241 8.82032 14.1241C8.89431 14.1241 8.96597 14.15 9.02283 14.1973L11.434 15.925" stroke="#222222" stroke-width="0.8" stroke-linecap="round" stroke-linejoin="round"/>
<path opacity="0.4" d="M9.80148 11.5871C10.8211 11.5871 11.6476 10.7605 11.6476 9.74093C11.6476 8.72132 10.8211 7.89478 9.80148 7.89478C8.78187 7.89478 7.95532 8.72132 7.95532 9.74093C7.95532 10.7605 8.78187 11.5871 9.80148 11.5871Z" stroke="#222222" stroke-linecap="round" stroke-linejoin="round"/>
</svg>
