<svg width="25" height="25" viewBox="0 0 25 25" fill="none" xmlns="http://www.w3.org/2000/svg">
<path d="M5.87842 19.3875C5.88293 19.6443 5.95921 19.895 6.09894 20.1123C6.23868 20.3296 6.43653 20.5053 6.671 20.62C6.90514 20.7497 7.1695 20.8179 7.43842 20.8179C7.70734 20.8179 7.97171 20.7497 8.20584 20.62L19.0881 14.0258C19.3249 13.914 19.5246 13.7391 19.6645 13.521C19.8043 13.303 19.8784 13.0507 19.8784 12.7932C19.8784 12.5357 19.8043 12.2834 19.6645 12.0654C19.5246 11.8473 19.3249 11.6724 19.0881 11.5606L8.20584 5.0156C7.97171 4.88598 7.70734 4.81787 7.43842 4.81787C7.1695 4.81787 6.90514 4.88598 6.671 5.0156C6.43653 5.13046 6.23868 5.30609 6.09894 5.5234C5.95921 5.7407 5.88293 5.99139 5.87842 6.24818V19.3875Z" stroke="#222222" stroke-linecap="round" stroke-linejoin="round"/>
</svg>
