<svg width="25" height="25" viewBox="0 0 25 25" fill="none" xmlns="http://www.w3.org/2000/svg">
<path opacity="0.4" d="M4.87842 20.8177V4.81775" stroke="#222222" stroke-linecap="round" stroke-linejoin="round"/>
<path d="M20.8538 7.0825C20.8544 6.86109 20.7953 6.64361 20.6826 6.45296C20.57 6.26232 20.408 6.10564 20.2138 5.99942C20.0267 5.89136 19.8145 5.8345 19.5984 5.8345C19.3824 5.8345 19.1701 5.89136 18.983 5.99942L10.1338 11.784C9.96107 11.8956 9.81903 12.0486 9.7207 12.2292C9.62236 12.4098 9.57082 12.6122 9.57082 12.8178C9.57082 13.0235 9.62236 13.2258 9.7207 13.4064C9.81903 13.587 9.96107 13.7401 10.1338 13.8517L19.0076 19.5871C19.1948 19.6951 19.407 19.752 19.623 19.752C19.8391 19.752 20.0513 19.6951 20.2384 19.5871C20.4326 19.4808 20.5946 19.3241 20.7073 19.1335C20.8199 18.9429 20.879 18.7254 20.8784 18.504L20.8538 7.0825Z" stroke="#222222" stroke-linecap="round" stroke-linejoin="round"/>
</svg>
