<svg width="25" height="25" viewBox="0 0 25 25" fill="none" xmlns="http://www.w3.org/2000/svg">
<path d="M5.65632 10.3358C6.98082 11.1005 8.67446 10.6467 9.43916 9.32222C10.2039 7.99771 9.75005 6.30408 8.42555 5.53938C7.10105 4.77467 5.40741 5.22848 4.64271 6.55299C3.87801 7.87749 4.33182 9.57112 5.65632 10.3358Z" stroke="#222222" stroke-linecap="round" stroke-linejoin="round"/>
<path d="M12.1009 20.0965C13.4253 20.8612 15.119 20.4074 15.8837 19.0829C16.6484 17.7585 16.1946 16.0648 14.8701 15.3001C13.5456 14.5354 11.8519 14.9892 11.0873 16.3137C10.3226 17.6382 10.7764 19.3319 12.1009 20.0965Z" stroke="#222222" stroke-linecap="round" stroke-linejoin="round"/>
<path d="M17.3316 11.0366C18.6561 11.8013 20.3497 11.3475 21.1144 10.023C21.8791 8.69851 21.4253 7.00485 20.1008 6.24017C18.7764 5.47549 17.0827 5.92928 16.318 7.25378C15.5533 8.57828 16.0071 10.2719 17.3316 11.0366Z" stroke="#222222" stroke-linecap="round" stroke-linejoin="round"/>
<path opacity="0.4" d="M9.79883 8.10864L15.9586 8.46734" stroke="#222222" stroke-linecap="round" stroke-linejoin="round"/>
<path opacity="0.4" d="M8.56787 10.2404L11.9584 15.3956" stroke="#222222" stroke-linecap="round" stroke-linejoin="round"/>
</svg>
