<svg width="25" height="25" viewBox="0 0 25 25" fill="none" xmlns="http://www.w3.org/2000/svg">
<path d="M17.4048 10.4059H20.8783V6.99677" stroke="#222222" stroke-linecap="round" stroke-linejoin="round"/>
<path d="M17.9259 18.119C16.8574 19.1685 15.4958 19.8834 14.0133 20.1733C12.5308 20.4632 10.9939 20.315 9.59724 19.7476C8.20053 19.1801 7.00668 18.2188 6.16672 16.9853C5.32676 15.7518 4.87842 14.3015 4.87842 12.8179C4.87842 11.3343 5.32676 9.88396 6.16672 8.65046C7.00668 7.41696 8.20053 6.45567 9.59724 5.88819C10.9939 5.32072 12.5308 5.17255 14.0133 5.46243C15.4958 5.75232 16.8574 6.46723 17.9259 7.51674L20.8784 10.4059" stroke="#222222" stroke-linecap="round" stroke-linejoin="round"/>
<path opacity="0.4" d="M11.0415 10.0973C11.167 10.0973 11.3056 10.236 11.3056 10.3615V15.5119C11.3056 15.6374 11.167 15.776 11.0415 15.776C10.916 15.776 10.7774 15.6374 10.7774 15.5119V11.966C10.5595 12.1311 10.2953 12.2301 10.018 12.2301H9.89254C9.76708 12.2301 9.62842 12.0915 9.62842 11.966C9.62842 11.8406 9.76708 11.7019 9.89254 11.7019H10.018C10.4406 11.7019 10.7774 11.3651 10.7774 10.9425V10.3615C10.7774 10.236 10.916 10.0973 11.0415 10.0973Z" fill="#222222"/>
<path opacity="0.4" d="M14.4116 9.85962C14.8606 9.85962 15.3162 10.0511 15.6266 10.3879C15.9501 10.7246 16.1284 11.1935 16.1284 11.6623V13.9668C16.1284 14.4422 15.9501 14.9044 15.6332 15.2412C15.3162 15.5779 14.8606 15.776 14.4116 15.776C13.956 15.776 13.507 15.5779 13.1834 15.2412C12.8731 14.9044 12.6882 14.4422 12.6882 13.9668V11.6623C12.6882 11.1935 12.8731 10.7246 13.19 10.3879C13.507 10.0511 13.956 9.85962 14.4116 9.85962ZM14.4116 10.3879C13.7513 10.3879 13.2164 10.9557 13.2164 11.6623V13.9668C13.2164 14.6799 13.7513 15.2478 14.4116 15.2478C15.0653 15.2478 15.6002 14.6799 15.6002 13.9668V11.6623C15.6002 10.9557 15.0653 10.3879 14.4116 10.3879Z" fill="#222222"/>
</svg>
