<svg width="25" height="25" viewBox="0 0 25 25" fill="none" xmlns="http://www.w3.org/2000/svg">
<path d="M20.0415 8.81788L16.5707 10.3563V8.51019C16.5707 8.18376 16.441 7.87072 16.2102 7.6399C15.9794 7.40909 15.6664 7.27942 15.3399 7.27942H6.10919C5.78276 7.27942 5.46972 7.40909 5.2389 7.6399C5.00809 7.87072 4.87842 8.18376 4.87842 8.51019V17.1256C4.87842 17.452 5.00809 17.7651 5.2389 17.9958C5.46972 18.2266 5.78276 18.3563 6.10919 18.3563H15.3399C15.6664 18.3563 15.9794 18.2266 16.2102 17.9958C16.441 17.7651 16.5707 17.452 16.5707 17.1256V15.2794L20.0415 16.8179C20.135 16.8539 20.2361 16.8667 20.3356 16.8548C20.4352 16.843 20.5305 16.807 20.6129 16.7499C20.6954 16.6929 20.7627 16.6166 20.809 16.5277C20.8553 16.4387 20.8791 16.3397 20.8784 16.2394V9.39634C20.8791 9.29604 20.8553 9.19709 20.809 9.10811C20.7627 9.01912 20.6954 8.94279 20.6129 8.88577C20.5305 8.82873 20.4352 8.79275 20.3356 8.78091C20.2361 8.76908 20.135 8.78177 20.0415 8.81788Z" stroke="#222222" stroke-linecap="round" stroke-linejoin="round"/>
</svg>
