<svg width="25" height="25" viewBox="0 0 25 25" fill="none" xmlns="http://www.w3.org/2000/svg">
<path d="M9.53645 15.5781C9.41999 15.4896 9.28152 15.4348 9.13608 15.4195L5.51842 15.0398C5.34868 15.0398 5.18589 14.9739 5.06587 14.8567C4.94585 14.7395 4.87842 14.5805 4.87842 14.4148L4.87842 10.3213C4.87842 10.1555 4.94585 9.99656 5.06587 9.87935C5.18589 9.76214 5.34868 9.69629 5.51842 9.69629L9.14773 9.22049C9.2858 9.20239 9.41674 9.14857 9.52763 9.06435L13.8345 5.79304C14.3613 5.39294 15.1184 5.76863 15.1184 6.43011V18.2056C15.1184 18.8671 14.3613 19.2428 13.8345 18.8427L9.53645 15.5781Z" stroke="#222222" stroke-linecap="round" stroke-linejoin="round"/>
<path opacity="0.4" d="M18.3184 10.2229L18.3184 15.2437" stroke="#222222" stroke-linecap="round" stroke-linejoin="round"/>
<path opacity="0.4" d="M20.8784 7.81787L20.8784 17.6487" stroke="#222222" stroke-linecap="round" stroke-linejoin="round"/>
</svg>
