<svg width="25" height="25" viewBox="0 0 25 25" fill="none" xmlns="http://www.w3.org/2000/svg">
<path d="M12.5364 15.5781C12.42 15.4896 12.2815 15.4348 12.1361 15.4195L8.51842 15.0398C8.34868 15.0398 8.18589 14.9739 8.06587 14.8567C7.94585 14.7395 7.87842 14.5805 7.87842 14.4148L7.87842 10.3213C7.87842 10.1555 7.94585 9.99656 8.06587 9.87935C8.18589 9.76214 8.34868 9.69629 8.51842 9.69629L12.1477 9.22049C12.2858 9.20239 12.4167 9.14857 12.5276 9.06435L16.8345 5.79304C17.3613 5.39294 18.1184 5.76863 18.1184 6.43011V18.2056C18.1184 18.8671 17.3613 19.2428 16.8345 18.8427L12.5364 15.5781Z" stroke="#222222" stroke-linecap="round" stroke-linejoin="round"/>
</svg>
