<svg width="25" height="25" viewBox="0 0 25 25" fill="none" xmlns="http://www.w3.org/2000/svg">
<path opacity="0.4" d="M18.7132 6.98304C18.8269 6.86929 18.8775 6.70059 18.8061 6.55645C18.465 5.86828 17.0979 5.37395 16.412 5.8949L12.1051 9.16621C12.0635 9.19779 12.0144 9.21797 11.9626 9.22476L8.36109 9.69692C8.07584 9.70611 7.80214 9.82075 7.59642 10.0217C7.38136 10.2317 7.2583 10.5191 7.2583 10.8213L7.51903 15.6472C7.51903 15.9494 7.64209 16.2368 7.85715 16.4469C8.06464 16.6495 8.34129 16.7644 8.62919 16.7718L8.97255 16.8079C9.12255 16.8236 9.27165 16.7708 9.3783 16.6641C9.67576 16.3667 9.49531 15.8572 9.07695 15.8133L8.71123 15.7749C8.69389 15.7731 8.67647 15.7722 8.65903 15.7722C8.61813 15.7722 8.58121 15.7562 8.55582 15.7314C8.53083 15.707 8.51903 15.6765 8.51903 15.6472L8.2583 10.8213C8.2583 10.792 8.2701 10.7615 8.29509 10.7371C8.32048 10.7123 8.35739 10.6963 8.3983 10.6963C8.42003 10.6963 8.44174 10.6949 8.46329 10.6921L12.0926 10.2163C12.317 10.1869 12.5298 10.0994 12.7099 9.96254L17.0168 6.69124C17.2144 6.5412 17.9393 6.88799 17.9393 7.13605C17.9393 7.36517 18.2163 7.47991 18.3783 7.3179L18.7132 6.98304Z" fill="#222222"/>
<path d="M11.2782 15.7908C11.3849 15.6841 11.534 15.6313 11.684 15.6471L12.3762 15.7197C12.6125 15.7446 12.8375 15.8337 13.0268 15.9774L17.0168 18.9444C17.2143 19.0945 17.4982 18.9536 17.4982 18.7055V9.96243C17.4982 9.82982 17.5509 9.70264 17.6447 9.60887C17.9597 9.29389 18.4982 9.51698 18.4982 9.96243V18.7055C18.4982 19.7804 17.2679 20.3909 16.4119 19.7408L12.4219 16.7737C12.3782 16.7406 12.3263 16.72 12.2718 16.7143L11.5796 16.6416C11.1612 16.5977 10.9807 16.0883 11.2782 15.7908Z" fill="#222222"/>
<path d="M20.8784 4.81787L4.87842 20.8179" stroke="#222222" stroke-linecap="round"/>
</svg>
