<svg width="25" height="25" viewBox="0 0 25 25" fill="none" xmlns="http://www.w3.org/2000/svg">
<path d="M10.5364 15.5781C10.42 15.4896 10.2815 15.4348 10.1361 15.4195L6.51842 15.0398C6.34868 15.0398 6.18589 14.9739 6.06587 14.8567C5.94585 14.7395 5.87842 14.5805 5.87842 14.4148L5.87842 10.3213C5.87842 10.1555 5.94585 9.99656 6.06587 9.87935C6.18589 9.76214 6.34868 9.69629 6.51842 9.69629L10.1477 9.22049C10.2858 9.20239 10.4167 9.14857 10.5276 9.06435L14.8345 5.79304C15.3613 5.39294 16.1184 5.76863 16.1184 6.43011V18.2056C16.1184 18.8671 15.3613 19.2428 14.8345 18.8427L10.5364 15.5781Z" stroke="#222222" stroke-linecap="round" stroke-linejoin="round"/>
<path opacity="0.4" d="M19.3184 10.2229L19.3184 15.2437" stroke="#222222" stroke-linecap="round" stroke-linejoin="round"/>
</svg>
