<svg width="25" height="25" viewBox="0 0 25 25" fill="none" xmlns="http://www.w3.org/2000/svg">
<path d="M12.5 19.8179C12.5 19.8179 4.5 15.3633 4.5 9.95424C4.5 8.99801 4.8332 8.07132 5.4429 7.33183C6.0526 6.59234 6.90114 6.08573 7.84416 5.8982C8.78717 5.71067 9.76641 5.8538 10.6153 6.30324C11.4641 6.75268 12.1301 7.48066 12.5 8.36333V8.36333C12.8699 7.48066 13.5359 6.75268 14.3847 6.30324C15.2336 5.8538 16.2128 5.71067 17.1558 5.8982C18.0989 6.08573 18.9474 6.59234 19.5571 7.33183C20.1668 8.07132 20.5 8.99801 20.5 9.95424C20.5 15.3633 12.5 19.8179 12.5 19.8179Z" stroke="#222222" stroke-linecap="round" stroke-linejoin="round"/>
</svg>
