<svg width="25" height="25" viewBox="0 0 25 25" fill="none" xmlns="http://www.w3.org/2000/svg">
<path d="M16.9923 18.0428L20.5 12.8179L16.9923 7.5929C16.9366 7.50769 16.8602 7.43782 16.7701 7.38975C16.68 7.34168 16.5792 7.31696 16.4769 7.3179H5.11538C4.95217 7.3179 4.79565 7.38228 4.68024 7.49689C4.56484 7.61149 4.5 7.76693 4.5 7.929V17.7067C4.5 17.8688 4.56484 18.0243 4.68024 18.1389C4.79565 18.2535 4.95217 18.3178 5.11538 18.3178H16.4769C16.5792 18.3188 16.68 18.2941 16.7701 18.246C16.8602 18.1979 16.9366 18.128 16.9923 18.0428V18.0428Z" stroke="#222222" stroke-linecap="round" stroke-linejoin="round"/>
</svg>
