<svg width="25" height="25" viewBox="0 0 25 25" fill="none" xmlns="http://www.w3.org/2000/svg">
<path d="M9.4231 15.4087L18.8754 18.6336C19.0605 18.6961 19.2574 18.7127 19.4501 18.682C19.6425 18.6514 19.8253 18.5743 19.9831 18.4572C20.1421 18.3414 20.272 18.1884 20.3619 18.0109C20.4518 17.8336 20.4992 17.6368 20.5 17.4369V7.06939C20.4992 6.86953 20.4518 6.67276 20.3619 6.49535C20.272 6.31793 20.1421 6.16493 19.9831 6.04901C19.8242 5.93405 19.6411 5.85927 19.4485 5.8308C19.256 5.80235 19.0595 5.821 18.8754 5.88525L9.4231 9.11014V15.4087Z" stroke="#222222" stroke-linecap="round" stroke-linejoin="round"/>
<path d="M4.5 12.2595C4.5 12.6731 4.57959 13.0826 4.73422 13.4647C4.88885 13.8468 5.1155 14.1939 5.40121 14.4864C5.97824 15.077 6.76087 15.4088 7.57692 15.4088H9.42308V9.11018H7.57692C7.17286 9.11018 6.77275 9.19164 6.39943 9.34991C6.02613 9.50818 5.68693 9.74016 5.40121 10.0326C4.82417 10.6232 4.5 11.4242 4.5 12.2595Z" stroke="#222222" stroke-linecap="round" stroke-linejoin="round"/>
<path opacity="0.4" d="M7.5769 15.4088V16.6686C7.5769 17.0821 7.65649 17.4917 7.81112 17.8737C7.96575 18.2558 8.1924 18.603 8.47811 18.8954C8.76383 19.1879 9.10303 19.4198 9.47634 19.5781C9.84966 19.7364 10.2498 19.8179 10.6538 19.8179" stroke="#222222" stroke-linecap="round" stroke-linejoin="round"/>
</svg>
