<svg width="24" height="25" viewBox="0 0 24 25" fill="none" xmlns="http://www.w3.org/2000/svg">
<path d="M12 20.4004C16.4183 20.4004 20 16.8187 20 12.4004C20 7.98211 16.4183 4.40039 12 4.40039C7.58172 4.40039 4 7.98211 4 12.4004C4 16.8187 7.58172 20.4004 12 20.4004Z" stroke="#222222" stroke-miterlimit="10"/>
<path opacity="0.4" d="M12 16.7338C12.5523 16.7338 13 16.286 13 15.7338C13 15.1815 12.5523 14.7338 12 14.7338C11.4477 14.7338 11 15.1815 11 15.7338C11 16.286 11.4477 16.7338 12 16.7338Z" fill="#222222"/>
<path opacity="0.4" d="M10 10.0652C10 9.66999 10.1173 9.28366 10.3371 8.95506C10.5568 8.62647 10.8692 8.37036 11.2346 8.21911C11.6001 8.06788 12.0022 8.02832 12.3902 8.10541C12.7781 8.18251 13.1345 8.37281 13.4142 8.65227C13.6939 8.93172 13.8844 9.28776 13.9616 9.67536C14.0387 10.063 13.9991 10.4647 13.8478 10.8299C13.6964 11.195 13.44 11.507 13.1111 11.7266C12.7822 11.9462 11.8263 12.3307 11.4307 12.3307L12.0664 13.8065" stroke="#222222" stroke-linecap="round" stroke-linejoin="round"/>
</svg>
