<svg width="24" height="25" viewBox="0 0 24 25" fill="none" xmlns="http://www.w3.org/2000/svg">
<path d="M12 20.0543C12.8284 20.0543 13.5 19.3827 13.5 18.5543C13.5 17.7259 12.8284 17.0543 12 17.0543C11.1716 17.0543 10.5 17.7259 10.5 18.5543C10.5 19.3827 11.1716 20.0543 12 20.0543Z" fill="#222222"/>
<path d="M8.30762 8.43553C8.30762 7.70592 8.52417 6.99271 8.92989 6.38605C9.33559 5.77942 9.91227 5.3066 10.587 5.02738C11.2616 4.74817 12.004 4.67513 12.7203 4.81746C13.4365 4.95979 14.0944 5.31113 14.6108 5.82706C15.1272 6.34296 15.4788 7.00027 15.6213 7.71585C15.7638 8.43144 15.6907 9.17316 15.4112 9.84722C15.1317 10.5213 14.6585 11.0974 14.0513 11.5028C13.4441 11.9081 11.593 12.2861 10.8627 12.2861L12.1555 15.5184" stroke="#222222" stroke-linecap="round" stroke-linejoin="round"/>
</svg>
