<svg width="24" height="25" viewBox="0 0 24 25" fill="none" xmlns="http://www.w3.org/2000/svg">
<path d="M16.3077 4.40039H7.69231C5.65311 4.40039 4 6.0535 4 8.0927V16.7081C4 18.7473 5.65311 20.4004 7.69231 20.4004H16.3077C18.347 20.4004 20 18.7473 20 16.7081V8.0927C20 6.0535 18.347 4.40039 16.3077 4.40039Z" stroke="#222222" stroke-linecap="round" stroke-linejoin="round"/>
<path opacity="0.4" d="M12 8.40039V13.0671" stroke="#222222" stroke-linecap="round" stroke-linejoin="round"/>
<path opacity="0.4" d="M12 17.067C12.5523 17.067 13 16.6193 13 16.067C13 15.5147 12.5523 15.067 12 15.067C11.4477 15.067 11 15.5147 11 16.067C11 16.6193 11.4477 17.067 12 17.067Z" fill="#222222"/>
</svg>
