<svg width="24" height="25" viewBox="0 0 24 25" fill="none" xmlns="http://www.w3.org/2000/svg">
<path d="M10.9379 5.55276L4.16499 17.9439C4.05709 18.1418 4.00019 18.3663 4 18.5949C3.99981 18.8235 4.05633 19.0481 4.1639 19.2462C4.27146 19.4444 4.4263 19.6091 4.6129 19.7239C4.7995 19.8387 5.01131 19.8996 5.2271 19.9004H18.7729C18.9887 19.8996 19.2005 19.8387 19.3871 19.7239C19.5737 19.6091 19.7285 19.4444 19.8361 19.2462C19.9437 19.0481 20.0002 18.8235 20 18.5949C19.9998 18.3663 19.9429 18.1418 19.835 17.9439L13.0621 5.55276C12.955 5.35456 12.8004 5.18984 12.6139 5.07528C12.4274 4.96072 12.2156 4.90039 12 4.90039C11.7844 4.90039 11.5726 4.96072 11.3861 5.07528C11.1996 5.18984 11.045 5.35456 10.9379 5.55276V5.55276Z" stroke="#222222" stroke-linecap="round" stroke-linejoin="round"/>
<path opacity="0.4" d="M12 9.06714V13.7338" stroke="#222222" stroke-linecap="round" stroke-linejoin="round"/>
<path opacity="0.4" d="M12 17.7336C12.5523 17.7336 13 17.2859 13 16.7336C13 16.1814 12.5523 15.7336 12 15.7336C11.4477 15.7336 11 16.1814 11 16.7336C11 17.2859 11.4477 17.7336 12 17.7336Z" fill="#222222"/>
</svg>
