<svg width="25" height="25" viewBox="0 0 25 25" fill="none" xmlns="http://www.w3.org/2000/svg">
<path d="M16.0707 20.8179H5.60919C4.92943 20.8179 4.37842 20.2669 4.37842 19.5871V9.12556C4.37842 8.44582 4.92943 7.89479 5.60919 7.89479H16.0707C16.7505 7.89479 17.3015 8.44582 17.3015 9.12556V19.5871C17.3015 20.2669 16.7505 20.8179 16.0707 20.8179Z" stroke="#222222" stroke-linecap="round" stroke-linejoin="round"/>
<path opacity="0.4" d="M18.8784 17.1256C19.7068 17.1256 20.3784 16.454 20.3784 15.6256V6.04864C20.3784 5.72222 20.2487 5.40917 20.0179 5.17835C19.7871 4.94754 19.474 4.81787 19.1476 4.81787H9.30145C8.62171 4.81787 8.07068 5.36891 8.07068 6.04864" stroke="#222222" stroke-linecap="round" stroke-linejoin="round"/>
</svg>
