<svg width="25" height="25" viewBox="0 0 25 25" fill="none" xmlns="http://www.w3.org/2000/svg">
<path d="M18.7084 12.8179V9.72838C18.7084 9.46536 18.6048 9.21292 18.42 9.02577L14.5587 5.11526C14.3708 4.92498 14.1146 4.81787 13.8472 4.81787H6.37842C5.82613 4.81787 5.37842 5.26559 5.37842 5.81787V19.8179C5.37842 20.3702 5.82613 20.8179 6.37842 20.8179H11.3784" stroke="#222222" stroke-linecap="round" stroke-linejoin="round"/>
<path d="M9.37842 13.4846H13.6066" stroke="#222222" stroke-linecap="round" stroke-linejoin="round"/>
<path d="M9.37842 16.1511H13.635" stroke="#222222" stroke-linecap="round" stroke-linejoin="round"/>
<path opacity="0.4" d="M13.3784 18.8179L14.8717 20.6598C14.909 20.7083 14.9568 20.7477 15.0116 20.7751C15.0663 20.8025 15.1266 20.8171 15.1878 20.8178C15.248 20.8186 15.3076 20.8058 15.3623 20.7806C15.4169 20.7554 15.4653 20.7182 15.5038 20.672L19.8784 15.8179" stroke="#222222" stroke-width="0.8" stroke-linecap="round" stroke-linejoin="round"/>
</svg>
