<svg width="25" height="25" viewBox="0 0 25 25" fill="none" xmlns="http://www.w3.org/2000/svg">
<path d="M18.7084 12.8179V9.72838C18.7084 9.46536 18.6048 9.21292 18.42 9.02577L14.5587 5.11526C14.3708 4.92498 14.1146 4.81787 13.8472 4.81787H6.37842C5.82613 4.81787 5.37842 5.26559 5.37842 5.81787V19.8179C5.37842 20.3702 5.82613 20.8179 6.37842 20.8179H11.3784" stroke="#222222" stroke-linecap="round" stroke-linejoin="round"/>
<path d="M9.37842 13.4846H12.8784" stroke="#222222" stroke-linecap="round" stroke-linejoin="round"/>
<path d="M9.37842 16.1511H12.8784" stroke="#222222" stroke-linecap="round" stroke-linejoin="round"/>
<path opacity="0.4" d="M18.3784 17.7935L20.3784 16.8179V19.8179L18.3784 18.7691M14.8229 16.8179H17.934C18.1794 16.8179 18.3784 17.0097 18.3784 17.2464V19.3893C18.3784 19.626 18.1794 19.8179 17.934 19.8179H14.8229C14.5774 19.8179 14.3784 19.626 14.3784 19.3893V17.2464C14.3784 17.0097 14.5774 16.8179 14.8229 16.8179Z" stroke="#222222" stroke-width="0.8" stroke-linecap="round" stroke-linejoin="round"/>
</svg>
