<svg width="25" height="25" viewBox="0 0 25 25" fill="none" xmlns="http://www.w3.org/2000/svg">
<path d="M18.7084 12.8179V9.72838C18.7084 9.46536 18.6048 9.21292 18.42 9.02577L14.5587 5.11526C14.3708 4.92498 14.1146 4.81787 13.8472 4.81787H6.37842C5.82613 4.81787 5.37842 5.26559 5.37842 5.81787V19.8179C5.37842 20.3702 5.82613 20.8179 6.37842 20.8179H11.3784" stroke="#222222" stroke-linecap="round" stroke-linejoin="round"/>
<path d="M9.37842 13.4846H13.6066" stroke="#222222" stroke-linecap="round" stroke-linejoin="round"/>
<path d="M9.37842 16.1511H13.635" stroke="#222222" stroke-linecap="round" stroke-linejoin="round"/>
<path opacity="0.4" d="M15.4391 19.8569L17.797 18.749C17.8147 18.7342 17.8371 18.7261 17.8603 18.7261C17.8834 18.7261 17.9235 18.749 17.9235 18.749L20.3784 19.5679M15.763 20.8179H19.9938C20.2062 20.8179 20.3784 20.6457 20.3784 20.4333V16.2025C20.3784 15.9901 20.2062 15.8179 19.9938 15.8179H15.763C15.5506 15.8179 15.3784 15.9901 15.3784 16.2025V20.4333C15.3784 20.6457 15.5506 20.8179 15.763 20.8179ZM16.9169 17.9333C17.2355 17.9333 17.4938 17.675 17.4938 17.3563C17.4938 17.0377 17.2355 16.7794 16.9169 16.7794C16.5983 16.7794 16.34 17.0377 16.34 17.3563C16.34 17.675 16.5983 17.9333 16.9169 17.9333Z" stroke="#222222" stroke-width="0.7" stroke-linecap="round" stroke-linejoin="round"/>
</svg>
