<svg width="25" height="25" viewBox="0 0 25 25" fill="none" xmlns="http://www.w3.org/2000/svg">
<path d="M4.37842 18.9722V6.04917C4.37842 5.72274 4.50809 5.4097 4.7389 5.17888C4.96972 4.94806 5.28276 4.81839 5.60919 4.81839H10.1507C10.4319 4.8102 10.7074 4.89856 10.9313 5.06875C11.1552 5.23894 11.3141 5.4807 11.3815 5.75378L11.763 7.27994H19.1476C19.474 7.27994 19.7872 7.4096 20.0179 7.64042C20.2487 7.87123 20.3784 8.18428 20.3784 8.51071V18.9722C20.3784 19.2987 20.2487 19.6117 20.0179 19.8425C19.7872 20.0734 19.474 20.203 19.1476 20.203H5.60919C5.28276 20.203 4.96972 20.0734 4.7389 19.8425C4.50809 19.6117 4.37842 19.2987 4.37842 18.9722Z" stroke="#222222" stroke-linecap="round" stroke-linejoin="round"/>
</svg>
