<svg width="25" height="25" viewBox="0 0 25 25" fill="none" xmlns="http://www.w3.org/2000/svg">
<path d="M20.3784 12.8179V8.31787C20.3784 7.76559 19.9307 7.31787 19.3784 7.31787H12.5555C12.1465 7.31787 11.7788 7.06892 11.627 6.68926L11.1299 5.44648C10.978 5.06682 10.6103 4.81787 10.2014 4.81787H5.37842C4.82613 4.81787 4.37842 5.26559 4.37842 5.81787V19.8179C4.37842 20.3702 4.82613 20.8179 5.37842 20.8179H12.3784" stroke="#222222" stroke-linecap="round" stroke-linejoin="round"/>
<path opacity="0.4" d="M14.3784 18.8179L15.8717 20.6598C15.909 20.7083 15.9568 20.7477 16.0116 20.7751C16.0663 20.8025 16.1266 20.8171 16.1878 20.8178C16.248 20.8186 16.3076 20.8058 16.3623 20.7806C16.4169 20.7554 16.4653 20.7182 16.5038 20.672L20.8784 15.8179" stroke="#222222" stroke-width="0.8" stroke-linecap="round" stroke-linejoin="round"/>
</svg>
