<svg width="25" height="25" viewBox="0 0 25 25" fill="none" xmlns="http://www.w3.org/2000/svg">
<path d="M9.91867 19.2672L4.37842 20.8179L5.92969 15.2798L16.0745 5.18815C16.1891 5.07094 16.3262 4.9778 16.4772 4.91421C16.6284 4.85063 16.7908 4.81787 16.9548 4.81787C17.1188 4.81787 17.2812 4.85063 17.4324 4.91421C17.5834 4.9778 17.7205 5.07094 17.8351 5.18815L20.0142 7.37878C20.1296 7.49318 20.2212 7.62931 20.2837 7.77927C20.3463 7.92924 20.3784 8.0901 20.3784 8.25257C20.3784 8.41503 20.3463 8.57589 20.2837 8.72587C20.2212 8.87584 20.1296 9.01195 20.0142 9.12636L9.91867 19.2672Z" stroke="#222222" stroke-linecap="round" stroke-linejoin="round"/>
</svg>
