<svg width="25" height="25" viewBox="0 0 25 25" fill="none" xmlns="http://www.w3.org/2000/svg">
<path opacity="0.4" d="M14.686 4.81787H10.9937C10.314 4.81787 9.76294 5.3689 9.76294 6.04864V6.66403C9.76294 7.34375 10.314 7.89479 10.9937 7.89479H14.686C15.3657 7.89479 15.9168 7.34375 15.9168 6.66403V6.04864C15.9168 5.3689 15.3657 4.81787 14.686 4.81787Z" stroke="#222222" stroke-linecap="round" stroke-linejoin="round"/>
<path d="M16.2246 6.04865H18.0707C18.3971 6.04865 18.7102 6.17832 18.941 6.40912C19.1718 6.63994 19.3015 6.95299 19.3015 7.27941V19.5871C19.3015 19.9135 19.1718 20.2266 18.941 20.4574C18.7102 20.6882 18.3971 20.8179 18.0707 20.8179H7.60919C7.28276 20.8179 6.96972 20.6882 6.7389 20.4574C6.50809 20.2266 6.37842 19.9135 6.37842 19.5871V7.27941C6.37842 6.95299 6.50809 6.63994 6.7389 6.40912C6.96972 6.17832 7.28276 6.04865 7.60919 6.04865H9.45534" stroke="#222222" stroke-linecap="round" stroke-linejoin="round"/>
</svg>
